<?xml version="1.0" encoding="UTF-8"?>
<svg id="uuid-d4d94d1c-9b28-430e-a619-100a1f6cc1db" data-name="Layer 1" xmlns="http://www.w3.org/2000/svg" viewBox="0 0 277.14 271.13">
  <defs>
    <style>
      .uuid-c3c47f23-8aa7-407b-beeb-8bf39b499694 {
        fill: #e22726;
      }

      .uuid-b908fef6-5d0c-4515-85da-be9498874cea, .uuid-8eccdc28-e876-4879-9627-4e8cd5946e14 {
        fill: #fff;
      }

      .uuid-8eccdc28-e876-4879-9627-4e8cd5946e14 {
        stroke: #000;
        stroke-miterlimit: 10;
        stroke-width: .5px;
      }
    </style>
  </defs>
  <circle class="uuid-8eccdc28-e876-4879-9627-4e8cd5946e14" cx="138.07" cy="134.91" r="132.74"/>
  <g>
    <path d="M137.28,205.35h-55.45c-9.5,0-17.27-7.77-17.27-17.27v-101.52c0-9.5,7.77-17.27,17.27-17.27h55.45c9.5,0,17.27,7.77,17.27,17.27v101.52c0,9.5-7.77,17.27-17.27,17.27"/>
    <path class="uuid-b908fef6-5d0c-4515-85da-be9498874cea" d="M144.96,119.35c0,19.55-15.85,35.4-35.4,35.4s-35.4-15.85-35.4-35.4,15.85-35.4,35.4-35.4,35.4,15.85,35.4,35.4"/>
    <path d="M138.11,119.35c0,15.77-12.78,28.55-28.55,28.55s-28.55-12.78-28.55-28.55,12.78-28.55,28.55-28.55,28.55,12.78,28.55,28.55"/>
    <path d="M220.77,143.29h-58.22c-2.93,0-5.33-2.4-5.33-5.33v-37.33c0-2.93,2.4-5.33,5.33-5.33h58.22c2.93,0,5.33,2.4,5.33,5.33v37.33c0,2.93-2.4,5.33-5.33,5.33"/>
    <path d="M165.86,123.88h-11.3c-2.93,0-5.33-2.4-5.33-5.33v-7.25c0-2.93,2.4-5.33,5.33-5.33h11.3c2.93,0,5.33,2.4,5.33,5.33v7.25c0,2.93-2.4,5.33-5.33,5.33"/>
    <path d="M131.95,203.43c0,5.91-10.03,10.71-22.39,10.71s-22.39-4.79-22.39-10.71,10.03-10.71,22.39-10.71,22.39,4.79,22.39,10.71"/>
    <path class="uuid-c3c47f23-8aa7-407b-beeb-8bf39b499694" d="M253.2,86.27c-6.29-14.88-15.3-28.24-26.77-39.71-11.47-11.47-24.83-20.48-39.71-26.77-15.42-6.52-31.78-9.83-48.65-9.83s-33.22,3.3-48.65,9.83c-14.88,6.29-28.25,15.3-39.71,26.77-11.47,11.47-20.47,24.83-26.77,39.71-6.52,15.42-9.83,31.78-9.83,48.65s3.31,33.23,9.83,48.65c6.3,14.88,15.3,28.24,26.77,39.71,11.47,11.47,24.83,20.48,39.71,26.77,15.42,6.52,31.78,9.83,48.65,9.83s33.23-3.3,48.65-9.83c14.88-6.29,28.24-15.3,39.71-26.77,11.47-11.47,20.48-24.83,26.77-39.71,6.52-15.42,9.83-31.78,9.83-48.65s-3.31-33.23-9.83-48.65M203.44,214.72c-18.4,15.1-41.61,23.41-65.37,23.41-56.91,0-103.22-46.3-103.22-103.22,0-23.76,8.32-46.98,23.41-65.37l145.18,145.18ZM241.28,134.91c0,23.3-8.03,46.16-22.6,64.38L73.69,54.29c18.22-14.58,41.08-22.6,64.37-22.6,56.92,0,103.22,46.3,103.22,103.22"/>
  </g>
</svg>