<?xml version="1.0" encoding="UTF-8"?>
<svg id="uuid-2f5bfab1-77c3-479a-bd65-4521e0b99c9b" xmlns="http://www.w3.org/2000/svg" width="23.25mm" height="30.78mm" version="1.1" viewBox="0 0 65.91 87.26">
  <!-- Generator: Adobe Illustrator 29.4.0, SVG Export Plug-In . SVG Version: 2.1.0 Build 152)  -->
  <defs>
    <style>
      .st0 {
        fill: #ed1c24;
      }

      .st1 {
        fill: #fff;
        stroke: #000;
        stroke-miterlimit: 10;
        stroke-width: .5px;
      }
    </style>
  </defs>
  <rect class="st1" x="1.13" y="1.09" width="63.65" height="85.07" rx="5.33" ry="5.33"/>
  <path class="st0" d="M32.95,12.14C15.56,12.14,1.47,26.23,1.47,43.62s14.09,31.49,31.48,31.49,31.49-14.1,31.49-31.49-14.1-31.48-31.49-31.48ZM32.95,68.51c-13.75,0-24.89-11.14-24.89-24.89s11.14-24.89,24.89-24.89,24.89,11.14,24.89,24.89-11.14,24.89-24.89,24.89Z"/>
  <g>
    <path d="M14.17,37.36h-1.89v-2.65h.22c.87,0,1.82-.51,2.41-1.32h2.62v20.98h-3.35v-17h0Z"/>
    <path d="M28.92,44.58v-3.31h.82c1.33,0,2.07-.74,2.07-2.06,0-1.63-1.32-2.8-3.03-2.8-1.41,0-2.44.66-3.18,2.06l-3.11-1.18c1.11-2.65,3.48-4.27,6.21-4.27,3.55,0,6.44,2.86,6.44,6.4,0,1.25-.3,2.13-1.19,3.46,1.55,1.4,2,2.5,2,4.57,0,4.27-2.94,7.28-7.25,7.28-3.4,0-6.14-2.21-7.03-5.6l3.26-.96c.52,2.06,1.92,3.16,3.92,3.16,2.22,0,3.77-1.56,3.77-3.68,0-.87-.36-3.09-2.77-3.09h-.93v.02Z"/>
    <path d="M54.62,43.88c0,.75.16,10.86-7.45,10.86s-7.45-10.1-7.45-10.86-.16-10.85,7.45-10.85,7.45,10.1,7.45,10.85ZM47.2,51.35c2.26,0,4.1-2.14,4.1-7.47s-1.83-7.47-4.1-7.47-4.1,2.14-4.1,7.47,1.84,7.47,4.1,7.47Z"/>
  </g>
</svg>