<?xml version="1.0" encoding="UTF-8"?>
<svg id="uuid-99e5db69-2576-4a79-bcd9-f8b51f2e974f" xmlns="http://www.w3.org/2000/svg" width="23.25mm" height="30.78mm" version="1.1" viewBox="0 0 65.91 87.26">
  <!-- Generator: Adobe Illustrator 29.4.0, SVG Export Plug-In . SVG Version: 2.1.0 Build 152)  -->
  <defs>
    <style>
      .st0 {
        fill: #ed1c24;
      }

      .st1 {
        fill: #fff;
        stroke: #000;
        stroke-miterlimit: 10;
        stroke-width: .5px;
      }
    </style>
  </defs>
  <rect class="st1" x="1.13" y="1.09" width="63.65" height="85.07" rx="5.33" ry="5.33"/>
  <path class="st0" d="M32.95,12.14C15.56,12.14,1.47,26.23,1.47,43.62s14.09,31.49,31.48,31.49,31.49-14.1,31.49-31.49-14.1-31.48-31.49-31.48ZM32.95,68.51c-13.75,0-24.89-11.14-24.89-24.89s11.14-24.89,24.89-24.89,24.89,11.14,24.89,24.89-11.14,24.89-24.89,24.89Z"/>
  <g>
    <path d="M12.72,55.51l1.99-3.62c1.08.54,2.98.9,4.88.9,3.71,0,6.6-2.45,6.6-5.78,0-2.53-2.05-4.52-4.61-4.52-1.81,0-2.62.54-4.16,2.71l-4.07-1.17.64-13.28h14.82v4.07h-10.85l-.27,4.25c1.9-.54,2.71-.72,3.98-.72,4.71,0,8.58,3.91,8.58,8.67,0,5.7-4.69,9.94-11.21,9.94-2.26,0-4.52-.54-6.33-1.45h0Z"/>
    <path d="M53.18,43.62c0,.92.2,13.33-9.15,13.33s-9.15-12.41-9.15-13.33-.2-13.33,9.15-13.33,9.15,12.4,9.15,13.33ZM44.07,52.8c2.78,0,5.03-2.63,5.03-9.18s-2.25-9.18-5.03-9.18-5.03,2.63-5.03,9.18,2.25,9.18,5.03,9.18Z"/>
  </g>
</svg>