<?xml version="1.0" encoding="UTF-8"?>
<svg id="uuid-b3f12ebc-9652-4b14-af85-99853aa760eb" xmlns="http://www.w3.org/2000/svg" width="23.25mm" height="30.78mm" version="1.1" viewBox="0 0 65.91 87.26">
  <!-- Generator: Adobe Illustrator 29.4.0, SVG Export Plug-In . SVG Version: 2.1.0 Build 152)  -->
  <defs>
    <style>
      .st0 {
        isolation: isolate;
      }

      .st1 {
        fill: #ed1c24;
      }

      .st2 {
        fill: #fff;
        stroke: #000;
        stroke-miterlimit: 10;
        stroke-width: .5px;
      }
    </style>
  </defs>
  <rect class="st2" x="1.13" y="1.09" width="63.65" height="85.07" rx="5.33" ry="5.33"/>
  <path class="st1" d="M32.95,12.14C15.56,12.14,1.47,26.23,1.47,43.62s14.09,31.49,31.48,31.49,31.49-14.1,31.49-31.49-14.1-31.48-31.49-31.48ZM32.95,68.51c-13.75,0-24.89-11.14-24.89-24.89s11.14-24.89,24.89-24.89,24.89,11.14,24.89,24.89-11.14,24.89-24.89,24.89Z"/>
  <g class="st0">
    <g class="st0">
      <path d="M24.19,55.36l1.99-3.62c1.08.54,2.98.9,4.88.9,3.71,0,6.6-2.45,6.6-5.78,0-2.53-2.05-4.52-4.61-4.52-1.81,0-2.62.54-4.16,2.71l-4.07-1.17.64-13.28h14.82v4.07h-10.85l-.27,4.25c1.9-.54,2.71-.72,3.98-.72,4.71,0,8.58,3.91,8.58,8.67,0,5.7-4.69,9.94-11.21,9.94-2.26,0-4.52-.54-6.33-1.45h0Z"/>
    </g>
  </g>
</svg>