<?xml version="1.0" encoding="UTF-8"?>
<svg id="uuid-a46c8546-daff-4d07-b9e6-6c5e70f8a912" xmlns="http://www.w3.org/2000/svg" width="22.63mm" height="37.72mm" version="1.1" viewBox="0 0 64.15 106.92">
  <!-- Generator: Adobe Illustrator 29.4.0, SVG Export Plug-In . SVG Version: 2.1.0 Build 152)  -->
  <defs>
    <style>
      .st0 {
        isolation: isolate;
      }

      .st1 {
        fill: #ed1c24;
      }

      .st2 {
        fill: #fff;
      }
    </style>
  </defs>
  <g>
    <path class="st2" d="M6.21.25h51.73c3.29,0,5.96,2.67,5.96,5.96v94.5c0,3.29-2.67,5.96-5.96,5.96H6.21c-3.29,0-5.96-2.67-5.96-5.96V6.21C.25,2.92,2.92.25,6.21.25Z"/>
    <path d="M57.94,106.92H6.21c-3.42,0-6.21-2.79-6.21-6.21V6.21C0,2.79,2.79,0,6.21,0h51.73C61.36,0,64.15,2.79,64.15,6.21v94.5c0,3.42-2.79,6.21-6.21,6.21ZM6.21.5C3.06.5.5,3.06.5,6.21v94.5c0,3.15,2.56,5.71,5.71,5.71h51.73c3.15,0,5.71-2.56,5.71-5.71V6.21c0-3.15-2.56-5.71-5.71-5.71H6.21Z"/>
  </g>
  <path class="st1" d="M32.07,11.3C14.68,11.3.59,25.39.59,42.78s14.09,31.49,31.48,31.49,31.49-14.1,31.49-31.49-14.1-31.48-31.49-31.48ZM32.07,67.67c-13.75,0-24.89-11.14-24.89-24.89s11.14-24.89,24.89-24.89,24.89,11.14,24.89,24.89-11.14,24.89-24.89,24.89Z"/>
  <g>
    <path d="M3.28,92.24c0-3.15,1.7-5.09,4.48-5.09,2.62,0,4.37,2.03,4.37,5.06s-1.69,5.16-4.37,5.16c-3.11,0-4.48-2.65-4.48-5.13ZM5.21,92.24c0,2.11.96,3.36,2.56,3.36,2,0,2.48-1.84,2.48-3.36,0-2.1-.92-3.33-2.48-3.33s-2.56,1.25-2.56,3.33Z"/>
    <path d="M16.36,90.4v6.79h-1.86v-9.88h1.85l4.87,6.52v-6.52h1.82v9.88h-1.63l-5.05-6.79Z"/>
    <path d="M36.1,96.53c-.74.42-1.7.67-2.67.67-1.82,0-3.19-.63-4.38-1.93l1.52-1.12c.78.88,1.63,1.27,2.82,1.27,1.34,0,2.3-.59,2.3-1.3,0-1-1.07-1.07-4.02-1.85-1.48-.39-2.15-1.45-2.15-2.51,0-1.65,1.49-2.78,3.64-2.78,1.56,0,2.86.49,3.94,1.54l-1.41,1.2c-.67-.67-1.52-.98-2.52-.98-1.15,0-1.71.44-1.71,1.01,0,1.1,1.43.85,4.05,1.72,1.85.61,2.07,2.09,2.07,2.72,0,1.02-.48,1.79-1.49,2.35h.01Z"/>
    <path d="M39.65,87.14h1.9v9.88h-1.9v-9.88Z"/>
    <path d="M48.19,97.02h-1.85v-8.14h-3.03v-1.73h7.9v1.73h-3.03v8.14h0Z"/>
    <path d="M52.97,87.14h7.71v1.77h-5.79v1.84h3.15v1.8h-3.15v2.7h5.97v1.77h-7.9v-9.88h.01Z"/>
  </g>
  <g class="st0">
    <g class="st0">
      <path d="M20.74,43.64v-4.07h1c1.64,0,2.54-.91,2.54-2.53,0-2-1.63-3.43-3.73-3.43-1.73,0-3,.81-3.91,2.53l-3.82-1.45c1.36-3.25,4.27-5.24,7.63-5.24,4.36,0,7.9,3.51,7.9,7.86,0,1.54-.36,2.62-1.46,4.25,1.91,1.72,2.45,3.07,2.45,5.61,0,5.24-3.61,8.94-8.9,8.94-4.18,0-7.54-2.71-8.63-6.87l4-1.17c.64,2.53,2.36,3.89,4.81,3.89,2.72,0,4.63-1.91,4.63-4.52,0-1.06-.44-3.8-3.4-3.8h-1.15.04Z"/>
      <path d="M52.3,42.78c0,.92.2,13.33-9.15,13.33s-9.15-12.41-9.15-13.33-.2-13.33,9.15-13.33,9.15,12.4,9.15,13.33ZM43.19,51.95c2.78,0,5.03-2.63,5.03-9.18s-2.25-9.18-5.03-9.18-5.03,2.63-5.03,9.18,2.25,9.18,5.03,9.18Z"/>
    </g>
  </g>
</svg>