<?xml version="1.0" encoding="UTF-8"?>
<svg id="uuid-b938957d-681d-4062-aa13-3c17eb5262eb" xmlns="http://www.w3.org/2000/svg" width="23.25mm" height="30.78mm" version="1.1" viewBox="0 0 65.91 87.26">
  <!-- Generator: Adobe Illustrator 29.4.0, SVG Export Plug-In . SVG Version: 2.1.0 Build 152)  -->
  <defs>
    <style>
      .st0 {
        fill: #ed1c24;
      }

      .st1 {
        fill: #fff;
        stroke: #000;
        stroke-miterlimit: 10;
        stroke-width: .5px;
      }
    </style>
  </defs>
  <rect class="st1" x="1.13" y="1.09" width="63.65" height="85.07" rx="5.33" ry="5.33"/>
  <path class="st0" d="M32.95,12.14C15.56,12.14,1.47,26.23,1.47,43.62s14.09,31.49,31.48,31.49,31.49-14.1,31.49-31.49-14.1-31.48-31.49-31.48ZM32.95,68.51c-13.75,0-24.89-11.14-24.89-24.89s11.14-24.89,24.89-24.89,24.89,11.14,24.89,24.89-11.14,24.89-24.89,24.89Z"/>
  <g>
    <path d="M13.97,37.22h-1.86v-2.61h.21c.86,0,1.79-.51,2.36-1.3h2.58v20.62h-3.29v-16.72h0Z"/>
    <path d="M36,43.62c0,.74.16,10.67-7.33,10.67s-7.33-9.93-7.33-10.67-.16-10.67,7.33-10.67,7.33,9.93,7.33,10.67ZM28.71,50.97c2.22,0,4.03-2.11,4.03-7.35s-1.8-7.35-4.03-7.35-4.03,2.1-4.03,7.35,1.8,7.35,4.03,7.35Z"/>
    <path d="M54.35,43.62c0,.74.16,10.67-7.33,10.67s-7.33-9.93-7.33-10.67-.16-10.67,7.33-10.67,7.33,9.93,7.33,10.67ZM47.06,50.97c2.22,0,4.03-2.11,4.03-7.35s-1.8-7.35-4.03-7.35-4.03,2.1-4.03,7.35,1.8,7.35,4.03,7.35Z"/>
  </g>
</svg>