<?xml version="1.0" encoding="UTF-8"?>
<svg id="uuid-71a1135f-b852-41bb-97e1-ba6d0e826f83" data-name="Layer 1" xmlns="http://www.w3.org/2000/svg" viewBox="0 0 65.91 87.26">
  <defs>
    <style>
      .uuid-ca52ee8e-ab76-4bed-aa01-af71ec8b0f0f {
        fill: #ed1c24;
      }

      .uuid-549e0884-e093-4303-9bea-43452c21bf93 {
        fill: #fff;
        stroke: #000;
        stroke-miterlimit: 10;
        stroke-width: .5px;
      }
    </style>
  </defs>
  <rect class="uuid-549e0884-e093-4303-9bea-43452c21bf93" x="1.13" y="1.09" width="63.65" height="85.07" rx="5.33" ry="5.33"/>
  <path class="uuid-ca52ee8e-ab76-4bed-aa01-af71ec8b0f0f" d="M32.95,12.14C15.56,12.14,1.47,26.23,1.47,43.62s14.09,31.49,31.48,31.49,31.49-14.1,31.49-31.49-14.1-31.48-31.49-31.48ZM32.95,68.51c-13.75,0-24.89-11.14-24.89-24.89s11.14-24.89,24.89-24.89,24.89,11.14,24.89,24.89-11.14,24.89-24.89,24.89Z"/>
  <g>
    <path d="M21.61,35.62h-2.32v-3.25h.27c1.07,0,2.24-.63,2.95-1.63h3.22v25.76h-4.11v-20.88Z"/>
    <path d="M49.11,43.62c0,.92.2,13.33-9.15,13.33s-9.15-12.41-9.15-13.33-.2-13.33,9.15-13.33,9.15,12.4,9.15,13.33ZM40.01,52.8c2.78,0,5.03-2.63,5.03-9.18s-2.25-9.18-5.03-9.18-5.03,2.63-5.03,9.18,2.25,9.18,5.03,9.18Z"/>
  </g>
</svg>