<?xml version="1.0" encoding="UTF-8"?>
<svg id="uuid-ff442c6c-52f0-4990-bd74-bcb1f200d479" xmlns="http://www.w3.org/2000/svg" width="23.25mm" height="30.78mm" version="1.1" viewBox="0 0 65.91 87.26">
  <!-- Generator: Adobe Illustrator 29.4.0, SVG Export Plug-In . SVG Version: 2.1.0 Build 152)  -->
  <defs>
    <style>
      .st0 {
        fill: #ed1c24;
      }

      .st1 {
        fill: #fff;
        stroke: #000;
        stroke-miterlimit: 10;
        stroke-width: .5px;
      }
    </style>
  </defs>
  <rect class="st1" x="1.13" y="1.09" width="63.65" height="85.07" rx="5.33" ry="5.33"/>
  <path class="st0" d="M32.95,12.14C15.56,12.14,1.47,26.23,1.47,43.62s14.09,31.49,31.48,31.49,31.49-14.1,31.49-31.49-14.1-31.48-31.49-31.48ZM32.95,68.51c-13.75,0-24.89-11.14-24.89-24.89s11.14-24.89,24.89-24.89,24.89,11.14,24.89,24.89-11.14,24.89-24.89,24.89Z"/>
  <g>
    <path d="M14.49,35.85h-2.37v-3.32h.27c1.1,0,2.29-.64,3.02-1.66h3.29v26.3h-4.2v-21.32h-.01Z"/>
    <path d="M26.26,35.85h-2.37v-3.32h.27c1.1,0,2.29-.64,3.02-1.66h3.29v26.3h-4.2v-21.32h-.01Z"/>
    <path d="M54.35,44.01c0,.94.2,13.61-9.34,13.61s-9.34-12.67-9.34-13.61-.2-13.61,9.34-13.61,9.34,12.66,9.34,13.61ZM45.06,53.39c2.83,0,5.14-2.69,5.14-9.37s-2.3-9.37-5.14-9.37-5.14,2.68-5.14,9.37,2.3,9.37,5.14,9.37Z"/>
  </g>
</svg>