<?xml version="1.0" encoding="UTF-8"?>
<svg id="uuid-97cdf47c-2d63-427a-8b29-2623d7be69f5" data-name="Layer 1" xmlns="http://www.w3.org/2000/svg" viewBox="0 0 65.91 87.26">
  <defs>
    <style>
      .uuid-4bb22ee2-6ad7-4a19-9d57-2f9334a65109 {
        fill: #ed1c24;
      }

      .uuid-f3a03d78-5e6c-4752-baf8-5535bd2df690 {
        fill: #fff;
        stroke: #000;
        stroke-miterlimit: 10;
        stroke-width: .5px;
      }
    </style>
  </defs>
  <rect class="uuid-f3a03d78-5e6c-4752-baf8-5535bd2df690" x="1.13" y="1.09" width="63.65" height="85.07" rx="5.33" ry="5.33"/>
  <path class="uuid-4bb22ee2-6ad7-4a19-9d57-2f9334a65109" d="M32.95,12.14C15.56,12.14,1.47,26.23,1.47,43.62s14.09,31.49,31.48,31.49,31.49-14.1,31.49-31.49-14.1-31.48-31.49-31.48ZM32.95,68.51c-13.75,0-24.89-11.14-24.89-24.89s11.14-24.89,24.89-24.89,24.89,11.14,24.89,24.89-11.14,24.89-24.89,24.89Z"/>
  <g>
    <path d="M17.61,52.43h12.65v4.16H12.73c.09-2.98.72-5.43,2.17-7.86,4.52-7.55,11.3-6.8,11.3-10.75,0-1.9-2.16-3.43-4.7-3.43s-4.25,1.26-4.7,3.62l-4.07-.9c.9-4.25,4.25-6.87,8.76-6.87,4.88,0,8.76,3.44,8.76,7.68,0,3.08-1.77,5.04-4.06,6.47-3.47,2.16-6.65,3.11-8.58,7.9Z"/>
    <path d="M53.18,43.71c0,.92.2,13.33-9.15,13.33s-9.15-12.41-9.15-13.33-.2-13.33,9.15-13.33,9.15,12.4,9.15,13.33ZM44.08,52.88c2.78,0,5.03-2.63,5.03-9.18s-2.25-9.18-5.03-9.18-5.03,2.63-5.03,9.18,2.25,9.18,5.03,9.18Z"/>
  </g>
</svg>