<?xml version="1.0" encoding="UTF-8"?>
<svg id="uuid-f98688f8-42ad-427d-90f4-5fd3bb2b7eed" xmlns="http://www.w3.org/2000/svg" width="23.25mm" height="30.78mm" version="1.1" viewBox="0 0 65.91 87.26">
  <!-- Generator: Adobe Illustrator 29.4.0, SVG Export Plug-In . SVG Version: 2.1.0 Build 152)  -->
  <defs>
    <style>
      .st0 {
        fill: #ed1c24;
      }

      .st1 {
        fill: #fff;
        stroke: #000;
        stroke-miterlimit: 10;
        stroke-width: .5px;
      }
    </style>
  </defs>
  <rect class="st1" x="1.13" y="1.09" width="63.65" height="85.07" rx="5.33" ry="5.33"/>
  <path class="st0" d="M32.95,12.14C15.56,12.14,1.47,26.23,1.47,43.62s14.09,31.49,31.48,31.49,31.49-14.1,31.49-31.49-14.1-31.48-31.49-31.48ZM32.95,68.51c-13.75,0-24.89-11.14-24.89-24.89s11.14-24.89,24.89-24.89,24.89,11.14,24.89,24.89-11.14,24.89-24.89,24.89Z"/>
  <g>
    <path d="M27.35,56.5h-4.08v-6.42h-12.79v-2.44l12.79-16.9h4.08v15.63h2.45v3.71h-2.45v6.42ZM15.92,46.38h7.35v-9.67s-7.35,9.67-7.35,9.67Z"/>
    <path d="M53.19,43.62c0,.92.2,13.33-9.15,13.33s-9.15-12.41-9.15-13.33-.2-13.33,9.15-13.33,9.15,12.4,9.15,13.33ZM44.08,52.8c2.78,0,5.03-2.63,5.03-9.18s-2.25-9.18-5.03-9.18-5.03,2.63-5.03,9.18,2.25,9.18,5.03,9.18Z"/>
  </g>
</svg>