<?xml version="1.0" encoding="UTF-8"?>
<svg id="uuid-e7bbf7b2-48dd-4bf7-ba7b-da8fdc801b8a" xmlns="http://www.w3.org/2000/svg" width="22.63mm" height="37.72mm" version="1.1" viewBox="0 0 64.15 106.92">
  <!-- Generator: Adobe Illustrator 29.4.0, SVG Export Plug-In . SVG Version: 2.1.0 Build 152)  -->
  <defs>
    <style>
      .st0 {
        isolation: isolate;
      }

      .st1 {
        fill: #ed1c24;
      }

      .st2 {
        fill: #fff;
      }
    </style>
  </defs>
  <g>
    <path class="st2" d="M6.21.25h51.73c3.29,0,5.96,2.67,5.96,5.96v94.5c0,3.29-2.67,5.96-5.96,5.96H6.21c-3.29,0-5.96-2.67-5.96-5.96V6.21C.25,2.92,2.92.25,6.21.25Z"/>
    <path d="M57.94,106.92H6.21c-3.42,0-6.21-2.79-6.21-6.21V6.21C0,2.79,2.79,0,6.21,0h51.73C61.36,0,64.15,2.79,64.15,6.21v94.5c0,3.42-2.79,6.21-6.21,6.21ZM6.21.5C3.06.5.5,3.06.5,6.21v94.5c0,3.15,2.56,5.71,5.71,5.71h51.73c3.15,0,5.71-2.56,5.71-5.71V6.21c0-3.15-2.56-5.71-5.71-5.71H6.21Z"/>
  </g>
  <path class="st1" d="M32.07,11.3C14.68,11.3.59,25.39.59,42.78s14.09,31.49,31.48,31.49,31.49-14.1,31.49-31.49-14.1-31.48-31.49-31.48ZM32.07,67.67c-13.75,0-24.89-11.14-24.89-24.89s11.14-24.89,24.89-24.89,24.89,11.14,24.89,24.89-11.14,24.89-24.89,24.89Z"/>
  <g>
    <path d="M3.28,92.24c0-3.15,1.7-5.09,4.48-5.09,2.62,0,4.37,2.03,4.37,5.06s-1.69,5.16-4.37,5.16c-3.11,0-4.48-2.65-4.48-5.13ZM5.21,92.24c0,2.11.96,3.36,2.56,3.36,2,0,2.48-1.84,2.48-3.36,0-2.1-.92-3.33-2.48-3.33s-2.56,1.25-2.56,3.33Z"/>
    <path d="M16.36,90.4v6.79h-1.86v-9.88h1.85l4.87,6.52v-6.52h1.82v9.88h-1.63l-5.05-6.79Z"/>
    <path d="M36.1,96.53c-.74.42-1.7.67-2.67.67-1.82,0-3.19-.63-4.38-1.93l1.52-1.12c.78.88,1.63,1.27,2.82,1.27,1.34,0,2.3-.59,2.3-1.3,0-1-1.07-1.07-4.02-1.85-1.48-.39-2.15-1.45-2.15-2.51,0-1.65,1.49-2.78,3.64-2.78,1.56,0,2.86.49,3.94,1.54l-1.41,1.2c-.67-.67-1.52-.98-2.52-.98-1.15,0-1.71.44-1.71,1.01,0,1.1,1.43.85,4.05,1.72,1.85.61,2.07,2.09,2.07,2.72,0,1.02-.48,1.79-1.49,2.35h.01Z"/>
    <path d="M39.65,87.14h1.9v9.88h-1.9v-9.88Z"/>
    <path d="M48.19,97.02h-1.85v-8.14h-3.03v-1.73h7.9v1.73h-3.03v8.14h0Z"/>
    <path d="M52.97,87.14h7.71v1.77h-5.79v1.84h3.15v1.8h-3.15v2.7h5.97v1.77h-7.9v-9.88h.01Z"/>
  </g>
  <g class="st0">
    <g class="st0">
      <path d="M16.73,51.5h12.65v4.16H11.85c.09-2.98.72-5.43,2.17-7.86,4.52-7.55,11.3-6.8,11.3-10.75,0-1.9-2.16-3.43-4.7-3.43s-4.25,1.26-4.7,3.62l-4.07-.9c.9-4.25,4.25-6.87,8.76-6.87,4.88,0,8.76,3.44,8.76,7.68,0,3.08-1.77,5.04-4.06,6.47-3.47,2.16-6.66,3.11-8.58,7.9v-.02Z"/>
      <path d="M52.3,42.78c0,.92.2,13.33-9.15,13.33s-9.15-12.41-9.15-13.33-.2-13.33,9.15-13.33,9.15,12.4,9.15,13.33ZM43.2,51.96c2.78,0,5.03-2.63,5.03-9.18s-2.25-9.18-5.03-9.18-5.03,2.63-5.03,9.18,2.25,9.18,5.03,9.18Z"/>
    </g>
  </g>
</svg>