<?xml version="1.0" encoding="UTF-8"?>
<svg id="uuid-28f06810-f65c-4649-a0be-3f5ed8c3d985" xmlns="http://www.w3.org/2000/svg" width="22.63mm" height="37.72mm" version="1.1" viewBox="0 0 64.15 106.92">
  <!-- Generator: Adobe Illustrator 29.4.0, SVG Export Plug-In . SVG Version: 2.1.0 Build 152)  -->
  <defs>
    <style>
      .st0 {
        isolation: isolate;
      }

      .st1 {
        fill: #fff;
      }
    </style>
  </defs>
  <g>
    <path class="st1" d="M6.21.25h51.73c3.29,0,5.96,2.67,5.96,5.96v94.5c0,3.29-2.67,5.96-5.96,5.96H6.21c-3.29,0-5.96-2.67-5.96-5.96V6.21C.25,2.92,2.92.25,6.21.25Z"/>
    <path d="M57.94,106.92H6.21c-3.42,0-6.21-2.79-6.21-6.21V6.21C0,2.79,2.79,0,6.21,0h51.73C61.36,0,64.15,2.79,64.15,6.21v94.5c0,3.42-2.79,6.21-6.21,6.21ZM6.21.5C3.06.5.5,3.06.5,6.21v94.5c0,3.15,2.56,5.71,5.71,5.71h51.73c3.15,0,5.71-2.56,5.71-5.71V6.21c0-3.15-2.56-5.71-5.71-5.71H6.21Z"/>
  </g>
  <path d="M32.07,11.3C14.68,11.3.59,25.39.59,42.78s14.09,31.49,31.48,31.49,31.49-14.1,31.49-31.49-14.1-31.48-31.49-31.48ZM32.07,67.67c-13.75,0-24.89-11.14-24.89-24.89s11.14-24.89,24.89-24.89,24.89,11.14,24.89,24.89-11.14,24.89-24.89,24.89Z"/>
  <g>
    <path d="M13.41,95.79h-4.54l-1.03,2.46h-2.05l4.4-10.45h1.91l4.36,10.45h-2.02s-1.03-2.46-1.03-2.46ZM9.67,93.92h2.93l-1.47-3.52-1.47,3.52h.01Z"/>
    <path d="M24.59,93.7h-4.71v4.55h-1.88v-10.45h1.88v4.03h4.71v-4.03h1.88v10.45h-1.88v-4.55Z"/>
    <path d="M28.86,87.8h7.65v1.87h-5.74v1.94h3.13v1.91h-3.13v2.86h5.92v1.87h-7.84v-10.45h0Z"/>
    <path d="M45.31,95.79h-4.54l-1.03,2.46h-2.05l4.4-10.45h1.91l4.36,10.45h-2.02s-1.03-2.46-1.03-2.46ZM41.57,93.92h2.93l-1.47-3.52-1.47,3.52h.01Z"/>
    <path d="M49.9,87.8h3.37c3.01,0,5.09,2.19,5.09,5.2s-1.86,5.24-5,5.24h-3.47v-10.45h.01ZM51.8,89.67v6.71h1.45c1.67,0,3.25-1.1,3.25-3.37,0-2.11-1.32-3.33-3.23-3.33h-1.47Z"/>
  </g>
  <g class="st0">
    <g class="st0">
      <path d="M11.84,47.51c0-2.44,1.09-4.43,2.98-5.97-1.27-1.36-1.9-2.89-1.9-4.7,0-3.98,3.53-7.31,7.68-7.31s7.77,3.34,7.77,7.32c0,1.81-.72,3.34-1.99,4.7,1.99,1.54,2.98,3.62,2.98,5.97,0,4.72-4.07,8.67-8.77,8.67s-8.77-3.97-8.77-8.67h.02ZM16,47.6c0,2.44,2.09,4.43,4.61,4.43s4.7-1.99,4.7-4.43c0-2.22-2.16-3.89-4.7-3.89s-4.61,1.74-4.61,3.89ZM16.99,36.76c0,1.54,1.65,2.8,3.62,2.8s3.62-1.27,3.62-2.8c0-1.7-1.59-3.07-3.62-3.07s-3.62,1.34-3.62,3.07Z"/>
      <path d="M52.3,42.86c0,.92.2,13.33-9.15,13.33s-9.15-12.41-9.15-13.33-.2-13.33,9.15-13.33,9.15,12.4,9.15,13.33ZM43.19,52.03c2.78,0,5.03-2.63,5.03-9.18s-2.25-9.18-5.03-9.18-5.03,2.63-5.03,9.18,2.25,9.18,5.03,9.18Z"/>
    </g>
  </g>
</svg>