<?xml version="1.0" encoding="UTF-8"?>
<svg id="base" xmlns="http://www.w3.org/2000/svg" width="793.92" height="595.49" version="1.1" viewBox="0 0 793.92 595.49">
  <!-- Generator: Adobe Illustrator 29.4.0, SVG Export Plug-In . SVG Version: 2.1.0 Build 152)  -->
  <defs>
    <style>
      .st0 {
        stroke: #534b49;
        stroke-miterlimit: 10;
        stroke-width: .22px;
      }

      .st0, .st1 {
        fill: #fff;
      }

      .st2 {
        fill-rule: evenodd;
      }

      .st3 {
        fill: red;
      }
    </style>
  </defs>
  <rect class="st0" x=".11" y=".11" width="793.7" height="595.28" rx="39.71" ry="39.71"/>
  <path class="st2" d="M44.75,21.27h704.41c12.91,0,23.48,10.57,23.48,23.48v505.98c0,12.91-10.57,23.48-23.48,23.48H44.75c-12.91,0-23.48-10.57-23.48-23.48V44.75c0-12.91,10.57-23.48,23.48-23.48M44.75,13.34h704.41c17.28,0,31.42,14.14,31.42,31.42v505.98c0,17.28-14.14,31.42-31.42,31.42H44.75c-17.28,0-31.42-14.14-31.42-31.42V44.75c0-17.28,14.14-31.42,31.42-31.42h0Z"/>
  <path class="st2" d="M47.9,34.34h698.13c7,0,12.73,5.73,12.73,12.73v191.43H35.16V47.07c0-7,5.73-12.73,12.73-12.73"/>
  <path class="st1" d="M396.96,48.6h0c92.6,0,176.47,9.65,237.2,25.24,61.46,15.78,99.48,37.88,99.48,62.58h0c0,24.69-38.02,46.8-99.48,62.58-60.73,15.59-144.6,25.24-237.2,25.24h0c-92.6,0-176.47-9.65-237.2-25.24-61.46-15.78-99.48-37.88-99.48-62.58h0c0-24.69,38.02-46.8,99.48-62.58,60.73-15.59,144.6-25.24,237.2-25.24h0Z"/>
  <path class="st3" d="M396.96,52.33h0c-92.29,0-175.83,9.59-236.28,25.11-59.73,15.33-96.68,36.2-96.68,58.97h0c0,22.77,36.95,43.64,96.68,58.97,60.45,15.52,144,25.12,236.29,25.12h0c92.29,0,175.83-9.59,236.28-25.11,59.73-15.33,96.68-36.2,96.68-58.97h0c0-22.77-36.95-43.64-96.68-58.97-60.45-15.52-144-25.12-236.29-25.12"/>
  <path class="st1" d="M581.81,129.67h9.28c.99,0,2.93-.32,5.82-.96,1.46-.3,2.65-1.04,3.58-2.24.91-1.19,1.38-2.57,1.38-4.13,0-2.3-.73-4.06-2.19-5.29-1.46-1.24-4.19-1.86-8.21-1.86h-9.66v14.47h0ZM559.71,172.02v-71.19h36.67c6.8,0,12,.58,15.58,1.76,3.6,1.16,6.5,3.32,8.7,6.48,2.2,3.15,3.3,6.99,3.3,11.52,0,3.96-.85,7.36-2.52,10.23-1.69,2.87-4.01,5.19-6.95,6.98-1.89,1.13-4.46,2.07-7.72,2.8,2.62.88,4.53,1.76,5.74,2.64.8.58,1.97,1.82,3.51,3.73,1.54,1.92,2.57,3.38,3.08,4.43l10.64,20.64h-24.86l-11.75-21.76c-1.49-2.8-2.82-4.64-3.99-5.49-1.57-1.09-3.38-1.64-5.39-1.64h-1.94v28.89h-22.1v-.02h0ZM487.55,100.83h58.94v15.2h-36.9v11.32h34.23v14.52h-34.23v14.02h37.98v16.13h-60.02v-71.19h0ZM440.54,146.23v-14.8h33.98v30.35c-6.5,4.43-12.25,7.46-17.26,9.05-5.01,1.61-10.94,2.4-17.8,2.4-8.45,0-15.33-1.44-20.65-4.33-5.34-2.87-9.47-7.16-12.38-12.86-2.93-5.7-4.41-12.23-4.41-19.61,0-7.77,1.61-14.54,4.81-20.29,3.22-5.74,7.91-10.09,14.09-13.08,4.82-2.3,11.32-3.45,19.48-3.45s13.74.71,17.65,2.14c3.9,1.43,7.13,3.63,9.71,6.63,2.57,2.98,4.51,6.78,5.8,11.39l-21.22,3.78c-.88-2.69-2.37-4.74-4.46-6.17-2.07-1.43-4.74-2.14-7.97-2.14-4.82,0-8.67,1.67-11.54,5.02-2.87,3.36-4.31,8.65-4.31,15.91,0,7.71,1.46,13.21,4.36,16.51,2.88,3.3,6.93,4.96,12.12,4.96,2.45,0,4.81-.36,7.03-1.08,2.24-.71,4.81-1.92,7.67-3.63v-6.71h-14.7,0ZM322.04,100.83h20.55l26.8,39.38v-39.38h20.74v71.19h-20.74l-26.67-39.09v39.09h-20.69v-71.19h.01ZM283.73,144.87l-7.87-25.59-7.82,25.59h15.7-.01ZM288.34,160.27h-25.06l-3.45,11.75h-22.48l26.75-71.19h23.99l26.77,71.19h-23.02l-3.5-11.75h0ZM193.74,116.96v38.89h5.39c4.61,0,7.87-.5,9.81-1.53,1.94-1.01,3.46-2.8,4.57-5.34,1.09-2.54,1.64-6.66,1.64-12.37,0-7.54-1.23-12.7-3.68-15.48-2.47-2.78-6.55-4.18-12.25-4.18h-5.49,0ZM171.75,100.83h32.69c6.43,0,11.64.88,15.62,2.62,3.96,1.76,7.24,4.26,9.83,7.53,2.59,3.28,4.46,7.08,5.64,11.42,1.16,4.34,1.74,8.93,1.74,13.79,0,7.61-.86,13.51-2.6,17.7-1.72,4.19-4.13,7.71-7.21,10.53-3.07,2.83-6.37,4.72-9.9,5.67-4.82,1.29-9.2,1.94-13.11,1.94h-32.69v-71.19h0Z"/>
</svg>