<?xml version="1.0" encoding="UTF-8"?>
<svg id="Layer_1" xmlns="http://www.w3.org/2000/svg" width="22.41mm" height="22.41mm" version="1.1" viewBox="0 0 63.53 63.53">
  <!-- Generator: Adobe Illustrator 29.4.0, SVG Export Plug-In . SVG Version: 2.1.0 Build 152)  -->
  <defs>
    <style>
      .st0 {
        font-family: FHWASeriesB2025minus10, FHWASeriesB2025;
        font-size: 16.56px;
      }

      .st1 {
        fill: #f58020;
      }
    </style>
  </defs>
  <rect class="st1" x="-.07" width="63.53" height="63.53"/>
  <g>
    <path d="M15.14,22.49c0-3.33-3.67-4.38-3.67-7.52,0-1.82,1.11-3.13,2.7-3.13s2.51,1.03,2.7,3.13h-1.73c-.05-1.03-.31-1.45-.92-1.45-.65,0-1.02.56-1.02,1.45,0,1,.56,1.37,1.36,2.32.59.7,2.31,2.41,2.31,5.2,0,1.3-.83,3.08-2.79,3.08s-2.84-1.21-2.93-3.55h1.73c0,.51.07,1.82,1.2,1.82.65,0,1.06-.51,1.06-1.35Z"/>
    <path d="M22.46,21.79h-2.19l-.75,3.55h-1.73l2.71-13.31h1.73l2.75,13.31h-1.77l-.75-3.55ZM20.64,20.07h1.45l-.7-3.5-.75,3.5Z"/>
    <path d="M28.29,17.17h1.95v1.77h-1.95v6.4h-1.67v-13.31h5.06v1.73h-3.39v3.41Z"/>
    <path d="M33.33,12.04h4.87v1.73h-3.2v3.41h2.14v1.77h-2.14v4.67h3.39v1.73h-5.06v-13.31Z"/>
    <path d="M42.64,25.34h-1.68v-11.58h-1.64v-1.73h5.06v1.73h-1.74v11.58Z"/>
    <path d="M49.52,25.34h-1.73v-6.02l-2.73-7.28h1.82l1.8,4.67,1.75-4.67h1.82l-2.73,7.28v6.02Z"/>
  </g>
  <g>
    <path d="M13.16,48.25c0-3.33-3.67-4.38-3.67-7.52,0-1.82,1.11-3.13,2.7-3.13s2.51,1.03,2.7,3.13h-1.73c-.05-1.03-.31-1.45-.92-1.45-.65,0-1.02.56-1.02,1.45,0,1,.56,1.37,1.36,2.32.59.7,2.31,2.41,2.31,5.2,0,1.3-.83,3.08-2.79,3.08s-2.84-1.21-2.93-3.55h1.73c0,.51.07,1.82,1.2,1.82.65,0,1.06-.51,1.06-1.35Z"/>
    <path d="M19.14,51.1h-1.68v-11.58h-1.64v-1.73h5.06v1.73h-1.74v11.58Z"/>
    <path d="M26.24,47.55h-2.19l-.75,3.55h-1.73l2.71-13.31h1.73l2.75,13.31h-1.77l-.75-3.55ZM24.42,45.82h1.45l-.7-3.5-.75,3.5Z"/>
    <path d="M32.77,51.1h-1.68v-11.58h-1.64v-1.73h5.06v1.73h-1.74v11.58Z"/>
    <path d="M36.15,37.79h1.73v13.31h-1.73v-13.31Z"/>
    <path d="M43.2,51.33c-2.99,0-3.06-3.76-3.06-6.86s.08-6.86,3.06-6.86,3.06,3.75,3.06,6.86-.08,6.86-3.06,6.86ZM41.89,44.47c0,2.33.03,5.14,1.31,5.14s1.31-2.81,1.31-5.14-.03-5.14-1.31-5.14-1.31,2.81-1.31,5.14Z"/>
    <path d="M50.18,43.21v7.89h-1.68v-13.31h1.68l2.37,6.63v-6.63h1.67v13.31h-1.44l-2.6-7.89Z"/>
  </g>
  <text class="st0" transform="translate(85.31 -15.89)"><tspan x="0" y="0">STATION</tspan></text>
</svg>