<?xml version="1.0" encoding="UTF-8"?>
<svg id="uuid-c5f0daff-13fc-4ea7-81d6-1412886e2a63" xmlns="http://www.w3.org/2000/svg" width="129.8" height="87.31" version="1.1" viewBox="0 0 129.8 87.31">
  <!-- Generator: Adobe Illustrator 29.4.0, SVG Export Plug-In . SVG Version: 2.1.0 Build 152)  -->
  <defs>
    <style>
      .st0 {
        fill: #fff;
        stroke: #fff;
        stroke-miterlimit: 10;
        stroke-width: .5px;
      }
    </style>
  </defs>
  <path class="st0" d="M128.37,10.73v65.85c0,5.07-4.13,9.2-9.21,9.2H10.63c-5.08,0-9.21-4.13-9.21-9.2V10.73C1.42,5.65,5.55,1.52,10.63,1.52h108.53c5.08,0,9.21,4.13,9.21,9.21Z"/>
  <path d="M119.17,86.29H10.63c-5.35,0-9.71-4.35-9.71-9.71V10.72C.92,5.37,5.28,1.02,10.63,1.02h108.54c5.35,0,9.71,4.35,9.71,9.71v65.85c0,5.35-4.35,9.71-9.71,9.71h0ZM10.63,1.52C5.55,1.52,1.42,5.65,1.42,10.72v65.85c0,5.08,4.13,9.21,9.21,9.21h108.54c5.08,0,9.21-4.13,9.21-9.21V10.72c0-5.08-4.13-9.21-9.21-9.21H10.63Z"/>
  <path d="M117.86,84.03H11.94c-4.73,0-8.58-3.85-8.58-8.58V11.86C3.36,7.13,7.21,3.28,11.94,3.28h105.91c4.73,0,8.58,3.85,8.58,8.58v63.58c0,4.73-3.85,8.58-8.58,8.58h0ZM11.94,7.28c-2.53,0-4.58,2.05-4.58,4.58v63.58c0,2.53,2.05,4.58,4.58,4.58h105.91c2.53,0,4.58-2.05,4.58-4.58V11.86c0-2.53-2.05-4.58-4.58-4.58,0,0-105.91,0-105.91,0Z"/>
  <g>
    <path d="M17.71,28.7h-5.27l-1.19,2.85h-2.38l5.1-12.11h2.21l5.06,12.11h-2.34l-1.19-2.85ZM13.38,26.54h3.4l-1.7-4.08-1.7,4.08Z"/>
    <path d="M27.99,29.55c1.27,0,2.74-.89,2.74-2.79v-7.32h2.18v7.22c0,2.98-2.05,5.1-4.91,5.1s-4.91-2.12-4.91-5.1v-7.22h2.18v7.31c0,1.82,1.36,2.8,2.73,2.8Z"/>
    <path d="M40.35,31.55h-2.12v-9.99h-3.48v-2.13h9.08v2.13h-3.48v9.99Z"/>
    <path d="M53.32,26.28h-5.46v5.27h-2.18v-12.11h2.18v4.68h5.46v-4.68h2.18v12.11h-2.18v-5.27Z"/>
    <path d="M58,25.48c0-3.87,1.96-6.25,5.15-6.25,3.02,0,5.03,2.49,5.03,6.2s-1.94,6.33-5.03,6.33c-3.58,0-5.15-3.25-5.15-6.29ZM60.21,25.48c0,2.59,1.11,4.12,2.94,4.12,2.3,0,2.85-2.25,2.85-4.12,0-2.57-1.06-4.08-2.85-4.08s-2.94,1.53-2.94,4.08Z"/>
    <path d="M78.28,26.37l2.21,5.18h-2.42l-1.95-4.76h-3.27v4.76h-2.17v-12.11h5.73c2.5,0,3.84,1.98,3.84,3.7,0,1.36-.72,2.55-1.95,3.23ZM72.84,21.61v3.02h3.49c1.06,0,1.74-.61,1.74-1.49,0-.94-.68-1.53-1.74-1.53h-3.49Z"/>
    <path d="M82.67,19.44h2.18v12.11h-2.18v-12.11Z"/>
    <path d="M95.13,30.95c-.85.52-1.96.82-3.07.82-2.09,0-3.67-.78-5.04-2.37l1.75-1.38c.9,1.08,1.88,1.55,3.24,1.55,1.54,0,2.65-.72,2.65-1.59,0-1.23-1.23-1.31-4.62-2.27-1.7-.48-2.47-1.78-2.47-3.08,0-2.03,1.71-3.4,4.18-3.4,1.79,0,3.29.6,4.53,1.89l-1.62,1.47c-.77-.82-1.75-1.21-2.9-1.21-1.33,0-1.96.54-1.96,1.24,0,1.34,1.65,1.05,4.66,2.11,2.13.75,2.38,2.57,2.38,3.34,0,1.25-.56,2.2-1.71,2.89Z"/>
    <path d="M99.01,19.44h8.87v2.17h-6.65v2.25h3.62v2.21h-3.62v3.31h6.87v2.17h-9.08v-12.11Z"/>
    <path d="M110.27,19.44h3.91c3.49,0,5.91,2.54,5.91,6.04s-2.16,6.08-5.8,6.08h-4.02v-12.11ZM112.48,21.61v7.78h1.68c1.94,0,3.77-1.28,3.77-3.91,0-2.44-1.53-3.87-3.75-3.87h-1.7Z"/>
    <path d="M26.42,49.71l-4.4-12.11h2.3l3.27,8.84,3.27-8.84h2.31l-4.44,12.11h-2.31Z"/>
    <path d="M35.01,37.6h8.87v2.17h-6.65v2.25h3.62v2.21h-3.62v3.31h6.87v2.17h-9.08v-12.11Z"/>
    <path d="M53.91,44.44h-5.46v5.27h-2.18v-12.11h2.18v4.68h5.46v-4.68h2.18v12.11h-2.18v-5.27Z"/>
    <path d="M58.92,37.6h2.18v12.11h-2.18v-12.11Z"/>
    <path d="M65.81,43.59c0,2.64,1.1,4.16,2.93,4.16,1.11,0,1.7-.38,2.76-1.53l1.91,1.02c-.89,1.7-2.72,2.68-4.68,2.68-3.19,0-5.14-2.53-5.14-6.29s1.96-6.24,5.14-6.24c1.95,0,3.74.97,4.68,2.67l-1.91,1.02c-.42-.73-1.48-1.53-2.76-1.53-2.21,0-2.93,2.17-2.93,4.04Z"/>
    <path d="M75.92,37.6h2.18v10.24h6.91v1.87h-9.08v-12.11Z"/>
    <path d="M86.85,37.6h8.87v2.17h-6.65v2.25h3.62v2.21h-3.62v3.31h6.87v2.17h-9.08v-12.11Z"/>
    <path d="M105.56,49.11c-.85.52-1.96.82-3.07.82-2.09,0-3.67-.78-5.04-2.37l1.75-1.38c.9,1.08,1.88,1.55,3.24,1.55,1.54,0,2.65-.72,2.65-1.59,0-1.23-1.23-1.31-4.62-2.27-1.7-.48-2.47-1.78-2.47-3.08,0-2.03,1.71-3.4,4.18-3.4,1.79,0,3.29.6,4.53,1.89l-1.62,1.47c-.77-.82-1.75-1.21-2.9-1.21-1.33,0-1.96.54-1.96,1.24,0,1.34,1.65,1.05,4.66,2.11,2.13.75,2.38,2.57,2.38,3.34,0,1.25-.56,2.2-1.71,2.89Z"/>
    <path d="M27.25,65.02h-5.27l-1.19,2.85h-2.38l5.1-12.11h2.21l5.06,12.11h-2.34l-1.19-2.85ZM22.92,62.85h3.4l-1.7-4.08-1.7,4.08Z"/>
    <path d="M34.51,61.75c0,2.64,1.1,4.16,2.93,4.16,1.11,0,1.7-.38,2.76-1.53l1.91,1.02c-.89,1.7-2.72,2.68-4.68,2.68-3.19,0-5.14-2.53-5.14-6.29s1.96-6.24,5.14-6.24c1.95,0,3.74.97,4.68,2.67l-1.91,1.02c-.42-.73-1.48-1.53-2.76-1.53-2.21,0-2.93,2.17-2.93,4.04Z"/>
    <path d="M46.5,61.75c0,2.64,1.1,4.16,2.93,4.16,1.11,0,1.7-.38,2.76-1.53l1.91,1.02c-.89,1.7-2.72,2.68-4.68,2.68-3.19,0-5.14-2.53-5.14-6.29s1.96-6.24,5.14-6.24c1.95,0,3.74.97,4.68,2.67l-1.91,1.02c-.42-.73-1.48-1.53-2.76-1.53-2.21,0-2.93,2.17-2.93,4.04Z"/>
    <path d="M56.6,55.75h8.87v2.17h-6.65v2.25h3.62v2.21h-3.62v3.31h6.87v2.17h-9.08v-12.11Z"/>
    <path d="M70.07,63.11v4.76h-2.21v-12.11h5.93c2.55,0,3.89,1.94,3.89,3.68,0,1.61-1.2,3.68-3.8,3.68h-3.81ZM70.07,57.92v3.02h3.66c1.06,0,1.78-.6,1.78-1.49,0-.94-.71-1.53-1.79-1.53h-3.66Z"/>
    <path d="M84.15,67.87h-2.12v-9.99h-3.48v-2.13h9.08v2.13h-3.48v9.99Z"/>
    <path d="M89.48,55.75h8.87v2.17h-6.65v2.25h3.62v2.21h-3.62v3.31h6.87v2.17h-9.08v-12.11Z"/>
    <path d="M100.73,55.75h3.91c3.49,0,5.91,2.54,5.91,6.04s-2.16,6.08-5.8,6.08h-4.02v-12.11ZM102.94,57.92v7.78h1.68c1.94,0,3.77-1.28,3.77-3.91,0-2.44-1.53-3.87-3.75-3.87h-1.7Z"/>
  </g>
</svg>