<?xml version="1.0" encoding="UTF-8"?>
<svg id="uuid-5999d81d-9cbf-4a9d-b8e3-47d9c1a7d8b8" xmlns="http://www.w3.org/2000/svg" width="93.28" height="24.92" version="1.1" viewBox="0 0 93.28 24.92">
  <!-- Generator: Adobe Illustrator 29.4.0, SVG Export Plug-In . SVG Version: 2.1.0 Build 152)  -->
  <defs>
    <style>
      .st0 {
        fill: #fff;
      }
    </style>
  </defs>
  <path class="st0" d="M91.99,3.86v17.2c0,1.36-1.1,2.47-2.47,2.47H3.74c-1.36,0-2.46-1.11-2.46-2.47V3.86c0-1.37,1.1-2.47,2.46-2.47h85.78c1.37,0,2.47,1.1,2.47,2.47Z"/>
  <path d="M88.32,2.81H4.96c-1.4,0-2.54,1.13-2.54,2.53v14.73c0,1.4,1.14,2.54,2.54,2.54h83.36c1.4,0,2.54-1.14,2.54-2.54V5.34c0-1.4-1.14-2.53-2.54-2.53ZM88.86,20.07c0,.3-.24.54-.54.54H4.96c-.3,0-.54-.24-.54-.54V5.34c0-.29.24-.53.54-.53h83.36c.3,0,.54.24.54.53v14.73Z"/>
  <path d="M88.86,5.34v14.73c0,.3-.24.54-.54.54H4.96c-.3,0-.54-.24-.54-.54V5.34c0-.29.24-.53.54-.53h83.36c.3,0,.54.24.54.53Z"/>
  <path d="M89.52.89H3.74C2.11.89.78,2.22.78,3.86v17.2c0,1.64,1.33,2.97,2.96,2.97h85.78c1.64,0,2.97-1.33,2.97-2.97V3.86c0-1.64-1.33-2.97-2.97-2.97ZM91.99,21.06c0,1.36-1.1,2.47-2.47,2.47H3.74c-1.36,0-2.46-1.11-2.46-2.47V3.86c0-1.37,1.1-2.47,2.46-2.47h85.78c1.37,0,2.47,1.1,2.47,2.47v17.2Z"/>
  <g>
    <path class="st0" d="M5.49,12.44c0-1.12.22-4.09,2.92-4.09,1.15,0,1.93.47,2.48,1.61l-1.17.5c-.41-.58-.61-.83-1.31-.83-1.66,0-1.64,2.31-1.64,2.81s-.03,2.84,1.7,2.84c.61,0,.95-.37,1.23-.92l1.2.45c-.45,1.1-1.2,1.75-2.4,1.75-2.86,0-3.01-3.15-3.01-4.12Z"/>
    <path class="st0" d="M16.26,14.2h-2.49l-.78,2.23h-1.34l2.74-7.93h1.26l2.74,7.93h-1.34l-.78-2.23ZM14.21,12.92h1.6l-.78-2.23-.81,2.23Z"/>
    <path class="st0" d="M19.24,8.49h1.25v6.77h3.67v1.17h-4.92v-7.93Z"/>
    <path class="st0" d="M25.01,8.49h1.25v6.77h3.67v1.17h-4.92v-7.93Z"/>
    <path class="st0" d="M36.34,13.58v-5.1h1.25v5.1c0,1.03.59,1.7,1.45,1.7s1.45-.67,1.45-1.7v-5.1h1.25v5.1c0,2.51-1.92,2.98-2.7,2.98-.71,0-2.7-.42-2.7-2.98Z"/>
    <path class="st0" d="M47.25,12.97h-2.9v3.45h-1.25v-7.93h1.25v3.2h2.9v-3.2h1.25v7.93h-1.25v-3.45Z"/>
    <path class="st0" d="M51.1,11.69h2.31v1.28h-2.31v3.45h-1.25v-7.93h4.92v1.25h-3.67v1.95Z"/>
  </g>
  <rect class="st0" x="57.03" y="3.79" width="32.57" height="17.83" rx="1.34" ry="1.34"/>
</svg>