<?xml version="1.0" encoding="UTF-8"?>
<svg id="uuid-5999d81d-9cbf-4a9d-b8e3-47d9c1a7d8b8" xmlns="http://www.w3.org/2000/svg" width="49.32" height="66.16" version="1.1" viewBox="0 0 49.32 66.16">
  <!-- Generator: Adobe Illustrator 29.4.0, SVG Export Plug-In . SVG Version: 2.1.0 Build 152)  -->
  <defs>
    <style>
      .st0 {
        stroke: #fff;
        stroke-miterlimit: 10;
        stroke-width: .5px;
      }

      .st0, .st1 {
        fill: #fff;
      }
    </style>
  </defs>
  <rect class="st1" x="1.04" y="1.42" width="47.25" height="63.32" rx="4.1" ry="4.1"/>
  <path class="st0" d="M48.28,5.52v55.12c0,2.26-1.84,4.09-4.1,4.09H5.14c-2.26,0-4.1-1.83-4.1-4.09V5.52C1.04,3.26,2.88,1.42,5.14,1.42h39.04c2.26,0,4.1,1.84,4.1,4.1Z"/>
  <path d="M43.37,2.17H5.96C3.73,2.17,1.92,3.98,1.92,6.21v53.74c0,2.23,1.81,4.04,4.04,4.04h37.41c2.23,0,4.04-1.81,4.04-4.04V6.21c0-2.23-1.81-4.04-4.04-4.04ZM45.41,59.95c0,1.13-.92,2.04-2.04,2.04H5.96c-1.13,0-2.04-.92-2.04-2.04V6.21c0-1.13.92-2.04,2.04-2.04h37.41c1.13,0,2.04.92,2.04,2.04v53.74Z"/>
  <path d="M45.41,6.21v53.74c0,1.13-.92,2.04-2.04,2.04H5.96c-1.13,0-2.04-.92-2.04-2.04V6.21c0-1.13.92-2.04,2.04-2.04h37.41c1.13,0,2.04.92,2.04,2.04Z"/>
  <path d="M44.19.92H5.14C2.6.92.54,2.99.54,5.52v55.12c0,2.54,2.06,4.6,4.6,4.6h39.05c2.54,0,4.6-2.06,4.6-4.6V5.52c0-2.54-2.06-4.6-4.6-4.6ZM48.29,60.64c0,2.26-1.84,4.1-4.1,4.1H5.14c-2.26,0-4.1-1.84-4.1-4.1V5.52C1.04,3.26,2.88,1.42,5.14,1.42h39.05c2.26,0,4.1,1.84,4.1,4.1v55.12Z"/>
  <g>
    <path class="st1" d="M9.49,10.65c0-1.36.27-4.97,3.55-4.97,1.4,0,2.35.57,3.01,1.96l-1.42.61c-.49-.71-.74-1.02-1.59-1.02-2.02,0-2,2.81-2,3.42s-.04,3.45,2.06,3.45c.74,0,1.16-.44,1.49-1.12l1.46.54c-.54,1.34-1.45,2.13-2.91,2.13-3.47,0-3.65-3.83-3.65-5.01Z"/>
    <path class="st1" d="M22.76,12.78h-3.03l-.95,2.71h-1.63l3.33-9.64h1.53l3.33,9.64h-1.63l-.95-2.71ZM20.27,11.22h1.94l-.95-2.71-.99,2.71Z"/>
    <path class="st1" d="M26.61,5.84h1.52v8.22h4.46v1.42h-5.98V5.84Z"/>
    <path class="st1" d="M33.86,5.84h1.52v8.22h4.46v1.42h-5.98V5.84Z"/>
    <path class="st1" d="M13.15,26.43v-6.19h1.52v6.19c0,1.25.71,2.06,1.76,2.06s1.76-.81,1.76-2.06v-6.19h1.52v6.19c0,3.05-2.34,3.62-3.28,3.62-.86,0-3.28-.5-3.28-3.62Z"/>
    <path class="st1" d="M26.8,25.69h-3.52v4.2h-1.52v-9.64h1.52v3.89h3.52v-3.89h1.52v9.64h-1.52v-4.2Z"/>
    <path class="st1" d="M31.89,24.13h2.81v1.56h-2.81v4.2h-1.52v-9.64h5.98v1.52h-4.46v2.37Z"/>
  </g>
  <rect class="st1" x="4.43" y="34.73" width="40.47" height="26.06" rx="2.4" ry="2.4"/>
</svg>