<?xml version="1.0" encoding="UTF-8"?>
<svg id="Layer_1" xmlns="http://www.w3.org/2000/svg" width="127.58" height="31.78" version="1.1" viewBox="0 0 127.58 31.78">
  <!-- Generator: Adobe Illustrator 29.4.0, SVG Export Plug-In . SVG Version: 2.1.0 Build 152)  -->
  <defs>
    <style>
      .st0 {
        fill: #ffe40d;
      }
    </style>
  </defs>
  <path d="M0,0v31.78h127.58V0H0ZM125.08,29.28H2.5V2.5h122.58v26.78Z"/>
  <rect class="st0" x="2.5" y="2.5" width="122.58" height="26.78"/>
  <g>
    <path d="M20.96,8.32h4.89c4.36,0,7.38,3.17,7.38,7.54s-2.7,7.59-7.25,7.59h-5.02v-15.14ZM23.72,11.03v9.72h2.1c2.43,0,4.71-1.6,4.71-4.88,0-3.05-1.91-4.83-4.68-4.83h-2.12Z"/>
    <path d="M36.4,8.32h11.09v2.71h-8.31v2.81h4.53v2.76h-4.53v4.14h8.58v2.71h-11.35v-15.14Z"/>
    <path d="M56.3,23.46h-2.65v-12.48h-4.35v-2.66h11.35v2.66h-4.35v12.48Z"/>
    <path d="M62.59,15.86c0-4.83,2.45-7.81,6.44-7.81,3.77,0,6.28,3.11,6.28,7.75s-2.43,7.91-6.28,7.91c-4.47,0-6.44-4.06-6.44-7.86ZM65.36,15.86c0,3.24,1.38,5.15,3.67,5.15,2.87,0,3.57-2.82,3.57-5.15,0-3.21-1.32-5.1-3.57-5.1s-3.67,1.91-3.67,5.1Z"/>
    <path d="M84.62,20.95c1.59,0,3.42-1.12,3.42-3.48v-9.15h2.72v9.03c0,3.72-2.56,6.37-6.13,6.37s-6.13-2.65-6.13-6.37v-9.03h2.72v9.14c0,2.28,1.7,3.5,3.41,3.5Z"/>
    <path d="M103.86,16.98l2.76,6.48h-3.03l-2.44-5.95h-4.09v5.95h-2.71v-15.14h7.16c3.13,0,4.79,2.47,4.79,4.62,0,1.7-.9,3.19-2.44,4.04ZM97.06,11.03v3.77h4.36c1.33,0,2.18-.76,2.18-1.86,0-1.17-.85-1.91-2.18-1.91h-4.36Z"/>
  </g>
</svg>