<?xml version="1.0" encoding="UTF-8"?>
<svg id="Layer_1" xmlns="http://www.w3.org/2000/svg" width="63.82" height="63.83" version="1.1" viewBox="0 0 63.82 63.83">
  <!-- Generator: Adobe Illustrator 29.4.0, SVG Export Plug-In . SVG Version: 2.1.0 Build 152)  -->
  <defs>
    <style>
      .st0 {
        fill: #ffe40d;
      }
    </style>
  </defs>
  <path d="M0,0v63.83h63.82V0H0ZM61.32,61.33H2.5V2.5h58.82v58.83Z"/>
  <rect class="st0" x="2.5" y="2.5" width="58.82" height="58.83"/>
  <g>
    <path d="M5.78,37.35v-10.86h3.92c2.74,0,3.48,3.61,3.48,5.19,0,4.08-2.1,5.68-3.47,5.68h-3.93ZM9.43,28.2h-1.95v7.39h1.82c1.58,0,2.1-1.91,2.1-3.96,0-.97-.28-3.43-1.98-3.43Z"/>
    <path d="M15.36,26.48h6.4v1.71h-4.68v2.67h3.16v1.75h-3.16v2.97h5.03v1.75h-6.74v-10.86Z"/>
    <path d="M27.13,37.35h-1.72v-9.34h-2.49v-1.52h6.74v1.52h-2.53v9.34Z"/>
    <path d="M38.68,31.91c0,.39.08,5.62-3.86,5.62s-3.86-5.23-3.86-5.62-.08-5.62,3.86-5.62,3.86,5.23,3.86,5.62ZM34.84,35.79c1.17,0,2.12-1.11,2.12-3.87s-.95-3.87-2.12-3.87-2.12,1.11-2.12,3.87.95,3.87,2.12,3.87Z"/>
    <path d="M40.87,33.46v-6.98h1.71v6.98c0,1.41.8,2.32,1.98,2.32s1.98-.91,1.98-2.32v-6.98h1.72v6.98c0,3.44-2.64,4.08-3.7,4.08-.97,0-3.7-.57-3.7-4.08Z"/>
    <path d="M52.36,32.62v4.73h-1.71v-10.86h3.93c2.49,0,3.24,1.99,3.24,3.05,0,.4-.15,1.99-1.69,2.72l1.92,5.09h-1.87l-1.75-4.73h-2.06ZM54.52,30.87c1.36,0,1.58-.98,1.58-1.33,0-.47-.35-1.33-1.5-1.33h-2.24v2.67h2.16Z"/>
  </g>
</svg>