<?xml version="1.0" encoding="UTF-8"?>
<svg id="Layer_1" xmlns="http://www.w3.org/2000/svg" width="127.74" height="63.59" version="1.1" viewBox="0 0 127.74 63.59">
  <!-- Generator: Adobe Illustrator 29.4.0, SVG Export Plug-In . SVG Version: 2.1.0 Build 152)  -->
  <defs>
    <style>
      .st0 {
        fill: #f58020;
      }
    </style>
  </defs>
  <path d="M0,0v63.59h127.74V0H0ZM125.24,61.09H2.5V2.5h122.74v58.59Z"/>
  <rect class="st0" x="2.5" y="2.5" width="122.74" height="58.59"/>
  <g>
    <path d="M61.16,46.4c.71-.6,1.4-1.27,2.07-1.95l-1.7-1.51.52-.81-8.17-5.66,1.4,6.47-1.5,9.68h-2.25l.25-8.31-1.68-4.37-1.56,4.12-6.56,8.56-2.25-1.12,5.56-8.56.31-8.5,1.87-2.99-2.87-2.63.26-.02,2.8,1.65-.37-6.75,7.62-6.31,2.79.06c.51.72,1.32,1.22,2.24,1.34.12,1.2.71,2.23,1.57,2.87l-1.42,12.66-1.19,3.12-1.18-.93-.07-8.25-4.55,5.81,10.01,6.94.85-.76,1.89,1.46.05.04,3.81-3.37c.73-.46,2.28-1.01,4.18-.81,2.19.22,4.49,1.51,5.69,3.43.54.87.35,1.06,1,1.94.82,1.13,1.58,1.43,3.24,2.68,1.38,1.05,2.07,1.57,2.63,2.25.66.82,1.46,2.26,1.56,4.75h-30.79c.38-.7,1.11-3.84,3.94-6.22Z"/>
    <circle cx="61.99" cy="14.84" r="3.86"/>
  </g>
</svg>