<?xml version="1.0" encoding="UTF-8"?>
<svg id="Layer_1" xmlns="http://www.w3.org/2000/svg" width="63.64" height="63.63" version="1.1" viewBox="0 0 63.64 63.63">
  <!-- Generator: Adobe Illustrator 29.4.0, SVG Export Plug-In . SVG Version: 2.1.0 Build 152)  -->
  <defs>
    <style>
      .st0 {
        fill: #ffe40d;
      }
    </style>
  </defs>
  <path d="M0,0v63.63h63.64V0H0ZM61.64,61.64H2V2h59.64v59.63h0Z"/>
  <rect class="st0" x="2" y="2" width="59.64" height="59.63"/>
  <g>
    <path d="M6.84,13.15h1.7v1.54h-1.7v5.58h-1.46v-11.6h4.41v1.51h-2.95v2.97Z"/>
    <path d="M14.26,20.47c-2.6,0-2.67-3.27-2.67-5.98s.07-5.98,2.67-5.98,2.67,3.27,2.67,5.98-.07,5.98-2.67,5.98ZM13.12,14.49c0,2.03.03,4.48,1.14,4.48s1.14-2.45,1.14-4.48-.03-4.48-1.14-4.48-1.14,2.45-1.14,4.48Z"/>
    <path d="M22.2,20.47c-2.6,0-2.67-3.27-2.67-5.98s.07-5.98,2.67-5.98,2.67,3.27,2.67,5.98-.07,5.98-2.67,5.98ZM21.07,14.49c0,2.03.03,4.48,1.14,4.48s1.14-2.45,1.14-4.48-.03-4.48-1.14-4.48-1.14,2.45-1.14,4.48Z"/>
    <path d="M29.57,20.27h-1.46v-10.09h-1.43v-1.51h4.41v1.51h-1.51v10.09h0Z"/>
    <path d="M35.62,15.22h-.79v5.05h-1.46v-11.6h2.35c2.47,0,2.64,2.75,2.64,3.38,0,1.91-1.1,3.17-2.73,3.17h0ZM34.83,10.18v3.54h.79c.9,0,1.22-.46,1.22-1.67,0-1.3-.41-1.87-1.22-1.87h-.79Z"/>
    <path d="M43.41,17.18h-1.91l-.65,3.09h-1.5l2.36-11.6h1.5l2.4,11.6h-1.54l-.65-3.09h0ZM41.82,15.67h1.26l-.61-3.05s-.65,3.05-.65,3.05Z"/>
    <path d="M49.49,20.27h-1.46v-10.09h-1.43v-1.51h4.41v1.51h-1.51v10.09h-.01Z"/>
    <path d="M56.8,14.86h-2.07v5.41h-1.46v-11.6h1.46v4.68h2.07v-4.68h1.46v11.6h-1.46s0-5.41,0-5.41Z"/>
    <path d="M13.85,25.93c1.31,0,2.17.81,2.29,2.24h-1.51c-.04-.49-.33-.73-.74-.73-.73,0-1.23.62-1.23,4.48s.5,4.48,1.23,4.48c.62,0,.74-.71.74-1.42h1.51c0,.76.11,2.93-2.29,2.93-2.09,0-2.7-1.6-2.7-5.98,0-5.14,1.11-5.98,2.7-5.98v-.02Z"/>
    <path d="M19.24,26.09h1.46v10.25h2.95v1.34h-4.41v-11.6h0Z"/>
    <path d="M28.11,37.9c-2.6,0-2.67-3.27-2.67-5.98s.07-5.98,2.67-5.98,2.67,3.27,2.67,5.98-.07,5.98-2.67,5.98ZM26.96,31.91c0,2.03.03,4.48,1.14,4.48s1.14-2.45,1.14-4.48-.03-4.48-1.14-4.48-1.14,2.45-1.14,4.48Z"/>
    <path d="M36.37,35.22c0-2.91-3.2-3.82-3.2-6.55,0-1.59.97-2.73,2.35-2.73s2.19.89,2.35,2.73h-1.51c-.04-.9-.27-1.26-.8-1.26-.57,0-.89.49-.89,1.26,0,.87.49,1.19,1.19,2.02.51.61,2.01,2.1,2.01,4.53,0,1.13-.73,2.68-2.43,2.68s-2.47-1.06-2.56-3.09h1.51c0,.44.06,1.59,1.05,1.59.57,0,.93-.45.93-1.18Z"/>
    <path d="M40.49,26.09h4.25v1.51h-2.79v2.97h1.86v1.54h-1.86v4.07h2.95v1.51h-4.41s0-11.6,0-11.6Z"/>
    <path d="M47.51,37.69v-11.6h2.39c.97,0,2.6.05,2.6,5.78s-1.62,5.82-2.6,5.82h-2.39ZM48.98,27.6v8.58h.93c1.13,0,1.08-1.74,1.08-4.31,0-3.84-.36-4.28-1.08-4.28h-.93Z"/>
    <path d="M17.29,52.02h-1.91l-.65,3.09h-1.5l2.36-11.6h1.5l2.4,11.6h-1.54l-.65-3.09h-.01ZM15.7,50.51h1.26l-.61-3.05-.65,3.05Z"/>
    <path d="M25.3,49.7h-2.07v5.41h-1.46v-11.6h1.46v4.68h2.07v-4.68h1.46v11.6h-1.46s0-5.41,0-5.41Z"/>
    <path d="M30.36,43.51h4.25v1.51h-2.79v2.97h1.86v1.54h-1.86v4.07h2.95v1.51h-4.41s0-11.6,0-11.6Z"/>
    <path d="M40.14,52.02h-1.91l-.65,3.09h-1.5l2.36-11.6h1.5l2.4,11.6h-1.54l-.65-3.09h0ZM38.55,50.51h1.26l-.61-3.05s-.65,3.05-.65,3.05Z"/>
    <path d="M44.62,55.11v-11.6h2.39c.97,0,2.6.05,2.6,5.78s-1.62,5.82-2.6,5.82c0,0-2.39,0-2.39,0ZM46.08,45.02v8.58h.93c1.13,0,1.08-1.74,1.08-4.31,0-3.84-.36-4.28-1.08-4.28h-.93Z"/>
  </g>
</svg>