<?xml version="1.0" encoding="UTF-8"?>
<svg id="Layer_1" xmlns="http://www.w3.org/2000/svg" width="63.82" height="63.83" version="1.1" viewBox="0 0 63.82 63.83">
  <!-- Generator: Adobe Illustrator 29.4.0, SVG Export Plug-In . SVG Version: 2.1.0 Build 152)  -->
  <defs>
    <style>
      .st0 {
        fill: #ffe40d;
      }
    </style>
  </defs>
  <path d="M0,0v63.83h63.82V0H0ZM61.32,61.33H2.5V2.5h58.82v58.83Z"/>
  <rect class="st0" x="2.5" y="2.5" width="58.82" height="58.83"/>
  <g>
    <circle cx="18.34" cy="37.97" r="4.5"/>
    <circle cx="45.65" cy="37.97" r="4.5"/>
    <path d="M55.05,28.34h-.58l-1.63-5.13c-.45-1.09-.81-1.8-2.07-1.85h-8.68c-.76,0-1.58,1.08-1.7,1.85-.38,2.6-.25,5.69,0,8.9h-2.43v-8.9H7.71v13.98h5.19c.37-2.67,2.66-4.72,5.44-4.72s5.06,2.05,5.43,4.72h16.45c.37-2.67,2.66-4.72,5.43-4.72,3.03,0,5.49,2.46,5.49,5.49v.91h3.84c.62,0,1.13-.51,1.13-1.13v-8.34c0-.58-.47-1.06-1.06-1.06ZM44.87,28.34v-4.77h5.9l1.78,4.77h-7.68Z"/>
  </g>
</svg>