<?xml version="1.0" encoding="UTF-8"?>
<svg id="uuid-5999d81d-9cbf-4a9d-b8e3-47d9c1a7d8b8" xmlns="http://www.w3.org/2000/svg" width="49.32" height="66.16" version="1.1" viewBox="0 0 49.32 66.16">
  <!-- Generator: Adobe Illustrator 29.4.0, SVG Export Plug-In . SVG Version: 2.1.0 Build 152)  -->
  <defs>
    <style>
      .st0 {
        fill: #fff;
        stroke: #fff;
        stroke-miterlimit: 10;
        stroke-width: .5px;
      }
    </style>
  </defs>
  <path class="st0" d="M48.28,5.52v55.12c0,2.26-1.84,4.09-4.1,4.09H5.14c-2.26,0-4.1-1.83-4.1-4.09V5.52C1.04,3.26,2.88,1.42,5.14,1.42h39.04c2.26,0,4.1,1.84,4.1,4.1Z"/>
  <path d="M43.37,63.99H5.96c-2.23,0-4.04-1.81-4.04-4.04V6.21c0-2.23,1.81-4.04,4.04-4.04h37.41c2.23,0,4.04,1.81,4.04,4.04v53.74c0,2.23-1.81,4.04-4.04,4.04ZM5.96,4.17c-1.12,0-2.04.91-2.04,2.04v53.74c0,1.12.91,2.04,2.04,2.04h37.41c1.12,0,2.04-.91,2.04-2.04V6.21c0-1.12-.91-2.04-2.04-2.04H5.96Z"/>
  <path d="M44.19,65.24H5.14c-2.54,0-4.6-2.06-4.6-4.6V5.52C.54,2.99,2.6.92,5.14.92h39.05c2.54,0,4.6,2.06,4.6,4.6v55.12c0,2.54-2.06,4.6-4.6,4.6ZM5.14,1.42C2.88,1.42,1.04,3.26,1.04,5.52v55.12c0,2.26,1.84,4.1,4.1,4.1h39.05c2.26,0,4.1-1.84,4.1-4.1V5.52c0-2.26-1.84-4.1-4.1-4.1,0,0-39.05,0-39.05,0Z"/>
  <g>
    <path d="M7.66,20.26h1.01v5.48h2.97v.95h-3.99v-6.43Z"/>
    <path d="M12.49,20.26h1.03v6.43h-1.03v-6.43Z"/>
    <path d="M17.12,20.15c1.03,0,1.61.39,2.05,1.42l-.97.38c-.27-.56-.54-.77-1.04-.77-1.41,0-1.33,2.15-1.33,2.3,0,.24-.05,2.28,1.2,2.28.65,0,1.13-.41,1.13-.99v-.27h-1.17v-1.02h2.19v1.29c0,1.17-.86,2.03-2.03,2.03-.23,0-2.35.19-2.35-3.33,0-.49.03-3.33,2.33-3.33Z"/>
    <path d="M23.77,23.89h-2.35v2.8h-1.01v-6.43h1.01v2.59h2.35v-2.59h1.02v6.43h-1.02v-2.8Z"/>
    <path d="M28.12,26.69h-1.02v-5.53h-1.47v-.9h3.99v.9h-1.5v5.53Z"/>
    <path d="M37.52,21.61c0-.84.65-1.44,1.62-1.44.9,0,1.53.61,1.53,1.47,0,.68-.32,1.13-1.06,1.62l.92,1.15c.09-.27.16-.54.18-.83h.97c-.07.7-.18,1.11-.5,1.6l1.29,1.51h-1.38l-.54-.68c-.56.59-1.06.81-1.78.81-1.2,0-2.03-.77-2.03-1.87,0-.77.55-1.51,1.35-1.94-.45-.61-.59-.93-.59-1.4ZM37.84,24.93c0,.52.45.95.99.95.43,0,.74-.16,1.13-.63l-1.2-1.47c-.65.36-.92.7-.92,1.15ZM39.71,21.66c0-.38-.25-.63-.59-.63s-.61.25-.61.56c0,.16.03.3.16.47l.36.5c.5-.32.68-.57.68-.9Z"/>
    <path d="M14.99,33.5h-2.35v2.8h-1.01v-6.43h1.01v2.59h2.35v-2.59h1.02v6.43h-1.01v-2.8Z"/>
    <path d="M17.37,29.86h3.79v1.02h-2.77v1.58h1.87v1.04h-1.87v1.76h2.97v1.04h-3.99v-6.43Z"/>
    <path d="M25.54,34.49h-2.02l-.64,1.81h-1.09l2.22-6.43h1.02l2.22,6.43h-1.09l-.64-1.81ZM23.89,33.45h1.29l-.64-1.8-.66,1.8Z"/>
    <path d="M29.63,36.3l-2.04-6.43h1.06l1.38,4.29,1.36-4.29h1.09l-2.06,6.43h-.79Z"/>
    <path d="M36.09,36.3h-1.02v-2.8l-2.27-3.63h1.22l1.54,2.48,1.56-2.48h1.2l-2.24,3.63v2.8Z"/>
    <path d="M7.65,45.9l-2.04-6.43h1.06l1.38,4.29,1.36-4.29h1.09l-2.06,6.43h-.79Z"/>
    <path d="M11.34,39.47h3.79v1.02h-2.77v1.58h1.87v1.04h-1.87v1.76h2.97v1.04h-3.99v-6.43Z"/>
    <path d="M19.66,43.1h-2.35v2.8h-1.01v-6.43h1.01v2.6h2.35v-2.6h1.02v6.43h-1.02v-2.8Z"/>
    <path d="M22.04,39.47h1.03v6.43h-1.03v-6.43Z"/>
    <path d="M24.33,42.67c0-.9.18-3.32,2.37-3.32.93,0,1.57.38,2.01,1.31l-.95.41c-.33-.47-.49-.68-1.06-.68-1.35,0-1.33,1.88-1.33,2.28s-.02,2.3,1.38,2.3c.49,0,.77-.3.99-.75l.97.36c-.36.89-.97,1.42-1.94,1.42-2.31,0-2.44-2.56-2.44-3.34Z"/>
    <path d="M29.95,39.47h1.01v5.48h2.97v.95h-3.99v-6.43Z"/>
    <path d="M34.79,39.47h3.79v1.02h-2.77v1.58h1.87v1.04h-1.87v1.76h2.97v1.04h-3.99v-6.43Z"/>
    <path d="M39.34,44.39l.97-.36c.27.61.77.95,1.38.95s.99-.41.99-.95c0-.86-.99-.99-1.83-1.33-.38-.16-1.24-.54-1.24-1.6,0-1.26.86-1.73,2.01-1.73.9,0,1.51.52,1.83,1.31l-.9.27c-.15-.29-.46-.56-1-.56s-.94.22-.94.65c0,.6.52.72,1.36.98.86.27,1.75.66,1.75,2.04s-1.13,1.96-2.03,1.96c-1.11,0-1.92-.65-2.35-1.62Z"/>
  </g>
</svg>