<?xml version="1.0" encoding="UTF-8"?>
<svg id="Layer_1" xmlns="http://www.w3.org/2000/svg" width="65" height="65" version="1.1" viewBox="0 0 65 65">
  <!-- Generator: Adobe Illustrator 29.4.0, SVG Export Plug-In . SVG Version: 2.1.0 Build 152)  -->
  <defs>
    <style>
      .st0 {
        fill: #ed1c24;
      }

      .st1 {
        fill: #fff;
      }
    </style>
  </defs>
  <path d="M57.65.41H7.36C3.53.41.41,3.53.41,7.36v50.29c0,3.83,3.12,6.94,6.95,6.94h50.29c3.83,0,6.94-3.11,6.94-6.94V7.36c0-3.83-3.11-6.95-6.94-6.95ZM64.09,57.65c0,3.55-2.89,6.44-6.44,6.44H7.36c-3.56,0-6.45-2.89-6.45-6.44V7.36C.91,3.8,3.8.91,7.36.91h50.29c3.55,0,6.44,2.89,6.44,6.45v50.29Z"/>
  <path class="st1" d="M57.65.91H7.36C3.8.91.91,3.8.91,7.36v50.29c0,3.55,2.89,6.44,6.45,6.44h50.29c3.55,0,6.44-2.89,6.44-6.44V7.36c0-3.56-2.89-6.45-6.44-6.45ZM32.5,63.67c-17.21,0-31.16-13.95-31.16-31.17S15.29,1.33,32.5,1.33s31.17,13.96,31.17,31.17-13.95,31.17-31.17,31.17Z"/>
  <path class="st0" d="M63.67,32.5c0,17.22-13.95,31.17-31.17,31.17S1.34,49.72,1.34,32.5,15.29,1.33,32.5,1.33s31.17,13.96,31.17,31.17Z"/>
  <g>
    <path class="st1" d="M26.04,16.54v7.28h-1.77v-10.86h1.77l3.37,6.52v-6.52h1.77v10.86h-1.34l-3.8-7.28Z"/>
    <path class="st1" d="M33.67,18.37c0-5.69,3-5.6,3.66-5.6s3.62-.09,3.62,5.6-2.95,5.64-3.62,5.64-3.66.09-3.66-5.64ZM37.31,14.29c-.35,0-1.94-.06-1.94,4.08s1.59,4.11,1.94,4.11,1.94.06,1.94-4.11-1.59-4.08-1.94-4.08Z"/>
  </g>
  <g>
    <path class="st1" d="M12.16,42.9h5.81v1.52h-4.03v2.74h2.56v1.49h-2.56v3.58h4.51v1.52h-6.29v-10.86Z"/>
    <path class="st1" d="M22.56,46.49v7.28h-1.77v-10.86h1.77l3.37,6.52v-6.52h1.77v10.86h-1.34l-3.8-7.28Z"/>
    <path class="st1" d="M33.66,53.77h-1.78v-9.42h-2.26v-1.45h6.29v1.45h-2.26v9.42Z"/>
    <path class="st1" d="M41.29,48.66h-1.68v5.11h-1.77v-10.86h3.67c1.93,0,3.24,1.14,3.24,2.9,0,1.3-.61,2.25-1.77,2.63l1.77,5.34h-1.81l-1.64-5.11ZM39.61,44.43v2.74h1.81c1.04,0,1.6-.5,1.6-1.37s-.65-1.37-1.6-1.37h-1.81Z"/>
    <path class="st1" d="M50.81,53.77h-1.78v-4.92l-3.04-5.95h1.86l2.08,3.93,2.04-3.93h1.91l-3.08,5.95v4.92Z"/>
  </g>
  <rect class="st1" x="5.82" y="27.89" width="53.36" height="10.89"/>
</svg>