<?xml version="1.0" encoding="UTF-8"?>
<svg id="Layer_1" xmlns="http://www.w3.org/2000/svg" width="96.27" height="64.05" version="1.1" viewBox="0 0 96.27 64.05">
  <!-- Generator: Adobe Illustrator 29.4.0, SVG Export Plug-In . SVG Version: 2.1.0 Build 152)  -->
  <defs>
    <style>
      .st0 {
        fill: #fff;
      }
    </style>
  </defs>
  <path d="M91.54,0H4.73C2.12,0,0,2.12,0,4.74v54.58c0,2.61,2.12,4.73,4.73,4.73h86.81c2.61,0,4.73-2.12,4.73-4.73V4.74c0-2.62-2.12-4.74-4.73-4.74ZM95.77,59.32c0,2.33-1.9,4.23-4.23,4.23H4.73c-2.33,0-4.23-1.9-4.23-4.23V4.74C.5,2.4,2.4.5,4.73.5h86.81c2.33,0,4.23,1.9,4.23,4.24v54.58Z"/>
  <path class="st0" d="M95.77,4.74v54.58c0,2.33-1.9,4.23-4.23,4.23H4.73c-2.33,0-4.23-1.9-4.23-4.23V4.74C.5,2.4,2.4.5,4.73.5h86.81c2.33,0,4.23,1.9,4.23,4.24Z"/>
  <path d="M91.16,62.8H5.1c-2.07,0-3.76-1.69-3.76-3.76V5.01c0-2.07,1.69-3.76,3.76-3.76h86.06c2.07,0,3.76,1.69,3.76,3.76v54.03c0,2.07-1.69,3.76-3.76,3.76ZM5.1,3.25c-.97,0-1.76.79-1.76,1.76v54.03c0,.97.79,1.76,1.76,1.76h86.06c.97,0,1.76-.79,1.76-1.76V5.01c0-.97-.79-1.76-1.76-1.76H5.1Z"/>
  <g>
    <path d="M38.54,10.04v8.73h-2.24V6.08h2.23l5.86,8.38V6.08h2.19v12.7h-1.97l-6.08-8.73Z"/>
    <path d="M49.16,12.41c0-4.05,2.05-6.55,5.4-6.55,3.16,0,5.27,2.61,5.27,6.5s-2.04,6.63-5.27,6.63c-3.75,0-5.4-3.41-5.4-6.59ZM51.49,12.41c0,2.72,1.16,4.32,3.08,4.32,2.41,0,2.99-2.36,2.99-4.32,0-2.7-1.11-4.28-2.99-4.28s-3.08,1.6-3.08,4.28Z"/>
    <path d="M15.32,38.89h-2.07v-11.23h-2.99v-1.83h8.1v1.83h-3.04v11.23Z"/>
    <path d="M26.92,33.21h-4.77v5.68h-2.06v-13.06h2.06v5.27h4.77v-5.27h2.06v13.06h-2.06v-5.68Z"/>
    <path d="M33.84,33.21v5.69h-2.06v-13.06h4.73c2.99,0,3.89,2.4,3.89,3.67,0,.48-.18,2.4-2.03,3.27l2.3,6.12h-2.25l-2.11-5.69h-2.48ZM36.43,31.1c1.64,0,1.9-1.18,1.9-1.6,0-.57-.43-1.6-1.8-1.6h-2.69v3.21h2.59Z"/>
    <path d="M51.68,32.36c0,.47.1,6.76-4.64,6.76s-4.64-6.29-4.64-6.76-.1-6.76,4.64-6.76,4.64,6.29,4.64,6.76ZM47.06,37.01c1.41,0,2.55-1.33,2.55-4.65s-1.14-4.65-2.55-4.65-2.55,1.33-2.55,4.65,1.14,4.65,2.55,4.65Z"/>
    <path d="M54.23,34.22v-8.39h2.06v8.39c0,1.7.96,2.79,2.38,2.79s2.38-1.1,2.38-2.79v-8.39h2.06v8.39c0,4.13-3.17,4.9-4.45,4.9-1.16,0-4.45-.68-4.45-4.9Z"/>
    <path d="M70.41,25.6c2.09,0,3.27.79,4.16,2.89l-1.97.78c-.55-1.15-1.1-1.56-2.11-1.56-2.87,0-2.71,4.37-2.71,4.67,0,.49-.11,4.63,2.43,4.63,1.33,0,2.29-.82,2.29-2.02v-.55h-2.38v-2.06h4.44v2.61c0,2.38-1.74,4.12-4.13,4.12-.47,0-4.76.39-4.76-6.76,0-1,.06-6.76,4.73-6.76Z"/>
    <path d="M83.95,33.21h-4.77v5.68h-2.06v-13.06h2.06v5.27h4.77v-5.27h2.06v13.06h-2.06v-5.68Z"/>
    <path d="M29.74,52.43l2.36,5.54h-2.59l-2.09-5.08h-3.5v5.08h-2.32v-12.94h6.12c2.67,0,4.1,2.11,4.1,3.95,0,1.45-.77,2.72-2.09,3.45ZM23.92,47.34v3.22h3.73c1.13,0,1.86-.65,1.86-1.59,0-1-.73-1.63-1.86-1.63h-3.73Z"/>
    <path d="M34.12,51.47c0-4.13,2.09-6.67,5.51-6.67,3.22,0,5.37,2.66,5.37,6.63s-2.08,6.76-5.37,6.76c-3.82,0-5.51-3.47-5.51-6.72ZM36.49,51.47c0,2.77,1.18,4.4,3.14,4.4,2.46,0,3.05-2.41,3.05-4.4,0-2.75-1.13-4.36-3.05-4.36s-3.14,1.64-3.14,4.36Z"/>
    <path d="M56.12,54.92h-5.63l-1.27,3.04h-2.54l5.45-12.94h2.36l5.4,12.94h-2.5l-1.27-3.04ZM51.49,52.61h3.63l-1.81-4.36-1.82,4.36Z"/>
    <path d="M61.92,45.02h4.18c3.73,0,6.31,2.71,6.31,6.45s-2.3,6.49-6.19,6.49h-4.29v-12.94ZM64.28,47.34v8.31h1.79c2.07,0,4.02-1.37,4.02-4.18,0-2.61-1.64-4.13-4-4.13h-1.81Z"/>
  </g>
</svg>