<?xml version="1.0" encoding="UTF-8"?>
<svg id="uuid-14ddff4a-ac0a-42b0-a3e4-ca1374b15d5a" data-name="Layer 1" xmlns="http://www.w3.org/2000/svg" viewBox="0 0 38.39 38.39">
  <defs>
    <style>
      .uuid-1fff2b09-00f5-4f22-a2ba-f89e568a38b4 {
        fill: #3a53a4;
      }

      .uuid-4a0a55b8-79b0-4323-823d-35046c2e3399 {
        fill: #fff;
      }
    </style>
  </defs>
  <rect class="uuid-4a0a55b8-79b0-4323-823d-35046c2e3399" x=".25" y=".25" width="37.89" height="37.89" rx="3.62" ry="3.62"/>
  <path class="uuid-1fff2b09-00f5-4f22-a2ba-f89e568a38b4" d="M34.71,38.39H3.67c-2.03,0-3.67-1.65-3.67-3.68V3.68C0,1.65,1.65,0,3.67,0h31.04c2.03,0,3.68,1.65,3.68,3.68v31.04c0,2.03-1.65,3.68-3.68,3.68ZM3.67,1.8c-1.03,0-1.88.84-1.88,1.88v31.04c0,1.03.84,1.88,1.88,1.88h31.04c1.03,0,1.88-.84,1.88-1.88V3.68c0-1.03-.84-1.88-1.88-1.88H3.67Z"/>
  <rect class="uuid-1fff2b09-00f5-4f22-a2ba-f89e568a38b4" x="3.3" y="3.3" width="31.78" height="31.78"/>
  <path class="uuid-4a0a55b8-79b0-4323-823d-35046c2e3399" d="M14.12,21.63v8.95h-4.15V7.81h11.14c4.8,0,7.31,3.65,7.31,6.91,0,3.03-2.25,6.91-7.14,6.91h-7.16ZM14.12,11.88v5.67h6.88c2,0,3.35-1.12,3.35-2.79,0-1.76-1.33-2.88-3.36-2.88h-6.87Z"/>
</svg>