<?xml version="1.0" encoding="UTF-8"?>
<svg id="Layer_1" xmlns="http://www.w3.org/2000/svg" width="95.84" height="63.83" version="1.1" viewBox="0 0 95.84 63.83">
  <!-- Generator: Adobe Illustrator 29.4.0, SVG Export Plug-In . SVG Version: 2.1.0 Build 152)  -->
  <defs>
    <style>
      .st0 {
        fill: #ed1c24;
      }

      .st1 {
        fill: #fff;
      }
    </style>
  </defs>
  <rect class="st0" width="95.84" height="63.83"/>
  <g>
    <path class="st1" d="M15.96,13.35h-2.43v5.68h-2.06V5.98h4.94c3.07,0,3.95,2.5,3.95,3.67,0,.81-.45,3.71-4.4,3.71ZM13.53,11.25h2.91c1.64,0,1.81-1.18,1.81-1.6,0-.61-.46-1.6-1.74-1.6h-2.98v3.21Z"/>
    <path class="st1" d="M24.15,13.35v5.69h-2.06V5.98h4.73c2.99,0,3.89,2.4,3.89,3.67,0,.49-.18,2.4-2.03,3.27l2.3,6.12h-2.25l-2.11-5.69h-2.48ZM26.74,11.25c1.64,0,1.9-1.18,1.9-1.6,0-.57-.43-1.6-1.8-1.6h-2.69v3.21h2.59Z"/>
    <path class="st1" d="M32.95,5.98h7.69v2.06h-5.63v3.21h3.8v2.11h-3.8v3.58h6.04v2.11h-8.1V5.98Z"/>
    <path class="st1" d="M47.51,13.35h-2.43v5.68h-2.06V5.98h4.94c3.07,0,3.96,2.5,3.96,3.67,0,.81-.45,3.71-4.4,3.71ZM45.08,11.25h2.91c1.64,0,1.81-1.18,1.81-1.6,0-.61-.46-1.6-1.74-1.6h-2.98v3.21Z"/>
    <path class="st1" d="M60.18,15.37h-4.1l-1.29,3.67h-2.21l4.52-13.06h2.08l4.52,13.06h-2.21l-1.29-3.67ZM56.82,13.26h2.63l-1.29-3.67-1.33,3.67Z"/>
    <path class="st1" d="M67.47,13.35v5.69h-2.06V5.98h4.72c2.99,0,3.89,2.4,3.89,3.67,0,.49-.18,2.4-2.03,3.27l2.3,6.12h-2.25l-2.11-5.69h-2.48ZM70.07,11.25c1.64,0,1.9-1.18,1.9-1.6,0-.57-.43-1.6-1.8-1.6h-2.69v3.21h2.59Z"/>
    <path class="st1" d="M76.27,5.98h7.69v2.06h-5.63v3.21h3.8v2.11h-3.8v3.58h6.04v2.11h-8.1V5.98Z"/>
    <path class="st1" d="M44.71,38.51h-2.09v-11.33h-3.02v-1.85h8.18v1.85h-3.07v11.33Z"/>
    <path class="st1" d="M58.72,31.92c0,.47.1,6.82-4.68,6.82s-4.68-6.35-4.68-6.82-.1-6.82,4.68-6.82,4.68,6.35,4.68,6.82ZM54.06,36.62c1.42,0,2.57-1.35,2.57-4.7s-1.15-4.7-2.57-4.7-2.57,1.34-2.57,4.7,1.15,4.7,2.57,4.7Z"/>
    <path class="st1" d="M34.17,56.97c-.92.56-2.11.88-3.31.88-2.25,0-3.96-.84-5.43-2.55l1.89-1.49c.97,1.16,2.02,1.67,3.5,1.67,1.66,0,2.85-.78,2.85-1.72,0-1.33-1.32-1.42-4.98-2.44-1.84-.52-2.66-1.92-2.66-3.32,0-2.19,1.84-3.67,4.51-3.67,1.93,0,3.55.65,4.88,2.04l-1.75,1.58c-.83-.88-1.89-1.3-3.13-1.3-1.43,0-2.12.58-2.12,1.33,0,1.45,1.78,1.13,5.03,2.27,2.29.81,2.57,2.77,2.57,3.6,0,1.35-.6,2.37-1.84,3.11Z"/>
    <path class="st1" d="M43.31,57.62h-2.29v-10.77h-3.75v-2.29h9.8v2.29h-3.75v10.77Z"/>
    <path class="st1" d="M48.68,51.07c0-4.17,2.11-6.73,5.56-6.73,3.25,0,5.42,2.68,5.42,6.69s-2.1,6.83-5.42,6.83c-3.86,0-5.56-3.5-5.56-6.78ZM51.07,51.07c0,2.79,1.19,4.44,3.17,4.44,2.48,0,3.08-2.43,3.08-4.44,0-2.77-1.14-4.4-3.08-4.4s-3.17,1.65-3.17,4.4Z"/>
    <path class="st1" d="M64.71,52.49v5.13h-2.38v-13.06h6.39c2.75,0,4.2,2.09,4.2,3.96,0,1.74-1.29,3.96-4.09,3.96h-4.11ZM64.71,46.9v3.25h3.95c1.14,0,1.92-.64,1.92-1.6,0-1.01-.76-1.65-1.93-1.65h-3.94Z"/>
  </g>
</svg>