<?xml version="1.0" encoding="UTF-8"?>
<svg id="Layer_1" xmlns="http://www.w3.org/2000/svg" width="127.36" height="63.59" version="1.1" viewBox="0 0 127.36 63.59">
  <!-- Generator: Adobe Illustrator 29.4.0, SVG Export Plug-In . SVG Version: 2.1.0 Build 152)  -->
  <defs>
    <style>
      .st0 {
        fill: #ffe40d;
      }
    </style>
  </defs>
  <path d="M-.38,0v63.59h127.74V0H-.38ZM124.86,61.09H2.12V2.5h122.74v58.59Z"/>
  <rect class="st0" x="2.12" y="2.5" width="122.74" height="58.59"/>
  <g>
    <path d="M14.5,19.67h-2.12v7.29h-2.22v-15.5h4.61c2.43,0,4.07,1.63,4.07,4.13,0,1.85-.76,3.21-2.23,3.75l2.22,7.62h-2.28l-2.06-7.29ZM12.38,13.63v3.92h2.28c1.31,0,2.01-.71,2.01-1.96s-.81-1.96-2.01-1.96h-2.28Z"/>
    <path d="M20.47,19.17c0-8.12,3.77-7.99,4.6-7.99s4.55-.12,4.55,7.99-3.71,8.05-4.55,8.05-4.6.13-4.6-8.05ZM25.04,13.36c-.44,0-2.44-.09-2.44,5.83s2,5.87,2.44,5.87,2.44.09,2.44-5.87-2-5.83-2.44-5.83Z"/>
    <path d="M37.51,22.72h-3.33l-1.04,4.24h-2.24l3.87-15.5h2.18l3.87,15.5h-2.24l-1.09-4.24ZM34.73,20.54h2.24l-1.15-4.46-1.09,4.46Z"/>
    <path d="M42.36,26.96v-15.5h4.42c.95,0,4.26.05,4.26,7.72,0,7.02-3.06,7.78-4.08,7.78h-4.61ZM46.32,13.63h-1.74v11.15h1.55c1.81,0,2.74-.79,2.74-5.49,0-5.45-1.36-5.66-2.55-5.66Z"/>
    <path d="M70.94,20.16v6.8h-2.22v-15.5h4.61c2.44,0,4.07,1.75,4.07,4.35,0,2.83-1.47,4.35-4.07,4.35h-2.39ZM70.94,18.04h2.28c1.3,0,2.01-.81,2.01-2.23,0-1.31-.82-2.18-2.01-2.18h-2.28v4.4Z"/>
    <path d="M79.56,11.46h2.24v13.44h5.67v2.07h-7.91v-15.5Z"/>
    <path d="M94.72,22.72h-3.33l-1.04,4.24h-2.24l3.87-15.5h2.18l3.87,15.5h-2.24l-1.09-4.24ZM91.94,20.54h2.24l-1.15-4.46-1.09,4.46Z"/>
    <path d="M101.79,16.57v10.39h-2.22v-15.5h2.22l4.23,9.3v-9.3h2.23v15.5h-1.68l-4.78-10.39Z"/>
    <path d="M114.84,26.96h-2.24v-13.44h-2.84v-2.07h7.91v2.07h-2.84v13.44Z"/>
  </g>
  <g>
    <path d="M34.7,49.08h-7.12l-1.61,3.85h-3.21l6.89-16.36h2.98l6.83,16.36h-3.16l-1.61-3.85ZM28.85,46.16h4.59l-2.29-5.51-2.3,5.51Z"/>
    <path d="M52.56,45.81h-7.38v7.12h-2.94v-16.36h2.94v6.31h7.38v-6.31h2.94v16.36h-2.94v-7.12Z"/>
    <path d="M59.74,36.57h11.98v2.93h-8.98v3.04h4.9v2.99h-4.9v4.48h9.27v2.93h-12.27v-16.36Z"/>
    <path d="M85.74,49.08h-7.12l-1.61,3.85h-3.21l6.89-16.36h2.98l6.83,16.36h-3.16l-1.61-3.85ZM79.89,46.16h4.59l-2.29-5.51-2.3,5.51Z"/>
    <path d="M93.28,36.57h5.28c4.71,0,7.97,3.43,7.97,8.15s-2.91,8.21-7.83,8.21h-5.43v-16.36ZM96.26,39.5v10.5h2.27c2.62,0,5.09-1.73,5.09-5.28,0-3.3-2.07-5.22-5.06-5.22h-2.29Z"/>
  </g>
</svg>