<?xml version="1.0" encoding="UTF-8"?>
<svg id="Layer_1" xmlns="http://www.w3.org/2000/svg" width="128.8" height="33.09" version="1.1" viewBox="0 0 128.8 33.09">
  <!-- Generator: Adobe Illustrator 29.4.0, SVG Export Plug-In . SVG Version: 2.1.0 Build 152)  -->
  <defs>
    <style>
      .st0 {
        fill: #ffe40d;
      }
    </style>
  </defs>
  <path d="M.89.9v31.65h127.12V.9H.89ZM126.01,30.55H2.89V2.9h123.12v27.65Z"/>
  <rect class="st0" x="2.89" y="2.9" width="123.12" height="27.65"/>
  <g>
    <path d="M18.79,17.39v4.46h-1.62v-10.25h3.71c2.35,0,3.06,1.88,3.06,2.88,0,.38-.14,1.88-1.59,2.57l1.81,4.81h-1.76l-1.65-4.46h-1.94ZM20.83,15.73c1.29,0,1.49-.93,1.49-1.26,0-.45-.33-1.26-1.41-1.26h-2.11v2.52h2.04Z"/>
    <path d="M32.81,16.72c0,.37.08,5.31-3.64,5.31s-3.64-4.94-3.64-5.31-.08-5.31,3.64-5.31,3.64,4.94,3.64,5.31ZM29.18,20.38c1.1,0,2-1.05,2-3.65s-.9-3.65-2-3.65-2,1.05-2,3.65.9,3.65,2,3.65Z"/>
    <path d="M39.96,18.97h-3.22l-1.01,2.88h-1.74l3.55-10.25h1.63l3.54,10.25h-1.74l-1.01-2.88ZM37.32,17.32h2.06l-1.01-2.88-1.05,2.88Z"/>
    <path d="M44.07,21.85v-10.25h3.7c2.59,0,3.28,3.41,3.28,4.9,0,3.85-1.98,5.36-3.27,5.36h-3.71ZM47.53,13.21h-1.84v6.98h1.72c1.49,0,1.98-1.81,1.98-3.74,0-.92-.26-3.24-1.87-3.24Z"/>
    <path d="M63.11,16.7c0-1.44.29-5.29,3.78-5.29,1.49,0,2.5.6,3.2,2.09l-1.51.65c-.52-.75-.79-1.08-1.69-1.08-2.15,0-2.12,2.99-2.12,3.63s-.04,3.67,2.19,3.67c.78,0,1.23-.47,1.58-1.19l1.55.58c-.58,1.43-1.55,2.26-3.09,2.26-3.69,0-3.88-4.08-3.88-5.32Z"/>
    <path d="M72.11,11.59h1.62v8.74h4.74v1.51h-6.36v-10.25Z"/>
    <path d="M86.93,16.72c0,.37.08,5.31-3.64,5.31s-3.64-4.94-3.64-5.31-.08-5.31,3.64-5.31,3.64,4.94,3.64,5.31ZM83.31,20.38c1.1,0,2-1.05,2-3.65s-.9-3.65-2-3.65-2,1.05-2,3.65.9,3.65,2,3.65Z"/>
    <path d="M88.3,19.44l1.55-.57c.43.97,1.22,1.51,2.2,1.51s1.58-.65,1.58-1.51c0-1.37-1.58-1.58-2.91-2.12-.61-.25-1.98-.86-1.98-2.55,0-2.01,1.37-2.77,3.2-2.77,1.44,0,2.41.83,2.91,2.08l-1.44.43c-.24-.46-.73-.9-1.6-.9s-1.5.36-1.5,1.04c0,.96.83,1.15,2.17,1.57,1.37.43,2.8,1.06,2.8,3.25s-1.79,3.13-3.24,3.13c-1.76,0-3.06-1.04-3.74-2.59Z"/>
    <path d="M96.83,11.59h6.04v1.62h-4.42v2.52h2.98v1.65h-2.98v2.81h4.74v1.65h-6.36v-10.25Z"/>
    <path d="M104.74,21.85v-10.25h3.7c2.59,0,3.28,3.41,3.28,4.9,0,3.85-1.98,5.36-3.28,5.36h-3.71ZM108.2,13.21h-1.84v6.98h1.72c1.49,0,1.98-1.81,1.98-3.74,0-.92-.26-3.24-1.87-3.24Z"/>
  </g>
</svg>