<?xml version="1.0" encoding="UTF-8"?>
<svg id="Layer_1" xmlns="http://www.w3.org/2000/svg" width="127.58" height="31.78" version="1.1" viewBox="0 0 127.58 31.78">
  <!-- Generator: Adobe Illustrator 29.4.0, SVG Export Plug-In . SVG Version: 2.1.0 Build 152)  -->
  <defs>
    <style>
      .st0 {
        fill: #ffe40d;
      }
    </style>
  </defs>
  <path d="M0,0v31.78h127.58V0H0ZM125.08,29.28H2.5V2.5h122.58v26.78Z"/>
  <rect class="st0" x="2.5" y="2.5" width="122.58" height="26.78"/>
  <g>
    <path d="M18.22,16.79v6.06h-2.2v-13.92h5.03c3.19,0,4.15,2.55,4.15,3.91,0,.52-.19,2.55-2.16,3.48l2.45,6.52h-2.39l-2.25-6.06h-2.64ZM20.99,14.55c1.75,0,2.02-1.26,2.02-1.71,0-.61-.45-1.71-1.92-1.71h-2.87v3.42h2.76Z"/>
    <path d="M37.24,15.89c0,.5.11,7.2-4.94,7.2s-4.94-6.7-4.94-7.2-.11-7.2,4.94-7.2,4.94,6.7,4.94,7.2ZM32.32,20.85c1.5,0,2.72-1.42,2.72-4.96s-1.22-4.96-2.72-4.96-2.72,1.42-2.72,4.96,1.22,4.96,2.72,4.96Z"/>
    <path d="M46.95,18.94h-4.37l-1.38,3.91h-2.36l4.81-13.92h2.21l4.81,13.92h-2.36l-1.38-3.91ZM43.37,16.7h2.8l-1.38-3.91-1.42,3.91Z"/>
    <path d="M52.54,22.85v-13.92h5.02c3.51,0,4.45,4.62,4.45,6.64,0,5.22-2.68,7.27-4.44,7.27h-5.03ZM57.22,11.13h-2.49v9.47h2.34c2.03,0,2.69-2.45,2.69-5.07,0-1.25-.35-4.4-2.53-4.4Z"/>
    <path d="M71.99,22.85l-2.21-8.94-2.16,8.94h-1.96l-2.06-13.92h2.25l1.08,7.33,1.76-7.33h2.16l1.81,7.33,1.08-7.33h2.25l-2.06,13.92h-1.96Z"/>
    <path d="M87.49,15.89c0,.5.11,7.2-4.94,7.2s-4.94-6.7-4.94-7.2-.11-7.2,4.94-7.2,4.94,6.7,4.94,7.2ZM82.58,20.85c1.5,0,2.72-1.42,2.72-4.96s-1.22-4.96-2.72-4.96-2.72,1.42-2.72,4.96,1.22,4.96,2.72,4.96Z"/>
    <path d="M92.42,16.79v6.06h-2.2v-13.92h5.03c3.19,0,4.15,2.55,4.15,3.91,0,.52-.19,2.55-2.16,3.48l2.45,6.52h-2.39l-2.25-6.06h-2.64ZM95.18,14.55c1.75,0,2.02-1.26,2.02-1.71,0-.61-.45-1.71-1.92-1.71h-2.87v3.42h2.76Z"/>
    <path d="M105.48,16.26l-1.47,1.81v4.78h-2.2v-13.92h2.2v5.52l4.41-5.52h2.84l-4.31,5.42,4.6,8.5h-2.55l-3.53-6.59Z"/>
  </g>
</svg>