<?xml version="1.0" encoding="UTF-8"?>
<svg id="Layer_1" xmlns="http://www.w3.org/2000/svg" width="127.74" height="63.59" version="1.1" viewBox="0 0 127.74 63.59">
  <!-- Generator: Adobe Illustrator 29.4.0, SVG Export Plug-In . SVG Version: 2.1.0 Build 152)  -->
  <defs>
    <style>
      .st0 {
        fill: #ffe40d;
      }
    </style>
  </defs>
  <path d="M0,0v63.59h127.74V0H0ZM125.24,61.09H2.5V2.5h122.74v58.59Z"/>
  <rect class="st0" x="2.5" y="2.5" width="122.74" height="58.59"/>
  <g>
    <path d="M20.25,32.72l2.34,5.49h-2.56l-2.07-5.04h-3.46v5.04h-2.29v-12.82h6.06c2.65,0,4.06,2.09,4.06,3.91,0,1.44-.76,2.7-2.07,3.42ZM14.5,27.68v3.19h3.69c1.12,0,1.84-.65,1.84-1.57,0-.99-.72-1.62-1.84-1.62h-3.69Z"/>
    <path d="M24.49,31.77c0-4.09,2.07-6.61,5.45-6.61,3.19,0,5.32,2.63,5.32,6.57s-2.06,6.7-5.32,6.7c-3.79,0-5.45-3.44-5.45-6.66ZM26.84,31.77c0,2.74,1.17,4.36,3.11,4.36,2.43,0,3.02-2.38,3.02-4.36,0-2.72-1.12-4.32-3.02-4.32s-3.11,1.62-3.11,4.32Z"/>
    <path d="M46.17,35.19h-5.58l-1.26,3.01h-2.52l5.4-12.82h2.34l5.35,12.82h-2.47l-1.26-3.01ZM41.59,32.9h3.6l-1.8-4.32-1.8,4.32Z"/>
    <path d="M51.8,25.39h4.14c3.69,0,6.25,2.68,6.25,6.39s-2.28,6.43-6.13,6.43h-4.25v-12.82ZM54.14,27.68v8.23h1.78c2.05,0,3.98-1.36,3.98-4.14,0-2.59-1.62-4.09-3.97-4.09h-1.79Z"/>
    <path d="M72.61,38.2l-2.07-8.59-2.03,8.59h-2.43l-2.34-12.82h2.39l1.4,8.28,1.89-8.28h2.3l1.98,8.28,1.3-8.28h2.34l-2.3,12.82h-2.43Z"/>
    <path d="M78.89,31.77c0-4.09,2.07-6.61,5.45-6.61,3.19,0,5.32,2.63,5.32,6.57s-2.06,6.7-5.32,6.7c-3.79,0-5.45-3.44-5.45-6.66ZM81.23,31.77c0,2.74,1.17,4.36,3.11,4.36,2.43,0,3.02-2.38,3.02-4.36,0-2.72-1.12-4.32-3.02-4.32s-3.11,1.62-3.11,4.32Z"/>
    <path d="M100.3,32.72l2.34,5.49h-2.56l-2.07-5.04h-3.46v5.04h-2.29v-12.82h6.06c2.65,0,4.06,2.09,4.06,3.91,0,1.44-.76,2.7-2.07,3.42ZM94.55,27.68v3.19h3.69c1.12,0,1.84-.65,1.84-1.57,0-.99-.72-1.62-1.84-1.62h-3.69Z"/>
    <path d="M109.63,31.55l-2.43,3.06v3.6h-2.3v-12.82h2.3v5.58l4.55-5.58h2.98l-3.43,4.18,4.24,8.63h-2.62l-3.29-6.66Z"/>
  </g>
</svg>