<?xml version="1.0" encoding="UTF-8"?>
<svg id="Layer_1" xmlns="http://www.w3.org/2000/svg" width="63.85" height="63.88" version="1.1" viewBox="0 0 63.85 63.88">
  <!-- Generator: Adobe Illustrator 29.4.0, SVG Export Plug-In . SVG Version: 2.1.0 Build 152)  -->
  <defs>
    <style>
      .st0 {
        fill: #ffe40d;
      }
    </style>
  </defs>
  <path d="M.03.05v63.83h63.82V.05H.03ZM61.35,61.38H2.53V2.55h58.82v58.83Z"/>
  <rect class="st0" x="2.53" y="2.55" width="58.82" height="58.83"/>
  <g>
    <path d="M13.83,23.41v5.26h-1.91v-12.08h4.37c2.77,0,3.6,2.22,3.6,3.39,0,.45-.17,2.22-1.88,3.03l2.13,5.67h-2.08l-1.95-5.26h-2.29ZM16.23,21.46c1.52,0,1.76-1.09,1.76-1.48,0-.53-.39-1.49-1.66-1.49h-2.49v2.97h2.4Z"/>
    <path d="M30.38,22.63c0,.43.09,6.25-4.29,6.25s-4.29-5.82-4.29-6.25-.09-6.25,4.29-6.25,4.29,5.82,4.29,6.25ZM26.11,26.94c1.3,0,2.36-1.23,2.36-4.31s-1.06-4.31-2.36-4.31-2.36,1.23-2.36,4.31,1.06,4.31,2.36,4.31Z"/>
    <path d="M38.85,25.28h-3.79l-1.19,3.39h-2.05l4.18-12.08h1.92l4.18,12.08h-2.05l-1.2-3.39ZM35.73,23.33h2.43l-1.19-3.39-1.24,3.39Z"/>
    <path d="M43.73,28.67v-12.08h4.36c3.05,0,3.87,4.02,3.87,5.77,0,4.53-2.33,6.31-3.86,6.31h-4.37ZM47.8,18.5h-2.16v8.23h2.03c1.76,0,2.34-2.13,2.34-4.4,0-1.08-.31-3.82-2.2-3.82Z"/>
  </g>
  <g>
    <path d="M18.35,51.42l-1.92-7.76-1.87,7.76h-1.7l-1.79-12.08h1.96l.94,6.36,1.53-6.36h1.87l1.57,6.36.94-6.36h1.96l-1.79,12.08h-1.7Z"/>
    <path d="M31.85,45.38c0,.43.09,6.25-4.29,6.25s-4.29-5.82-4.29-6.25-.09-6.25,4.29-6.25,4.29,5.82,4.29,6.25ZM27.58,49.69c1.3,0,2.36-1.23,2.36-4.31s-1.06-4.3-2.36-4.3-2.36,1.23-2.36,4.3,1.06,4.31,2.36,4.31Z"/>
    <path d="M36.16,46.16v5.26h-1.91v-12.08h4.37c2.77,0,3.6,2.22,3.6,3.39,0,.45-.17,2.22-1.88,3.03l2.13,5.67h-2.08l-1.95-5.26h-2.29ZM38.56,44.22c1.52,0,1.75-1.09,1.75-1.48,0-.53-.39-1.48-1.66-1.48h-2.49v2.97h2.4Z"/>
    <path d="M47.53,45.7l-1.28,1.57v4.15h-1.91v-12.08h1.91v4.79l3.83-4.79h2.47l-3.74,4.71,4,7.38h-2.21l-3.06-5.72Z"/>
  </g>
</svg>