<?xml version="1.0" encoding="UTF-8"?>
<svg id="Layer_1" xmlns="http://www.w3.org/2000/svg" width="48.24" height="48.24" version="1.1" viewBox="0 0 48.24 48.24">
  <!-- Generator: Adobe Illustrator 29.4.0, SVG Export Plug-In . SVG Version: 2.1.0 Build 152)  -->
  <defs>
    <style>
      .st0 {
        fill: #ffe40d;
      }
    </style>
  </defs>
  <path d="M24.12,0C10.82,0,0,10.82,0,24.12s10.82,24.12,24.12,24.12,24.12-10.82,24.12-24.12S37.42,0,24.12,0ZM24.12,46.74c-12.47,0-22.62-10.15-22.62-22.62S11.65,1.5,24.12,1.5s22.62,10.15,22.62,22.62-10.15,22.62-22.62,22.62Z"/>
  <path class="st0" d="M46.74,24.12c0,12.47-10.15,22.62-22.62,22.62S1.5,36.59,1.5,24.12,11.65,1.5,24.12,1.5s22.62,10.15,22.62,22.62Z"/>
  <g>
    <path d="M9.96,27.38c0-3.09-5.42-3.07-5.42-7.01,0-2.09,1.64-3.79,3.74-3.79s3.64,1.58,3.69,3.77h-2c-.05-1.02-.77-1.68-1.69-1.68-.97,0-1.74.71-1.74,1.68,0,.82.4,1.12,1.27,1.67,2,1.17,4.15,2.68,4.15,5.37,0,2.35-1.79,4.23-4.04,4.23-2.56,0-4.09-2.16-4.09-4.54h2.05c0,1.24.61,2.5,2.04,2.5h0c1.13,0,2.05-1.02,2.05-2.2Z"/>
    <path d="M14.15,16.83h2.1v12.59h5.32v1.94h-7.41v-14.53Z"/>
    <path d="M23.1,24.07c0-7.61,3.53-7.48,4.31-7.48s4.26-.12,4.26,7.49-3.48,7.54-4.26,7.54-4.31.12-4.31-7.55ZM27.39,18.62c-.41,0-2.29-.09-2.29,5.46s1.87,5.5,2.29,5.5,2.28.09,2.28-5.5-1.87-5.46-2.28-5.46Z"/>
    <path d="M40.11,31.36l-1.38-7.59-1.38,7.59h-1.84l-2.3-14.53h2.05l1.23,7.75,1.43-7.75h1.64l1.38,7.75,1.28-7.75h2.05l-2.35,14.53h-1.79Z"/>
  </g>
</svg>