<?xml version="1.0" encoding="UTF-8"?>
<svg id="uuid-414e16aa-25ba-417f-a140-0097e07e923a" xmlns="http://www.w3.org/2000/svg" width="23.04mm" height="22.97mm" version="1.1" viewBox="0 0 65.32 65.12">
  <!-- Generator: Adobe Illustrator 29.4.0, SVG Export Plug-In . SVG Version: 2.1.0 Build 152)  -->
  <defs>
    <style>
      .st0 {
        fill: #ed1c24;
      }

      .st1 {
        fill: #fff;
      }
    </style>
  </defs>
  <polygon class="st1" points="46.01 .33 19.31 .33 .42 19.21 .42 45.91 19.31 64.8 46.01 64.8 64.89 45.91 64.89 19.21 46.01 .33"/>
  <polygon class="st0" points="45.2 2.28 20.11 2.28 2.38 20.02 2.38 45.11 20.11 62.84 45.2 62.84 62.94 45.11 62.94 20.02 45.2 2.28"/>
  <g>
    <path class="st1" d="M13.73,37.38c0-4.54-7.96-4.51-7.96-10.28,0-3.07,2.4-5.57,5.48-5.57s5.33,2.32,5.41,5.53h-2.93c-.07-1.5-1.13-2.47-2.48-2.47-1.43,0-2.55,1.04-2.55,2.46,0,1.2.58,1.64,1.87,2.45,2.94,1.72,6.09,3.94,6.09,7.87,0,3.45-2.63,6.21-5.93,6.21-3.75,0-6-3.17-6-6.66h3.01c0,1.81.9,3.67,3,3.67h0c1.65,0,3-1.5,3-3.22h-.01Z"/>
    <path class="st1" d="M25.49,43.22h-3.07v-18.47h-3.9v-2.84h10.87v2.84h-3.9v18.47Z"/>
    <path class="st1" d="M31.89,32.52c0-11.16,5.18-10.98,6.32-10.98s6.26-.17,6.26,10.99-5.11,11.06-6.26,11.06-6.32.17-6.32-11.07ZM38.18,24.52c-.61,0-3.35-.13-3.35,8.01s2.75,8.07,3.35,8.07,3.35.13,3.35-8.07-2.74-8.01-3.35-8.01Z"/>
    <path class="st1" d="M51.72,33.87v9.35h-3.06v-21.31h6.34c3.36,0,5.6,2.4,5.6,5.98,0,3.89-2.02,5.98-5.6,5.98,0,0-3.28,0-3.28,0ZM51.72,30.95h3.13c1.79,0,2.76-1.12,2.76-3.06,0-1.8-1.13-2.99-2.76-2.99h-3.13v6.06h0Z"/>
  </g>
  <path d="M46.01,64.8h-26.7L.42,45.91v-26.7L19.31.33h26.7l18.88,18.88v26.7l-18.88,18.88h0ZM19.51,64.3h26.29l18.59-18.59v-26.29L45.8.83h-26.29L.92,19.42v26.29l18.59,18.59Z"/>
</svg>