<?xml version="1.0" encoding="UTF-8"?>
<svg id="Layer_1" xmlns="http://www.w3.org/2000/svg" width="137.07" height="60.45" version="1.1" viewBox="0 0 137.07 60.45">
  <!-- Generator: Adobe Illustrator 29.4.0, SVG Export Plug-In . SVG Version: 2.1.0 Build 152)  -->
  <defs>
    <style>
      .st0 {
        fill: #fff;
      }
    </style>
  </defs>
  <path class="st0" d="M136.57,10.22v40c0,5.37-4.36,9.73-9.72,9.73H10.22c-5.36,0-9.72-4.36-9.72-9.73V10.22c0-5.36,4.36-9.72,9.72-9.72h116.63c5.36,0,9.72,4.36,9.72,9.72h0Z"/>
  <path class="st0" d="M136.57,10.22v40c0,5.37-4.36,9.73-9.72,9.73H10.22c-5.36,0-9.72-4.36-9.72-9.73V10.22c0-5.36,4.36-9.72,9.72-9.72h116.63c5.36,0,9.72,4.36,9.72,9.72h0Z"/>
  <g>
    <g>
      <circle cx="18.97" cy="12.48" r="3.45"/>
      <path d="M18.49,37.79v11.99c-.01,2.18-3.26,2.18-3.29,0v-11.99h-4.24l4.56-16.02h-.75l-2.66,9.12c-.67,2.02-3.4,1.2-2.76-.95l2.97-9.87c.34-1.13,1.77-3.13,4.24-3.18h4.77c2.4.05,3.83,2.07,4.24,3.18l2.97,9.87c.6,2.15-2.1,3.03-2.76.95l-2.66-9.12h-.85l4.67,16.02h-4.35v11.99c.04,2.18-3.19,2.17-3.18,0v-11.99h-.95.03Z"/>
      <circle cx="47.19" cy="12.48" r="3.45"/>
      <path d="M43.53,16.89c-2.65,0-4.35,2.3-4.35,4.56v10.61c-.02,2.07,2.96,2.07,2.97,0v-9.76h.75v26.95c-.04,2.81,3.93,2.73,3.92,0v-15.7h.63v15.7c.05,2.73,4.05,2.81,4.04,0v-26.95h.75v9.76c-.04,2.09,2.93,2.09,2.97,0v-10.61c-.04-2.27-1.81-4.52-4.45-4.56h-7.23Z"/>
      <rect x="31.33" y="9.46" width="3.92" height="41.7"/>
    </g>
    <g>
      <path d="M69.78,38.42h-2.68v-16.08h-3.4v-2.47h9.47v2.47h-3.4v16.08h.01Z"/>
      <path d="M75.15,29.1c0-9.72,4.51-9.56,5.51-9.56s5.45-.15,5.45,9.57-4.45,9.63-5.45,9.63-5.51.15-5.51-9.64ZM80.62,22.14c-.53,0-2.92-.11-2.92,6.97s2.39,7.02,2.92,7.02,2.92.11,2.92-7.02-2.39-6.97-2.92-6.97Z"/>
      <path d="M89.39,19.86h2.6v18.55h-2.6v-18.55Z"/>
      <path d="M95.65,19.86h2.68v16.08h6.79v2.47h-9.47v-18.55Z"/>
      <path d="M107.42,19.86h8.75v2.6h-6.07v4.69h3.85v2.54h-3.85v6.12h6.79v2.6h-9.47v-18.55Z"/>
      <path d="M124.42,38.42h-2.68v-16.08h-3.4v-2.47h9.47v2.47h-3.4v16.08h.01Z"/>
    </g>
  </g>
  <path d="M127.01,58.26H10.06c-4.57,0-8.29-3.72-8.29-8.29V10.48c0-4.57,3.72-8.29,8.29-8.29h116.95c4.57,0,8.29,3.72,8.29,8.29v39.48c0,4.57-3.72,8.29-8.29,8.29h0ZM10.06,5.19c-2.92,0-5.29,2.38-5.29,5.29v39.48c0,2.92,2.38,5.29,5.29,5.29h116.95c2.92,0,5.29-2.38,5.29-5.29V10.48c0-2.92-2.38-5.29-5.29-5.29H10.06Z"/>
  <path d="M126.85,0H10.22C4.58,0,0,4.58,0,10.22v40c0,5.64,4.58,10.23,10.22,10.23h116.63c5.64,0,10.22-4.59,10.22-10.23V10.22c0-5.64-4.58-10.22-10.22-10.22h0ZM136.57,50.22c0,5.37-4.36,9.73-9.72,9.73H10.22c-5.36,0-9.72-4.36-9.72-9.73V10.22c0-5.36,4.36-9.72,9.72-9.72h116.63c5.36,0,9.72,4.36,9.72,9.72v40h0Z"/>
</svg>