<?xml version="1.0" encoding="UTF-8"?>
<svg id="Layer_1" xmlns="http://www.w3.org/2000/svg" width="85.27" height="127.96" version="1.1" viewBox="0 0 85.27 127.96">
  <!-- Generator: Adobe Illustrator 29.4.0, SVG Export Plug-In . SVG Version: 2.1.0 Build 152)  -->
  <defs>
    <style>
      .st0 {
        fill: #fff;
        stroke: #fff;
        stroke-miterlimit: 10;
        stroke-width: .5px;
      }
    </style>
  </defs>
  <path class="st0" d="M9.72.51h65.85c5.07,0,9.2,4.13,9.2,9.21v108.53c0,5.08-4.13,9.21-9.2,9.21H9.72c-5.08,0-9.21-4.13-9.21-9.21V9.72c0-5.08,4.13-9.21,9.21-9.21Z"/>
  <path d="M85.27,9.71v108.54c0,5.35-4.35,9.71-9.71,9.71H9.7C4.35,127.96,0,123.6,0,118.25V9.71C0,4.36,4.35,0,9.71,0h65.85c5.35,0,9.71,4.35,9.71,9.71h0ZM.5,118.25c0,5.08,4.13,9.21,9.2,9.21h65.85c5.08,0,9.21-4.13,9.21-9.21V9.71c0-5.08-4.13-9.21-9.21-9.21H9.7c-5.08,0-9.21,4.13-9.21,9.21v108.54s0,0,0,0Z"/>
  <path d="M83.01,11.02v105.92c0,4.73-3.85,8.58-8.58,8.58H10.84c-4.73,0-8.58-3.85-8.58-8.58V11.03c0-4.73,3.85-8.58,8.58-8.58h63.58c4.73,0,8.58,3.85,8.58,8.58h0ZM6.26,116.94c0,2.53,2.05,4.58,4.58,4.58h63.58c2.53,0,4.58-2.05,4.58-4.58V11.03c0-2.53-2.05-4.58-4.58-4.58H10.84c-2.53,0-4.58,2.05-4.58,4.58,0,0,0,105.91,0,105.91Z"/>
  <g>
    <g>
      <circle cx="23.51" cy="25.23" r="4.62"/>
      <path d="M22.87,59.16v16.07c-.02,2.92-4.37,2.92-4.41,0v-16.07h-5.69l6.12-21.48h-1l-3.56,12.23c-.9,2.71-4.56,1.61-3.7-1.28l3.98-13.23c.46-1.52,2.37-4.2,5.69-4.27h6.4c3.22.07,5.14,2.77,5.69,4.27l3.98,13.23c.81,2.88-2.82,4.06-3.7,1.28l-3.56-12.23h-1.14l6.26,21.48h-5.83v16.07c.05,2.92-4.28,2.91-4.27,0v-16.07h-1.28Z"/>
      <circle cx="61.35" cy="25.23" r="4.62"/>
      <path d="M56.44,31.14c-3.55,0-5.83,3.08-5.83,6.12v14.23c-.03,2.78,3.97,2.78,3.98,0v-13.09h1v36.13c-.06,3.77,5.27,3.66,5.26,0v-21.05h.85v21.05c.07,3.66,5.43,3.77,5.41,0v-36.13h1v13.09c-.05,2.8,3.93,2.8,3.98,0v-14.23c-.06-3.04-2.42-6.06-5.97-6.12h-9.67Z"/>
      <rect x="40.08" y="21.18" width="5.26" height="55.91"/>
    </g>
    <g>
      <path d="M16.73,107.03h-2.68v-16.08h-3.4v-2.47h9.47v2.47h-3.4v16.08Z"/>
      <path d="M22.1,97.71c0-9.72,4.51-9.56,5.51-9.56s5.45-.15,5.45,9.57-4.45,9.63-5.45,9.63-5.51.15-5.51-9.64ZM27.57,90.75c-.53,0-2.92-.11-2.92,6.97s2.39,7.02,2.92,7.02,2.92.11,2.92-7.02-2.39-6.97-2.92-6.97Z"/>
      <path d="M36.34,88.47h2.6v18.55h-2.6v-18.55Z"/>
      <path d="M42.6,88.47h2.68v16.08h6.79v2.47h-9.47v-18.55Z"/>
      <path d="M54.37,88.47h8.75v2.6h-6.07v4.69h3.85v2.54h-3.85v6.12h6.79v2.6h-9.47v-18.55Z"/>
      <path d="M71.37,107.03h-2.68v-16.08h-3.4v-2.47h9.47v2.47h-3.4v16.08Z"/>
    </g>
  </g>
</svg>