<?xml version="1.0" encoding="UTF-8"?>
<svg id="Layer_1" xmlns="http://www.w3.org/2000/svg" width="65" height="65" version="1.1" viewBox="0 0 65 65">
  <!-- Generator: Adobe Illustrator 29.4.0, SVG Export Plug-In . SVG Version: 2.1.0 Build 152)  -->
  <defs>
    <style>
      .st0 {
        fill: #f58020;
      }
    </style>
  </defs>
  <rect class="st0" x="2.66" y="2.67" width="59.67" height="59.67"/>
  <g>
    <circle cx="25.26" cy="15.58" r="5.16"/>
    <path d="M53.51,13.18c0,3.85-2.88,7.03-6.6,7.49v38.43h-1.9V25.91l-14.59,1.55v15.3l-.54,16.34h-3.29l-1.33-18.76-1.95,18.76h-3.21l-.6-16.34v-13.14l-5.79,9.34-2.68-1.13,6.4-15.65,4.11-1.38c1.08.67,2.35,1.06,3.72,1.06,1.26,0,2.43-.33,3.45-.9l2.21,1.05,14.09,1.13v-2.47c-3.72-.46-6.6-3.64-6.6-7.49,0-4.17,3.38-7.55,7.55-7.55s7.55,3.38,7.55,7.55Z"/>
  </g>
  <path d="M.66.67v63.67h63.67V.67H.66ZM62.34,62.33H2.66V2.67h59.67v59.67Z"/>
</svg>