<?xml version="1.0" encoding="UTF-8"?>
<svg id="Layer_1" xmlns="http://www.w3.org/2000/svg" width="63.82" height="63.83" version="1.1" viewBox="0 0 63.82 63.83">
  <!-- Generator: Adobe Illustrator 29.4.0, SVG Export Plug-In . SVG Version: 2.1.0 Build 152)  -->
  <defs>
    <style>
      .st0 {
        fill: #ffe40d;
      }
    </style>
  </defs>
  <path d="M0,0v63.83h63.82V0H0ZM61.32,61.33H2.5V2.5h58.82v58.83Z"/>
  <rect class="st0" x="2.5" y="2.5" width="58.82" height="58.83"/>
  <path d="M44.76,34.57c1.07-.1,1.95-.88,2.18-1.93l1.46-6.5c.07-.33-.16-.64-.5-.67l-10.34-.79v-2.42l7.2-.7c1.07-.11,1.95-.89,2.18-1.94l1.46-6.5c.07-.33-.16-.64-.5-.67l-10.34-.79v-3.43c0-.49-.4-.88-.88-.88h-2.26v-.36c0-.91-.74-1.65-1.65-1.65h-1.67c-.91,0-1.65.74-1.65,1.65v.36h-2.26c-.48,0-.88.39-.88.88v3.43l-10.39.79c-.33.03-.57.34-.49.67l1.45,6.5c.24,1.05,1.12,1.83,2.19,1.94l7.24.71v2.41l-10.39.79c-.33.03-.57.34-.49.67l1.45,6.5c.24,1.05,1.12,1.83,2.19,1.93l7.24.72v2.02l-10.39.79c-.33.03-.57.34-.49.67l1.45,6.5c.24,1.05,1.12,1.83,2.19,1.94l7.24.71v3.34c0,.48.4.88.88.88h1.69v5.89c0,.25.2.46.46.46h5.2c.25,0,.46-.21.46-.46v-5.89h1.68c.48,0,.88-.4.88-.88v-3.35l7.2-.7c1.07-.11,1.95-.89,2.18-1.94l1.46-6.5c.07-.33-.16-.64-.5-.67l-10.34-.79v-2.03l7.2-.71ZM31.94,47.08c-2.46,0-4.45-1.99-4.45-4.45s1.99-4.45,4.45-4.45,4.45,1.99,4.45,4.45-2,4.45-4.45,4.45ZM31.94,33.98c-2.46,0-4.45-1.99-4.45-4.45s1.99-4.45,4.45-4.45,4.45,1.99,4.45,4.45-2,4.45-4.45,4.45ZM31.94,20.88c-2.46,0-4.45-1.99-4.45-4.45s1.99-4.45,4.45-4.45,4.45,1.99,4.45,4.45-2,4.45-4.45,4.45Z"/>
</svg>