<?xml version="1.0" encoding="UTF-8"?>
<svg id="Layer_1" xmlns="http://www.w3.org/2000/svg" width="63.82" height="63.83" version="1.1" viewBox="0 0 63.82 63.83">
  <!-- Generator: Adobe Illustrator 29.4.0, SVG Export Plug-In . SVG Version: 2.1.0 Build 152)  -->
  <defs>
    <style>
      .st0 {
        fill: #ffe40d;
      }
    </style>
  </defs>
  <path d="M0,0v63.83h63.82V0H0ZM61.32,61.33H2.5V2.5h58.82v58.83Z"/>
  <rect class="st0" x="2.5" y="2.5" width="58.82" height="58.83"/>
  <g>
    <path d="M20.88,23.92l.66,29.39h-6.06l.8-29.14-4,.94c-1.18.28-2.14-.98-1.54-2.04l6.6-11.82c.53-.95,1.9-.96,2.44-.01l6.76,11.83c.62,1.09-.4,2.39-1.61,2.04l-4.05-1.18Z"/>
    <path d="M47.41,39.91l.66-29.39h-6.06l.8,29.14-4-.94c-1.18-.28-2.14.98-1.54,2.04l6.6,11.82c.53.95,1.9.96,2.44.01l6.76-11.83c.62-1.09-.4-2.39-1.61-2.04l-4.05,1.18Z"/>
  </g>
</svg>