<?xml version="1.0" encoding="UTF-8"?>
<svg id="uuid-5999d81d-9cbf-4a9d-b8e3-47d9c1a7d8b8" xmlns="http://www.w3.org/2000/svg" width="91.72" height="64.38" version="1.1" viewBox="0 0 91.72 64.38">
  <!-- Generator: Adobe Illustrator 29.4.0, SVG Export Plug-In . SVG Version: 2.1.0 Build 152)  -->
  <defs>
    <style>
      .st0 {
        fill: #fff;
      }
    </style>
  </defs>
  <path d="M86.9,0H4.82C2.16,0,0,2.16,0,4.82v54.74c0,2.66,2.16,4.82,4.82,4.82h82.09c2.66-.01,4.81-2.16,4.81-4.82V4.82C91.72,2.16,89.56,0,86.9,0ZM91.22,59.56c0,2.38-1.94,4.32-4.32,4.32H4.82c-2.38,0-4.32-1.94-4.32-4.32V4.82c0-2.38,1.94-4.32,4.32-4.32h82.08c2.38,0,4.32,1.94,4.32,4.32v54.74Z"/>
  <rect class="st0" x=".5" y=".5" width="90.72" height="63.38" rx="4.32" ry="4.32"/>
  <path d="M86.27,62.94H5.46c-2.1,0-3.81-1.71-3.81-3.81V5.25c0-2.1,1.71-3.81,3.81-3.81h80.81c2.1,0,3.81,1.71,3.81,3.81v53.87c0,2.1-1.71,3.81-3.81,3.81h0ZM5.46,3.44c-1,0-1.81.81-1.81,1.81v53.87c0,1,.81,1.81,1.81,1.81h80.81c1,0,1.81-.81,1.81-1.81V5.25c0-1-.81-1.81-1.81-1.81H5.46Z"/>
  <g>
    <path d="M49.6,19.37h1.01v5.48h2.97v.95h-3.99v-6.43h.01Z"/>
    <path d="M54.43,19.37h1.03v6.43h-1.03v-6.43Z"/>
    <path d="M59.06,19.26c1.03,0,1.61.39,2.05,1.42l-.97.38c-.27-.56-.54-.77-1.04-.77-1.41,0-1.33,2.15-1.33,2.3,0,.24-.05,2.28,1.2,2.28.65,0,1.13-.41,1.13-.99v-.27h-1.17v-1.02h2.19v1.29c0,1.17-.86,2.03-2.03,2.03-.23,0-2.35.19-2.35-3.33,0-.49.03-3.33,2.33-3.33h0Z"/>
    <path d="M65.71,23h-2.35v2.8h-1.01v-6.43h1.01v2.59h2.35v-2.59h1.02v6.43h-1.02v-2.8Z"/>
    <path d="M70.06,25.8h-1.02v-5.53h-1.47v-.9h3.99v.9h-1.5v5.53Z"/>
    <path d="M79.46,20.72c0-.84.65-1.44,1.62-1.44.9,0,1.53.61,1.53,1.47,0,.68-.32,1.13-1.06,1.62l.92,1.15c.09-.27.16-.54.18-.83h.97c-.07.7-.18,1.11-.5,1.6l1.29,1.51h-1.38l-.54-.68c-.56.59-1.06.81-1.78.81-1.2,0-2.03-.77-2.03-1.87,0-.77.55-1.51,1.35-1.94-.45-.61-.59-.93-.59-1.4,0,0,.02,0,.02,0ZM79.78,24.04c0,.52.45.95.99.95.43,0,.74-.16,1.13-.63l-1.2-1.47c-.65.36-.92.7-.92,1.15ZM81.65,20.77c0-.38-.25-.63-.59-.63s-.61.25-.61.56c0,.16.03.3.16.47l.36.5c.5-.32.68-.57.68-.9Z"/>
    <path d="M56.93,32.61h-2.35v2.8h-1.01v-6.43h1.01v2.59h2.35v-2.59h1.02v6.43h-1.01v-2.8h-.01Z"/>
    <path d="M59.31,28.97h3.79v1.02h-2.77v1.58h1.87v1.04h-1.87v1.76h2.97v1.04h-3.99v-6.43h0Z"/>
    <path d="M67.48,33.6h-2.02l-.64,1.81h-1.09l2.22-6.43h1.02l2.22,6.43h-1.09l-.64-1.81s.02,0,.02,0ZM65.83,32.56h1.29l-.64-1.8-.66,1.8h.01Z"/>
    <path d="M71.57,35.41l-2.04-6.43h1.06l1.38,4.29,1.36-4.29h1.09l-2.06,6.43s-.79,0-.79,0Z"/>
    <path d="M78.03,35.41h-1.02v-2.8l-2.27-3.63h1.22l1.54,2.48,1.56-2.48h1.2l-2.24,3.63v2.8h0Z"/>
    <path d="M49.59,45.01l-2.04-6.43h1.06l1.38,4.29,1.36-4.29h1.09l-2.06,6.43h-.79Z"/>
    <path d="M53.28,38.58h3.79v1.02h-2.77v1.58h1.87v1.04h-1.87v1.76h2.97v1.04h-3.99v-6.43h0Z"/>
    <path d="M61.6,42.21h-2.35v2.8h-1.01v-6.43h1.01v2.6h2.35v-2.6h1.02v6.43h-1.02v-2.8Z"/>
    <path d="M63.98,38.58h1.03v6.43h-1.03v-6.43Z"/>
    <path d="M66.27,41.78c0-.9.18-3.32,2.37-3.32.93,0,1.57.38,2.01,1.31l-.95.41c-.33-.47-.49-.68-1.06-.68-1.35,0-1.33,1.88-1.33,2.28s-.02,2.3,1.38,2.3c.49,0,.77-.3.99-.75l.97.36c-.36.89-.97,1.42-1.94,1.42-2.31,0-2.44-2.56-2.44-3.34h0Z"/>
    <path d="M71.89,38.58h1.01v5.48h2.97v.95h-3.99v-6.43s.01,0,0,0h0Z"/>
    <path d="M76.73,38.58h3.79v1.02h-2.77v1.58h1.87v1.04h-1.87v1.76h2.97v1.04h-3.99v-6.43h0Z"/>
    <path d="M81.28,43.5l.97-.36c.27.61.77.95,1.38.95s.99-.41.99-.95c0-.86-.99-.99-1.83-1.33-.38-.16-1.24-.54-1.24-1.6,0-1.26.86-1.73,2.01-1.73.9,0,1.51.52,1.83,1.31l-.9.27c-.15-.29-.46-.56-1-.56s-.94.22-.94.65c0,.6.52.72,1.36.98.86.27,1.75.66,1.75,2.04s-1.13,1.96-2.03,1.96c-1.11,0-1.92-.65-2.35-1.62h0Z"/>
  </g>
  <g>
    <path d="M11.18,51.28v-25.05l-4.19,1.28c-1.16.35-2.11-.95-1.42-1.95l8.65-12.48,8.5,12.46c.68.99-.27,2.29-1.42,1.94l-3.95-1.19v24.97h-6.16v.02h0Z"/>
    <path d="M37.32,13.1v25.05l4.19-1.28c1.16-.35,2.11.95,1.42,1.95l-8.65,12.48-8.5-12.46c-.68-.99.27-2.29,1.42-1.94l3.95,1.19V13.1h6.17Z"/>
  </g>
</svg>