<?xml version="1.0" encoding="UTF-8"?>
<svg id="Layer_1" xmlns="http://www.w3.org/2000/svg" width="127.58" height="31.78" version="1.1" viewBox="0 0 127.58 31.78">
  <!-- Generator: Adobe Illustrator 29.4.0, SVG Export Plug-In . SVG Version: 2.1.0 Build 152)  -->
  <defs>
    <style>
      .st0 {
        fill: #ffe40d;
      }
    </style>
  </defs>
  <path d="M0,0v31.78h127.58V0H0ZM125.08,29.28H2.5V2.5h122.58v26.78Z"/>
  <rect class="st0" x="2.5" y="2.5" width="122.58" height="26.78"/>
  <g>
    <g>
      <path d="M7.01,18.09v-7.45h1.51v7.55c0,.99.58,1.66,1.47,1.66.81,0,1.4-.66,1.4-1.66v-7.55h1.51v7.47c0,2.39-1.85,3.21-2.91,3.21-.97,0-2.98-.63-2.98-3.23Z"/>
      <path d="M19.37,16.39h-2.87v4.75h-1.51v-10.5h1.51v4.27h2.87v-4.27h1.51v10.5h-1.51v-4.75Z"/>
      <path d="M24.5,14.77h2.11v1.44h-2.11v4.94h-1.51v-10.5h5.36v1.47h-3.84v2.65Z"/>
    </g>
    <g>
      <path d="M39.19,13.44c-.15-1.03-.55-1.51-1.26-1.51-1.22,0-1.67.96-1.67,3.68,0,3.02.52,4.24,1.81,4.24.89,0,1.11-.74,1.11-1.51h1.52c-.04,1.73-1.15,2.98-2.63,2.98-2.26,0-3.26-1.8-3.26-5.67,0-3.39,1.07-5.19,3.14-5.19,1.92,0,2.69,1.75,2.74,2.98h-1.52Z"/>
      <path d="M46.99,16.39h-2.87v4.75h-1.51v-10.5h1.51v4.27h2.87v-4.27h1.51v10.5h-1.51v-4.75Z"/>
      <path d="M54.31,18.27h-2.25l-.7,2.87h-1.51l2.62-10.5h1.48l2.62,10.5h-1.51l-.74-2.87ZM52.43,16.79h1.51l-.78-3.02-.74,3.02Z"/>
      <path d="M59.41,14.1v7.04h-1.51v-10.5h1.51l2.87,6.3v-6.3h1.51v10.5h-1.14l-3.24-7.04Z"/>
      <path d="M67.4,14.1v7.04h-1.51v-10.5h1.51l2.87,6.3v-6.3h1.51v10.5h-1.14l-3.24-7.04Z"/>
      <path d="M73.88,10.64h4.95v1.47h-3.44v2.65h2.18v1.44h-2.18v3.46h3.84v1.47h-5.36v-10.5Z"/>
      <path d="M80.86,10.64h1.51v9.1h3.84v1.4h-5.36v-10.5Z"/>
    </g>
  </g>
</svg>