<?xml version="1.0" encoding="UTF-8"?>
<svg id="Layer_1" xmlns="http://www.w3.org/2000/svg" width="63.82" height="63.83" version="1.1" viewBox="0 0 63.82 63.83">
  <!-- Generator: Adobe Illustrator 29.4.0, SVG Export Plug-In . SVG Version: 2.1.0 Build 152)  -->
  <defs>
    <style>
      .st0 {
        fill: #ffe40d;
      }
    </style>
  </defs>
  <path d="M0,0v63.83h63.82V0H0ZM61.32,61.33H2.5V2.5h58.82v58.83Z"/>
  <rect class="st0" x="2.5" y="2.5" width="58.82" height="58.83"/>
  <g>
    <path d="M20.46,14.22v-6.74h1.66v6.74c0,1.36.77,2.25,1.92,2.25s1.92-.88,1.92-2.25v-6.74h1.66v6.74c0,3.32-2.55,3.94-3.57,3.94-.93,0-3.57-.55-3.57-3.94Z"/>
    <path d="M34.37,13.41h-3.83v4.57h-1.66V7.48h1.66v4.24h3.83v-4.24h1.66v10.5h-1.66v-4.57Z"/>
    <path d="M38.96,11.72h3.05v1.69h-3.05v4.57h-1.66V7.48h6.51v1.66h-4.86v2.58Z"/>
  </g>
  <g>
    <path d="M4.43,31.37c0-1.44.29-5.29,3.78-5.29,1.49,0,2.5.6,3.2,2.09l-1.51.65c-.52-.75-.79-1.08-1.69-1.08-2.15,0-2.12,2.99-2.12,3.63s-.04,3.67,2.19,3.67c.78,0,1.23-.47,1.58-1.19l1.55.58c-.58,1.43-1.55,2.26-3.1,2.26-3.69,0-3.88-4.08-3.88-5.32Z"/>
    <path d="M17.89,32.06h-3.74v4.46h-1.62v-10.25h1.62v4.14h3.74v-4.14h1.62v10.25h-1.62v-4.46Z"/>
    <path d="M26.24,33.64h-3.22l-1.01,2.88h-1.74l3.55-10.25h1.63l3.55,10.25h-1.74l-1.01-2.88ZM23.6,31.98h2.06l-1.01-2.88-1.05,2.88Z"/>
    <path d="M31.38,29.57v6.94h-1.62v-10.25h1.62l3.74,6.55v-6.55h1.62v10.25h-1.44l-3.92-6.94Z"/>
    <path d="M39.58,29.57v6.94h-1.62v-10.25h1.62l3.74,6.55v-6.55h1.62v10.25h-1.44l-3.92-6.94Z"/>
    <path d="M46.17,26.26h6.04v1.62h-4.42v2.52h2.98v1.65h-2.98v2.81h4.74v1.65h-6.36v-10.25Z"/>
    <path d="M53.4,26.26h1.62v8.74h4.74v1.51h-6.36v-10.25Z"/>
  </g>
</svg>