<?xml version="1.0" encoding="UTF-8"?>
<svg id="uuid-1ceed505-f446-4c24-9922-e588c47b3672" xmlns="http://www.w3.org/2000/svg" width="64.15" height="106.92" version="1.1" viewBox="0 0 64.15 106.92">
  <!-- Generator: Adobe Illustrator 29.4.0, SVG Export Plug-In . SVG Version: 2.1.0 Build 152)  -->
  <defs>
    <style>
      .st0 {
        isolation: isolate;
      }

      .st1 {
        fill: #ed1c24;
      }

      .st2 {
        fill: #fff;
      }
    </style>
  </defs>
  <g>
    <path class="st2" d="M6.21.25h51.73c3.29,0,5.96,2.67,5.96,5.96v94.5c0,3.29-2.67,5.96-5.96,5.96H6.21c-3.29,0-5.96-2.67-5.96-5.96V6.21C.25,2.92,2.92.25,6.21.25Z"/>
    <path d="M57.94,106.92H6.21c-3.42,0-6.21-2.79-6.21-6.21V6.21C0,2.79,2.79,0,6.21,0h51.73c3.42,0,6.21,2.79,6.21,6.21v94.5c0,3.42-2.79,6.21-6.21,6.21ZM6.21.5C3.06.5.5,3.06.5,6.21v94.5c0,3.15,2.56,5.71,5.71,5.71h51.73c3.15,0,5.71-2.56,5.71-5.71V6.21c0-3.15-2.56-5.71-5.71-5.71H6.21Z"/>
  </g>
  <path class="st1" d="M32.07,4.3C14.68,4.3.59,18.39.59,35.78s14.09,31.49,31.48,31.49,31.49-14.1,31.49-31.49S49.46,4.3,32.07,4.3ZM32.07,60.67c-13.75,0-24.89-11.14-24.89-24.89s11.14-24.89,24.89-24.89,24.89,11.14,24.89,24.89-11.14,24.89-24.89,24.89Z"/>
  <g>
    <path d="M13.12,78.42v5.53h-2v-12.7h4.59c2.91,0,3.78,2.33,3.78,3.57,0,.47-.17,2.33-1.97,3.18l2.24,5.95h-2.18l-2.05-5.53h-2.41ZM15.64,76.37c1.59,0,1.84-1.15,1.84-1.56,0-.55-.41-1.56-1.75-1.56h-2.62v3.12h2.52Z"/>
    <path d="M30.52,77.6c0,.46.1,6.57-4.51,6.57s-4.51-6.11-4.51-6.57-.1-6.57,4.51-6.57,4.51,6.11,4.51,6.57ZM26.03,82.12c1.37,0,2.48-1.3,2.48-4.52s-1.11-4.52-2.48-4.52-2.48,1.29-2.48,4.52,1.11,4.52,2.48,4.52Z"/>
    <path d="M39.43,80.38h-3.99l-1.26,3.56h-2.15l4.39-12.7h2.02l4.39,12.7h-2.15l-1.25-3.56ZM36.16,78.33h2.55l-1.26-3.56-1.3,3.56Z"/>
    <path d="M44.59,83.95v-12.7h4.58c3.2,0,4.06,4.22,4.06,6.06,0,4.76-2.45,6.63-4.05,6.63h-4.59ZM48.86,73.26h-2.27v8.64h2.13c1.85,0,2.45-2.24,2.45-4.63,0-1.14-.32-4.01-2.31-4.01Z"/>
    <path d="M17.63,103.05l-2.01-8.15-1.97,8.15h-1.79l-1.88-12.7h2.06l.98,6.68,1.61-6.68h1.97l1.65,6.68.98-6.68h2.06l-1.88,12.7h-1.79Z"/>
    <path d="M31.84,96.7c0,.46.1,6.57-4.51,6.57s-4.51-6.12-4.51-6.57-.1-6.57,4.51-6.57,4.51,6.11,4.51,6.57ZM27.35,101.22c1.37,0,2.48-1.3,2.48-4.52s-1.11-4.52-2.48-4.52-2.48,1.29-2.48,4.52,1.11,4.52,2.48,4.52Z"/>
    <path d="M36.39,97.52v5.53h-2v-12.7h4.59c2.91,0,3.78,2.33,3.78,3.57,0,.47-.17,2.33-1.97,3.18l2.24,5.95h-2.18l-2.05-5.53h-2.41ZM38.91,95.48c1.59,0,1.84-1.15,1.84-1.56,0-.55-.41-1.56-1.75-1.56h-2.62v3.12h2.52Z"/>
    <path d="M48.35,97.04l-1.34,1.65v4.36h-2.01v-12.7h2.01v5.03l4.02-5.03h2.59l-3.93,4.95,4.2,7.75h-2.32l-3.22-6.01Z"/>
  </g>
  <g class="st0">
    <g class="st0">
      <path d="M13.83,29.72h-1.76v-2.46h.2c.81,0,1.69-.48,2.24-1.23h2.44v19.51h-3.12v-15.81Z"/>
      <path d="M34.67,35.78c0,.7.15,10.1-6.93,10.1s-6.93-9.4-6.93-10.1-.15-10.09,6.93-10.09,6.93,9.39,6.93,10.09ZM27.77,42.73c2.1,0,3.81-1.99,3.81-6.95s-1.71-6.95-3.81-6.95-3.81,1.99-3.81,6.95,1.71,6.95,3.81,6.95Z"/>
      <path d="M52.03,35.78c0,.7.15,10.1-6.93,10.1s-6.93-9.4-6.93-10.1-.15-10.09,6.93-10.09,6.93,9.39,6.93,10.09ZM45.13,42.73c2.1,0,3.81-1.99,3.81-6.95s-1.71-6.95-3.81-6.95-3.81,1.99-3.81,6.95,1.71,6.95,3.81,6.95Z"/>
    </g>
  </g>
</svg>