<?xml version="1.0" encoding="UTF-8"?>
<svg id="uuid-9d8b08ff-a2f7-45da-b5be-e8e5f5fd3387" xmlns="http://www.w3.org/2000/svg" width="793.93" height="595.5" version="1.1" viewBox="0 0 793.93 595.5">
  <!-- Generator: Adobe Illustrator 29.4.0, SVG Export Plug-In . SVG Version: 2.1.0 Build 152)  -->
  <defs>
    <style>
      .st0 {
        stroke: #534b49;
        stroke-miterlimit: 10;
        stroke-width: .22px;
      }

      .st0, .st1 {
        fill: #fff;
      }

      .st2 {
        fill-rule: evenodd;
      }

      .st3 {
        fill: red;
      }
    </style>
  </defs>
  <rect class="st0" x=".11" y=".11" width="793.71" height="595.29" rx="39.71" ry="39.71"/>
  <g>
    <path d="M73.42,379.16h10.78c-.66,5.83-2.83,10.21-6.51,13.15s-8.48,4.4-14.39,4.4c-7.41,0-13.01-2-16.83-6.01-3.81-4.01-5.72-9.83-5.72-17.45,0-8.54,2.06-14.88,6.18-19,4.12-4.12,9.44-6.18,15.97-6.18s11.61,1.6,15.12,4.8c1.8,1.62,3.19,3.44,4.17,5.46.99,2.02,1.48,4.25,1.48,6.71h-10.65c-.39-2.67-1.39-4.68-2.99-6.01-1.6-1.34-3.8-2-6.61-2-3.29,0-5.94,1.29-7.95,3.88-2.02,2.59-3.02,6.57-3.02,11.96,0,4.51.97,8.13,2.92,10.84,1.95,2.72,4.74,4.08,8.38,4.08,2.8,0,5.02-.79,6.64-2.37,1.62-1.58,2.63-3.66,3.02-6.24Z"/>
    <path d="M112.07,396.71c-7.49,0-13.24-2.23-17.25-6.7-4.01-4.47-6.01-10.34-6.01-17.62s2-13.15,6.01-17.62c4.01-4.47,9.76-6.7,17.25-6.7s13.24,2.25,17.25,6.74c4.01,4.49,6.01,10.35,6.01,17.58s-1.98,13.15-5.95,17.62c-3.97,4.47-9.74,6.7-17.32,6.7ZM112.07,387.77c3.9,0,6.8-1.38,8.71-4.14,1.91-2.76,2.86-6.51,2.86-11.24s-.94-8.59-2.83-11.31c-1.88-2.72-4.8-4.08-8.74-4.08s-6.68,1.29-8.61,3.88c-1.93,2.59-2.89,6.42-2.89,11.5s.96,8.86,2.89,11.47c1.93,2.61,4.8,3.91,8.61,3.91Z"/>
    <path d="M154.2,366.61l-.13,28.79h-10.85v-46.01h10.98l18.14,28.59.2-28.59h10.85v46.01h-11.04l-18.14-28.79Z"/>
    <path d="M190.88,380.48h10.98c0,2.06.72,3.81,2.17,5.26,1.58,1.36,3.92,2.04,7.03,2.04,2.72,0,4.77-.37,6.15-1.12,1.38-.74,2.07-1.95,2.07-3.62,0-1.53-.62-2.79-1.87-3.78-1.25-.99-4.76-2.12-10.52-3.42-5.76-1.29-9.62-3-11.57-5.13-1.95-2.12-2.92-5.14-2.92-9.04,0-4.43,1.64-7.82,4.93-10.19,1.71-1.14,3.7-1.99,5.98-2.56,2.28-.57,4.93-.85,7.95-.85,5.3,0,9.54,1.28,12.72,3.84,3.18,2.56,4.77,5.93,4.77,10.09h-10.25c0-1.49-.77-2.69-2.3-3.61-1.4-.92-3.26-1.38-5.59-1.38-2.19,0-3.92.38-5.19,1.15-1.27.77-1.91,1.85-1.91,3.25,0,1.27.56,2.36,1.68,3.25,1.12.9,3.58,1.7,7.39,2.4,7.14,1.4,11.9,3.21,14.26,5.42,2.37,2.21,3.55,5.18,3.55,8.91,0,4.64-1.6,8.36-4.8,11.14-3.2,2.78-8.08,4.17-14.66,4.17-3.11,0-5.87-.33-8.28-.99-2.41-.66-4.54-1.69-6.38-3.09-3.59-2.8-5.39-6.86-5.39-12.16Z"/>
    <path d="M247.6,358.33h-13.93v-8.94h38.65v8.94h-13.87v37.07h-10.85v-37.07Z"/>
    <path d="M278.16,395.4v-46.01h23.53c4.86,0,8.69,1.13,11.47,3.38,2.78,2.26,4.17,5.49,4.17,9.7,0,2.85-.67,5.25-2,7.2-1.34,1.95-3.34,3.38-6.01,4.3,2.02.75,3.59,1.91,4.73,3.48.57.79,1.02,1.84,1.35,3.16s.49,2.87.49,4.67c0,3.68.13,6.05.39,7.1.26,1.05.72,2.06,1.38,3.02h-10.98l-.78-1.18c-.09-.31-.47-3.81-1.12-10.52,0-1.58-.64-2.85-1.91-3.81-1.27-.96-3.11-1.45-5.52-1.45h-8.35v16.96h-10.85ZM289.01,358.33v11.7h9.92c2.15,0,3.85-.47,5.09-1.41s1.87-2.4,1.87-4.37-.56-3.4-1.68-4.4c-1.12-1.01-3.01-1.51-5.69-1.51h-9.53Z"/>
    <path d="M324.76,349.39h10.85v26.82c0,3.9.66,6.83,1.97,8.81,1.4,1.84,3.77,2.76,7.1,2.76s5.51-.94,6.93-2.83c1.42-1.88,2.14-4.8,2.14-8.74v-26.82h10.85v28.59c0,5.92-1.6,10.52-4.8,13.8-3.2,3.29-8.24,4.93-15.12,4.93s-11.97-1.63-15.15-4.9c-3.18-3.26-4.77-7.88-4.77-13.84v-28.59Z"/>
    <path d="M404.62,379.16h10.78c-.66,5.83-2.83,10.21-6.51,13.15s-8.48,4.4-14.39,4.4c-7.41,0-13.01-2-16.83-6.01-3.81-4.01-5.72-9.83-5.72-17.45,0-8.54,2.06-14.88,6.18-19,4.12-4.12,9.44-6.18,15.97-6.18s11.61,1.6,15.12,4.8c1.8,1.62,3.19,3.44,4.17,5.46.99,2.02,1.48,4.25,1.48,6.71h-10.65c-.39-2.67-1.39-4.68-2.99-6.01-1.6-1.34-3.8-2-6.61-2-3.29,0-5.94,1.29-7.95,3.88-2.02,2.59-3.02,6.57-3.02,11.96,0,4.51.97,8.13,2.92,10.84,1.95,2.72,4.74,4.08,8.38,4.08,2.8,0,5.02-.79,6.64-2.37,1.62-1.58,2.63-3.66,3.02-6.24Z"/>
    <path d="M432.03,358.33h-13.93v-8.94h38.65v8.94h-13.87v37.07h-10.84v-37.07Z"/>
    <path d="M462.59,349.39h10.84v46.01h-10.84v-46.01Z"/>
    <path d="M504.66,396.71c-7.49,0-13.24-2.23-17.25-6.7-4.01-4.47-6.01-10.34-6.01-17.62s2-13.15,6.01-17.62c4.01-4.47,9.76-6.7,17.25-6.7s13.24,2.25,17.25,6.74c4.01,4.49,6.01,10.35,6.01,17.58s-1.98,13.15-5.95,17.62-9.74,6.7-17.32,6.7ZM504.66,387.77c3.9,0,6.8-1.38,8.71-4.14s2.86-6.51,2.86-11.24-.94-8.59-2.83-11.31c-1.88-2.72-4.8-4.08-8.74-4.08s-6.68,1.29-8.61,3.88c-1.93,2.59-2.89,6.42-2.89,11.5s.96,8.86,2.89,11.47c1.93,2.61,4.8,3.91,8.61,3.91Z"/>
    <path d="M546.79,366.61l-.13,28.79h-10.84v-46.01h10.98l18.14,28.59.2-28.59h10.84v46.01h-11.04l-18.14-28.79Z"/>
    <path d="M609.1,380.48h10.98c0,2.06.72,3.81,2.17,5.26,1.58,1.36,3.92,2.04,7.03,2.04,2.72,0,4.76-.37,6.15-1.12,1.38-.74,2.07-1.95,2.07-3.62,0-1.53-.62-2.79-1.87-3.78-1.25-.99-4.75-2.12-10.52-3.42-5.76-1.29-9.62-3-11.57-5.13-1.95-2.12-2.92-5.14-2.92-9.04,0-4.43,1.64-7.82,4.93-10.19,1.71-1.14,3.7-1.99,5.98-2.56,2.28-.57,4.93-.85,7.95-.85,5.3,0,9.54,1.28,12.72,3.84s4.77,5.93,4.77,10.09h-10.25c0-1.49-.77-2.69-2.3-3.61-1.4-.92-3.27-1.38-5.59-1.38-2.19,0-3.92.38-5.19,1.15-1.27.77-1.91,1.85-1.91,3.25,0,1.27.56,2.36,1.68,3.25,1.12.9,3.58,1.7,7.39,2.4,7.14,1.4,11.9,3.21,14.26,5.42,2.37,2.21,3.55,5.18,3.55,8.91,0,4.64-1.6,8.36-4.8,11.14-3.2,2.78-8.08,4.17-14.66,4.17-3.11,0-5.87-.33-8.28-.99-2.41-.66-4.54-1.69-6.38-3.09-3.59-2.8-5.39-6.86-5.39-12.16Z"/>
    <path d="M655.97,349.39h10.84v46.01h-10.84v-46.01Z"/>
    <path d="M686.79,358.33h-13.93v-8.94h38.65v8.94h-13.87v37.07h-10.84v-37.07Z"/>
    <path d="M728.2,367.66h22.48v8.48h-22.48v10.32h26.16v8.94h-37v-46.01h36.35v8.94h-25.5v9.33Z"/>
    <path d="M141.18,428.26h19.78c7.54,0,13.15,2.07,16.83,6.21s5.52,9.72,5.52,16.73c0,7.76-1.99,13.54-5.98,17.35-3.99,3.81-9.77,5.72-17.35,5.72h-18.8v-46.01ZM152.03,437.2v28.13h6.9c4.21,0,7.37-1.13,9.5-3.38,2.12-2.26,3.19-5.77,3.19-10.55s-1.01-8.06-3.02-10.52c-2.02-2.45-5.02-3.68-9-3.68h-7.56Z"/>
    <path d="M212.3,475.59c-7.49,0-13.24-2.23-17.25-6.7-4.01-4.47-6.01-10.34-6.01-17.62s2-13.15,6.01-17.62c4.01-4.47,9.76-6.7,17.25-6.7s13.24,2.25,17.25,6.74c4.01,4.49,6.01,10.35,6.01,17.58s-1.98,13.15-5.95,17.62c-3.97,4.47-9.74,6.7-17.32,6.7ZM212.3,466.65c3.9,0,6.8-1.38,8.71-4.14,1.91-2.76,2.86-6.51,2.86-11.24s-.94-8.59-2.83-11.31c-1.88-2.72-4.8-4.08-8.74-4.08s-6.68,1.29-8.61,3.88c-1.93,2.59-2.89,6.42-2.89,11.5s.96,8.86,2.89,11.47c1.93,2.61,4.8,3.91,8.61,3.91Z"/>
    <path d="M280.07,445.48l-.13,28.79h-10.85v-46.01h10.98l18.14,28.59.2-28.59h10.85v46.01h-11.04l-18.14-28.79Z"/>
    <path d="M340.47,475.59c-7.49,0-13.24-2.23-17.25-6.7-4.01-4.47-6.01-10.34-6.01-17.62s2-13.15,6.01-17.62c4.01-4.47,9.76-6.7,17.25-6.7s13.24,2.25,17.25,6.74c4.01,4.49,6.01,10.35,6.01,17.58s-1.98,13.15-5.95,17.62c-3.97,4.47-9.74,6.7-17.32,6.7ZM340.47,466.65c3.9,0,6.8-1.38,8.71-4.14,1.91-2.76,2.86-6.51,2.86-11.24s-.94-8.59-2.83-11.31c-1.88-2.72-4.8-4.08-8.74-4.08s-6.68,1.29-8.61,3.88c-1.93,2.59-2.89,6.42-2.89,11.5s.96,8.86,2.89,11.47c1.93,2.61,4.8,3.91,8.61,3.91Z"/>
    <path d="M381.49,437.2h-13.93v-8.94h38.65v8.94h-13.87v37.07h-10.85v-37.07Z"/>
    <path d="M448.53,446.53h22.48v8.48h-22.48v10.32h26.16v8.94h-37v-46.01h36.35v8.94h-25.5v9.33Z"/>
    <path d="M492.17,445.48l-.13,28.79h-10.84v-46.01h10.98l18.14,28.59.2-28.59h10.84v46.01h-11.04l-18.14-28.79Z"/>
    <path d="M541.34,437.2h-13.93v-8.94h38.65v8.94h-13.87v37.07h-10.84v-37.07Z"/>
    <path d="M582.75,446.53h22.48v8.48h-22.48v10.32h26.16v8.94h-37v-46.01h36.35v8.94h-25.5v9.33Z"/>
    <path d="M615.41,474.27v-46.01h23.53c4.86,0,8.69,1.13,11.47,3.38,2.78,2.26,4.17,5.49,4.17,9.7,0,2.85-.67,5.25-2,7.2-1.34,1.95-3.34,3.38-6.01,4.3,2.01.75,3.59,1.91,4.73,3.48.57.79,1.02,1.84,1.35,3.16.33,1.31.49,2.87.49,4.67,0,3.68.13,6.05.39,7.1.26,1.05.72,2.06,1.38,3.02h-10.98l-.79-1.18c-.09-.31-.47-3.81-1.12-10.52,0-1.58-.64-2.85-1.91-3.81-1.27-.96-3.11-1.45-5.52-1.45h-8.35v16.96h-10.84ZM626.26,437.2v11.7h9.93c2.15,0,3.84-.47,5.09-1.41s1.87-2.4,1.87-4.37-.56-3.4-1.68-4.4c-1.12-1.01-3.01-1.51-5.69-1.51h-9.53Z"/>
  </g>
  <path class="st2" d="M44.75,21.27h704.42c12.91,0,23.48,10.57,23.48,23.48v505.98c0,12.91-10.57,23.48-23.48,23.48H44.75c-12.91,0-23.48-10.57-23.48-23.48V44.75c0-12.91,10.57-23.48,23.48-23.48M44.75,13.34h704.42c17.28,0,31.42,14.14,31.42,31.42v505.98c0,17.28-14.14,31.42-31.42,31.42H44.75c-17.28,0-31.42-14.14-31.42-31.42V44.75c0-17.28,14.14-31.42,31.42-31.42h0Z"/>
  <path class="st2" d="M47.9,34.34h698.14c7,0,12.73,5.73,12.73,12.73v191.43H35.16V47.07c0-7,5.73-12.73,12.73-12.73"/>
  <path class="st1" d="M396.96,48.6h0c92.6,0,176.47,9.65,237.2,25.24,61.46,15.78,99.48,37.88,99.48,62.58h0c0,24.69-38.02,46.8-99.48,62.58-60.73,15.59-144.6,25.24-237.2,25.24h0c-92.6,0-176.47-9.65-237.2-25.24-61.46-15.78-99.48-37.88-99.48-62.58h0c0-24.69,38.02-46.8,99.48-62.58,60.73-15.59,144.6-25.24,237.2-25.24h0Z"/>
  <path class="st3" d="M396.96,52.33h0c-92.29,0-175.83,9.59-236.28,25.11-59.73,15.33-96.68,36.2-96.68,58.97h0c0,22.77,36.95,43.64,96.68,58.97,60.45,15.52,144,25.12,236.29,25.12h0c92.29,0,175.83-9.59,236.28-25.11,59.73-15.33,96.68-36.2,96.68-58.97h0c0-22.77-36.95-43.64-96.68-58.97-60.45-15.52-144-25.12-236.29-25.12"/>
  <path class="st1" d="M581.82,129.67h9.28c.99,0,2.93-.32,5.82-.96,1.46-.3,2.65-1.04,3.58-2.24.91-1.19,1.38-2.57,1.38-4.13,0-2.3-.73-4.06-2.19-5.29-1.46-1.24-4.19-1.86-8.21-1.86h-9.66v14.47h0ZM559.72,172.03v-71.19h36.67c6.8,0,12,.58,15.58,1.76,3.6,1.16,6.5,3.32,8.7,6.48,2.2,3.15,3.3,6.99,3.3,11.52,0,3.96-.85,7.36-2.52,10.23-1.69,2.87-4.01,5.19-6.95,6.98-1.89,1.13-4.46,2.07-7.72,2.8,2.62.88,4.53,1.76,5.74,2.64.8.58,1.97,1.82,3.51,3.73,1.54,1.92,2.57,3.38,3.08,4.43l10.64,20.64h-24.86l-11.75-21.76c-1.49-2.8-2.82-4.64-3.99-5.49-1.57-1.09-3.38-1.64-5.39-1.64h-1.94v28.89h-22.1v-.02h0ZM487.55,100.83h58.94v15.2h-36.9v11.32h34.23v14.52h-34.23v14.02h37.98v16.13h-60.02v-71.19h0ZM440.54,146.23v-14.8h33.98v30.35c-6.5,4.43-12.25,7.46-17.26,9.05-5.01,1.61-10.94,2.4-17.8,2.4-8.45,0-15.33-1.44-20.65-4.33-5.34-2.87-9.47-7.16-12.38-12.86-2.93-5.7-4.41-12.23-4.41-19.61,0-7.77,1.61-14.54,4.81-20.29,3.22-5.74,7.91-10.09,14.09-13.08,4.82-2.3,11.32-3.45,19.48-3.45s13.74.71,17.65,2.14c3.9,1.43,7.13,3.63,9.71,6.63,2.57,2.98,4.51,6.78,5.8,11.39l-21.22,3.78c-.88-2.69-2.37-4.74-4.46-6.17-2.07-1.43-4.74-2.14-7.97-2.14-4.82,0-8.67,1.67-11.54,5.02-2.87,3.36-4.31,8.65-4.31,15.91,0,7.71,1.46,13.21,4.36,16.51,2.88,3.3,6.93,4.96,12.12,4.96,2.45,0,4.81-.36,7.03-1.08,2.24-.71,4.81-1.92,7.67-3.63v-6.71h-14.7,0ZM322.04,100.83h20.55l26.8,39.38v-39.38h20.74v71.19h-20.74l-26.67-39.09v39.09h-20.69v-71.19h.01ZM283.73,144.87l-7.87-25.59-7.82,25.59h15.7-.01ZM288.34,160.27h-25.06l-3.45,11.75h-22.48l26.75-71.19h23.99l26.77,71.19h-23.02l-3.5-11.75h0ZM193.74,116.96v38.89h5.39c4.61,0,7.87-.5,9.81-1.53,1.94-1.01,3.46-2.8,4.57-5.34,1.09-2.54,1.64-6.66,1.64-12.37,0-7.54-1.23-12.7-3.68-15.48-2.47-2.78-6.55-4.18-12.25-4.18h-5.49,0ZM171.75,100.83h32.69c6.43,0,11.64.88,15.62,2.62,3.96,1.76,7.24,4.26,9.83,7.53,2.59,3.28,4.46,7.08,5.64,11.42,1.16,4.34,1.74,8.93,1.74,13.79,0,7.61-.86,13.51-2.6,17.7-1.72,4.19-4.13,7.71-7.21,10.53-3.07,2.83-6.37,4.72-9.9,5.67-4.82,1.29-9.2,1.94-13.11,1.94h-32.69v-71.19h0Z"/>
</svg>