<?xml version="1.0" encoding="UTF-8"?>
<svg id="uuid-9d8b08ff-a2f7-45da-b5be-e8e5f5fd3387" xmlns="http://www.w3.org/2000/svg" width="280.08mm" height="210.08mm" version="1.1" viewBox="0 0 793.92 595.49">
  <!-- Generator: Adobe Illustrator 29.4.0, SVG Export Plug-In . SVG Version: 2.1.0 Build 152)  -->
  <defs>
    <style>
      .st0 {
        fill: #1f1a17;
      }

      .st1 {
        stroke: #534b49;
        stroke-miterlimit: 10;
        stroke-width: .22px;
      }

      .st1, .st2 {
        fill: #fff;
      }

      .st3 {
        fill-rule: evenodd;
      }

      .st4 {
        fill: red;
      }
    </style>
  </defs>
  <rect class="st1" x=".11" y=".11" width="793.7" height="595.28" rx="39.71" ry="39.71"/>
  <path class="st0" d="M111.72,315.08c-1.03,7.17-3.86,12.72-8.48,16.66-4.62,3.94-10.59,5.92-17.9,5.92-8.75,0-15.82-2.85-21.18-8.55-5.37-5.7-8.05-13.2-8.05-22.5s2.73-17.39,8.19-23.15c5.47-5.76,12.78-8.64,21.93-8.64,7.26,0,13.19,1.91,17.79,5.72,4.59,3.81,7.21,9.01,7.87,15.61h-14.39c-.71-2.86-2.04-5.02-4.01-6.46-1.96-1.45-4.54-2.17-7.74-2.17-4.27,0-7.67,1.69-10.16,5.06-2.5,3.38-3.75,8-3.75,13.87s1.18,10.38,3.54,13.6,5.67,4.84,9.96,4.84c3.44,0,6.2-.84,8.27-2.52,2.08-1.67,3.37-4.11,3.88-7.29h14.23,0Z"/>
  <path class="st0" d="M118.14,306.19c0-9.7,2.69-17.37,8.07-23,5.37-5.63,12.67-8.46,21.88-8.46s16.58,2.82,22.02,8.47c5.42,5.66,8.14,13.31,8.14,22.98s-2.72,17.34-8.14,23c-5.44,5.65-12.78,8.47-22.02,8.47s-16.51-2.82-21.88-8.46c-5.38-5.63-8.07-13.3-8.07-23.01M133.71,306.19c0,6.09,1.23,10.75,3.72,13.99,2.48,3.25,6.04,4.87,10.67,4.87s8.24-1.62,10.75-4.87c2.51-3.24,3.76-7.9,3.76-13.99s-1.25-10.71-3.76-13.96-6.09-4.88-10.75-4.88-8.19,1.62-10.67,4.87c-2.48,3.24-3.72,7.9-3.72,13.98h0Z"/>
  <path class="st0" d="M187.4,336v-59.71h16.58l11.31,19.62c1.85,3.18,3.59,6.35,5.24,9.48,1.65,3.14,3.2,6.23,4.68,9.29-.22-4.51-.37-8.75-.49-12.69-.11-3.94-.17-7.42-.17-10.42v-15.28h14.79v59.71h-16.54l-11.75-20.19c-1.39-2.38-2.89-5.05-4.51-8-1.64-2.96-3.36-6.16-5.16-9.59.29,3.89.51,7.51.64,10.86.14,3.35.21,6.32.21,8.91v18h-14.83Z"/>
  <path class="st0" d="M248.29,316.17h14.72c.11,3.4,1.11,5.96,3.01,7.68,1.9,1.72,4.68,2.57,8.34,2.57,3.11,0,5.52-.51,7.23-1.54,1.71-1.02,2.57-2.48,2.57-4.35,0-.94-.21-1.78-.61-2.53-.42-.73-.99-1.3-1.72-1.67-1.11-.6-3.83-1.54-8.17-2.8-4.33-1.27-7.99-2.5-10.97-3.69-4.3-1.7-7.58-3.96-9.81-6.75-2.23-2.8-3.36-6.06-3.36-9.78,0-5.7,2.15-10.24,6.44-13.6,4.3-3.36,10.11-5.05,17.47-5.05s12.92,1.77,17.15,5.31c4.23,3.54,6.34,8.32,6.34,14.35h-14.43c-.32-2.78-1.3-4.84-2.94-6.16-1.65-1.33-4.01-1.99-7.1-1.99-2.46,0-4.47.51-6.01,1.52-1.54,1.01-2.32,2.3-2.32,3.87,0,2.64,3.68,5.15,11.02,7.5,1.33.43,2.34.75,3.05.97l.6.21c7.59,2.45,12.33,4.44,14.23,5.95,1.93,1.58,3.39,3.42,4.4,5.54,1,2.13,1.5,4.48,1.5,7.08,0,5.94-2.29,10.57-6.85,13.88s-10.96,4.97-19.2,4.97c-7.78,0-13.71-1.77-17.77-5.33-4.06-3.56-6.33-8.94-6.78-16.16"/>
  <polygon class="st0" points="319.95 336 319.95 288.41 302.8 288.41 302.8 276.29 352.42 276.29 352.42 288.41 335.28 288.41 335.28 336 319.95 336"/>
  <path class="st0" d="M359.08,336v-59.71h28.65c7.59,0,13.18,1.36,16.77,4.05,3.59,2.7,5.38,6.89,5.38,12.56,0,3.35-.76,6.23-2.3,8.61-1.53,2.39-3.9,4.4-7.13,6.02,2.62,1.01,4.48,2.37,5.56,4.08,1.08,1.72,1.71,4.73,1.87,9.06.08,1.2.17,2.85.25,4.9.18,4.82,1.01,7.6,2.48,8.36v2.06h-16.07c-.78-2.1-1.24-5-1.35-8.68-.1-3.67-.21-5.98-.32-6.93-.25-2.32-1.03-4.03-2.36-5.11-1.32-1.08-3.32-1.62-5.97-1.62h-10.24v22.33h-15.25l.03.02h0ZM374.33,301.86h11.42c3.08,0,5.35-.57,6.8-1.7,1.46-1.13,2.18-2.95,2.18-5.42,0-2.2-.71-3.82-2.11-4.88-1.42-1.07-3.57-1.61-6.46-1.61h-11.82v13.62h-.01Z"/>
  <path class="st0" d="M419.85,276.29h15.08v37.29c0,4.11.78,7.03,2.33,8.77,1.57,1.74,4.15,2.62,7.74,2.62s6.1-.87,7.64-2.62c1.54-1.74,2.32-4.66,2.32-8.77v-37.29h15.25v35.47c0,5-.49,8.98-1.46,11.96-.99,2.98-2.59,5.49-4.84,7.54-2.36,2.13-5.11,3.74-8.23,4.8-3.14,1.07-6.66,1.61-10.6,1.61s-7.45-.54-10.59-1.61c-3.12-1.07-5.87-2.67-8.23-4.8-2.28-2.08-3.91-4.61-4.93-7.6-1-2.99-1.5-6.96-1.5-11.9v-35.47h.02Z"/>
  <path class="st0" d="M534.71,315.08c-1.03,7.17-3.86,12.72-8.48,16.66s-10.59,5.92-17.9,5.92c-8.75,0-15.82-2.85-21.19-8.55-5.37-5.7-8.05-13.2-8.05-22.5s2.73-17.39,8.19-23.15c5.47-5.76,12.78-8.64,21.93-8.64,7.26,0,13.19,1.91,17.79,5.72,4.59,3.81,7.21,9.01,7.87,15.61h-14.39c-.71-2.86-2.04-5.02-4.01-6.46-1.96-1.45-4.54-2.17-7.74-2.17-4.27,0-7.67,1.69-10.16,5.06-2.5,3.38-3.75,8-3.75,13.87s1.18,10.38,3.54,13.6c2.36,3.22,5.67,4.84,9.96,4.84,3.44,0,6.2-.84,8.27-2.52,2.08-1.67,3.37-4.11,3.88-7.29h14.24Z"/>
  <polygon class="st0" points="555.6 336 555.6 288.41 538.46 288.41 538.46 276.29 588.08 276.29 588.08 288.41 570.93 288.41 570.93 336 555.6 336"/>
  <rect class="st0" x="595.19" y="276.29" width="15.29" height="59.71"/>
  <path class="st0" d="M620.14,306.19c0-9.7,2.69-17.37,8.07-23,5.37-5.63,12.67-8.46,21.88-8.46s16.58,2.82,22.02,8.47c5.42,5.66,8.14,13.31,8.14,22.98s-2.72,17.34-8.14,23c-5.44,5.65-12.78,8.47-22.02,8.47s-16.51-2.82-21.88-8.46c-5.38-5.63-8.07-13.3-8.07-23.01M635.71,306.19c0,6.09,1.23,10.75,3.72,13.99,2.48,3.25,6.03,4.87,10.67,4.87s8.24-1.62,10.75-4.87c2.51-3.24,3.76-7.9,3.76-13.99s-1.25-10.71-3.76-13.96-6.09-4.88-10.75-4.88-8.19,1.62-10.67,4.87c-2.48,3.24-3.72,7.9-3.72,13.98h0Z"/>
  <path class="st0" d="M689.4,336v-59.71h16.58l11.31,19.62c1.84,3.18,3.59,6.35,5.24,9.48,1.65,3.14,3.2,6.23,4.68,9.29-.22-4.51-.37-8.75-.49-12.69-.11-3.94-.17-7.42-.17-10.42v-15.28h14.79v59.71h-16.54l-11.75-20.19c-1.39-2.38-2.89-5.05-4.51-8-1.64-2.96-3.36-6.16-5.16-9.59.29,3.89.51,7.51.64,10.86.14,3.35.21,6.32.21,8.91v18h-14.83Z"/>
  <path class="st0" d="M307.3,404.41h14.72c.11,3.4,1.11,5.96,3.01,7.68,1.9,1.72,4.68,2.57,8.34,2.57,3.11,0,5.52-.51,7.23-1.54,1.71-1.02,2.57-2.48,2.57-4.35,0-.94-.21-1.79-.61-2.53-.42-.73-.99-1.3-1.72-1.67-1.11-.6-3.83-1.54-8.17-2.8-4.33-1.27-7.99-2.5-10.97-3.7-4.3-1.7-7.58-3.96-9.81-6.75-2.23-2.8-3.36-6.06-3.36-9.78,0-5.7,2.15-10.24,6.44-13.6,4.3-3.36,10.11-5.05,17.47-5.05s12.92,1.77,17.15,5.31c4.23,3.54,6.34,8.32,6.34,14.35h-14.43c-.32-2.78-1.3-4.84-2.94-6.16-1.65-1.33-4.01-1.99-7.1-1.99-2.46,0-4.47.51-6.01,1.52-1.54,1.01-2.32,2.3-2.32,3.87,0,2.64,3.68,5.15,11.02,7.5,1.33.43,2.34.75,3.05.97l.6.21c7.59,2.45,12.33,4.44,14.23,5.95,1.93,1.58,3.39,3.42,4.4,5.54,1,2.13,1.5,4.48,1.5,7.08,0,5.94-2.29,10.57-6.85,13.88s-10.96,4.97-19.2,4.97c-7.78,0-13.71-1.77-17.77-5.33s-6.33-8.94-6.78-16.16"/>
  <rect class="st0" x="367.33" y="364.53" width="15.29" height="59.71"/>
  <polygon class="st0" points="406.76 424.24 406.76 376.65 389.61 376.65 389.61 364.53 439.24 364.53 439.24 376.65 422.09 376.65 422.09 424.24 406.76 424.24"/>
  <polygon class="st0" points="445.98 424.24 445.98 364.53 491.47 364.53 491.47 376.77 461.3 376.77 461.3 387.32 488.86 387.32 488.86 399.28 461.3 399.28 461.3 412.03 492.44 412.03 492.44 424.24 445.98 424.24"/>
  <path class="st0" d="M70.85,453.11h8.8v21.75c0,2.4.45,4.1,1.36,5.12s2.42,1.53,4.52,1.53,3.56-.51,4.46-1.53,1.35-2.72,1.35-5.12v-21.75h8.89v20.69c0,2.91-.28,5.24-.85,6.97-.57,1.74-1.51,3.2-2.82,4.4-1.38,1.24-2.98,2.18-4.8,2.8-1.83.62-3.88.94-6.18.94s-4.35-.31-6.17-.94c-1.82-.62-3.42-1.56-4.8-2.8-1.33-1.21-2.28-2.69-2.87-4.43-.58-1.74-.87-4.06-.87-6.94v-20.69s-.02,0-.02,0Z"/>
  <path class="st0" d="M106.82,487.94v-34.83h9.67l6.6,11.45c1.08,1.86,2.1,3.71,3.06,5.53.96,1.83,1.87,3.63,2.73,5.42-.13-2.63-.22-5.1-.28-7.4s-.1-4.33-.1-6.08v-8.91h8.63v34.83h-9.65l-6.85-11.78c-.81-1.39-1.68-2.95-2.63-4.67-.95-1.73-1.96-3.59-3.01-5.59.17,2.27.3,4.38.37,6.34.08,1.95.12,3.69.12,5.2v10.5h-8.66,0Z"/>
  <path class="st0" d="M153.15,453.11h9.77l12.33,34.83h-9.6l-2.14-6.39h-11.66l-2,6.39h-9.27l12.57-34.83ZM153.97,474.34h7.64l-3.89-12.01-3.75,12.01Z"/>
  <path class="st0" d="M177.6,453.11h8.8v21.75c0,2.4.45,4.1,1.36,5.12s2.42,1.53,4.52,1.53,3.56-.51,4.46-1.53c.9-1.02,1.35-2.72,1.35-5.12v-21.75h8.89v20.69c0,2.91-.28,5.24-.85,6.97-.57,1.74-1.51,3.2-2.82,4.4-1.38,1.24-2.98,2.18-4.8,2.8-1.83.62-3.88.94-6.18.94s-4.35-.31-6.17-.94c-1.82-.62-3.42-1.56-4.8-2.8-1.33-1.21-2.28-2.69-2.87-4.43-.58-1.74-.87-4.06-.87-6.94v-20.69h-.02Z"/>
  <polygon class="st0" points="220.6 487.94 220.6 460.18 210.6 460.18 210.6 453.11 239.55 453.11 239.55 460.18 229.54 460.18 229.54 487.94 220.6 487.94"/>
  <polygon class="st0" points="243.48 487.94 243.48 453.11 252.46 453.11 252.46 465.48 264.7 465.48 264.7 453.11 273.68 453.11 273.68 487.94 264.7 487.94 264.7 473.26 252.46 473.26 252.46 487.94 243.48 487.94"/>
  <path class="st0" d="M279.14,470.55c0-5.66,1.57-10.13,4.71-13.42,3.13-3.29,7.39-4.93,12.76-4.93s9.67,1.65,12.84,4.94c3.16,3.3,4.75,7.77,4.75,13.41s-1.59,10.11-4.75,13.42c-3.17,3.29-7.45,4.94-12.84,4.94s-9.63-1.65-12.76-4.93c-3.14-3.29-4.71-7.76-4.71-13.42M288.22,470.55c0,3.55.72,6.27,2.17,8.16,1.45,1.9,3.52,2.84,6.22,2.84s4.81-.94,6.27-2.84c1.46-1.89,2.19-4.61,2.19-8.16s-.73-6.25-2.19-8.14c-1.46-1.9-3.55-2.85-6.27-2.85s-4.77.94-6.22,2.84c-1.45,1.89-2.17,4.61-2.17,8.15h0Z"/>
  <path class="st0" d="M319.54,487.94v-34.83h16.71c4.43,0,7.69.79,9.78,2.36,2.1,1.57,3.14,4.02,3.14,7.33,0,1.95-.45,3.63-1.34,5.02-.89,1.4-2.27,2.57-4.16,3.51,1.53.59,2.61,1.38,3.25,2.38.63,1,1,2.76,1.09,5.29.05.7.1,1.66.15,2.86.11,2.81.59,4.43,1.45,4.88v1.2h-9.37c-.45-1.23-.72-2.91-.79-5.06-.06-2.14-.12-3.49-.19-4.04-.15-1.36-.6-2.35-1.38-2.98-.77-.63-1.93-.94-3.48-.94h-5.97v13.03h-8.89,0ZM328.43,468.03h6.66c1.8,0,3.12-.33,3.97-.99s1.27-1.72,1.27-3.16c0-1.28-.41-2.23-1.23-2.85-.83-.62-2.08-.94-3.77-.94h-6.89v7.94h0Z"/>
  <rect class="st0" x="355.43" y="453.11" width="8.92" height="34.83"/>
  <path class="st0" d="M369.75,476.37h8.59c.06,1.99.65,3.48,1.76,4.48s2.73,1.5,4.86,1.5c1.81,0,3.22-.3,4.22-.9s1.5-1.45,1.5-2.53c0-.55-.12-1.04-.36-1.48-.24-.43-.57-.76-1-.98-.65-.35-2.23-.9-4.77-1.63-2.52-.74-4.66-1.46-6.4-2.16-2.51-.99-4.42-2.31-5.72-3.94s-1.96-3.54-1.96-5.71c0-3.33,1.25-5.97,3.76-7.93s5.9-2.95,10.19-2.95,7.53,1.03,10,3.1,3.7,4.85,3.7,8.37h-8.42c-.19-1.62-.76-2.82-1.72-3.59s-2.34-1.16-4.14-1.16c-1.43,0-2.61.3-3.5.89-.9.59-1.35,1.34-1.35,2.26,0,1.54,2.14,3,6.43,4.38.78.25,1.37.44,1.78.56l.35.12c4.43,1.43,7.19,2.59,8.3,3.47,1.12.92,1.97,1.99,2.57,3.23.58,1.24.87,2.62.87,4.13,0,3.46-1.34,6.17-4,8.1s-6.39,2.9-11.2,2.9c-4.54,0-8-1.03-10.37-3.11-2.37-2.07-3.69-5.21-3.96-9.43"/>
  <polygon class="st0" points="404.56 487.94 404.56 453.11 431.09 453.11 431.09 460.25 413.49 460.25 413.49 466.4 429.57 466.4 429.57 473.38 413.49 473.38 413.49 480.82 431.66 480.82 431.66 487.94 404.56 487.94"/>
  <path class="st0" d="M436.99,487.94v-34.83h14.92c5.16,0,9.13,1.5,11.89,4.5s4.14,7.32,4.14,12.95-1.42,10.17-4.28,13.05c-2.85,2.88-7.15,4.33-12.91,4.33h-13.76ZM445.98,480.63h4.86c2.76,0,4.79-.82,6.08-2.44,1.29-1.62,1.93-4.17,1.93-7.64s-.65-6.04-1.93-7.65c-1.29-1.61-3.32-2.42-6.08-2.42h-4.86v20.15h0Z"/>
  <path class="st0" d="M487.69,487.94v-34.83h15.98c4.05,0,7.13.94,9.24,2.8,2.12,1.87,3.18,4.57,3.18,8.1s-1.04,6.55-3.13,8.52c-2.09,1.98-5.09,2.97-9.01,2.97h-7.28v12.44h-8.98ZM496.67,468.48h5.93c1.61,0,2.8-.34,3.57-1.03.77-.69,1.15-1.75,1.15-3.18s-.4-2.43-1.2-3.12c-.8-.69-2.01-1.03-3.62-1.03h-5.84v8.35h.01Z"/>
  <polygon class="st0" points="521.14 487.94 521.14 453.11 547.68 453.11 547.68 460.25 530.08 460.25 530.08 466.4 546.16 466.4 546.16 473.38 530.08 473.38 530.08 480.82 548.24 480.82 548.24 487.94 521.14 487.94"/>
  <path class="st0" d="M553.53,487.94v-34.83h16.71c4.43,0,7.69.79,9.78,2.36,2.1,1.57,3.14,4.02,3.14,7.33,0,1.95-.45,3.63-1.34,5.02-.89,1.4-2.27,2.57-4.16,3.51,1.53.59,2.61,1.38,3.25,2.38.63,1,1,2.76,1.09,5.29.05.7.1,1.66.15,2.86.11,2.81.59,4.43,1.45,4.88v1.2h-9.37c-.45-1.23-.72-2.91-.79-5.06-.06-2.14-.12-3.49-.19-4.04-.15-1.36-.6-2.35-1.38-2.98-.77-.63-1.93-.94-3.48-.94h-5.97v13.03h-8.89ZM562.42,468.03h6.66c1.8,0,3.12-.33,3.97-.99s1.27-1.72,1.27-3.16c0-1.28-.41-2.23-1.23-2.85-.83-.62-2.08-.94-3.77-.94h-6.9v7.94h0Z"/>
  <path class="st0" d="M587.53,476.37h8.59c.06,1.99.65,3.48,1.76,4.48s2.73,1.5,4.86,1.5c1.81,0,3.22-.3,4.22-.9s1.5-1.45,1.5-2.53c0-.55-.12-1.04-.36-1.48-.24-.43-.57-.76-1-.98-.65-.35-2.23-.9-4.77-1.63-2.52-.74-4.66-1.46-6.4-2.16-2.51-.99-4.42-2.31-5.72-3.94s-1.96-3.54-1.96-5.71c0-3.33,1.25-5.97,3.76-7.93s5.9-2.95,10.19-2.95,7.53,1.03,10,3.1,3.7,4.85,3.7,8.37h-8.42c-.19-1.62-.76-2.82-1.72-3.59-.96-.77-2.34-1.16-4.14-1.16-1.43,0-2.61.3-3.5.89-.9.59-1.35,1.34-1.35,2.26,0,1.54,2.14,3,6.43,4.38.78.25,1.37.44,1.78.56l.35.12c4.43,1.43,7.19,2.59,8.3,3.47,1.12.92,1.97,1.99,2.57,3.23.58,1.24.87,2.62.87,4.13,0,3.46-1.34,6.17-4,8.1s-6.39,2.9-11.2,2.9c-4.54,0-8-1.03-10.37-3.11-2.37-2.07-3.69-5.21-3.96-9.43"/>
  <path class="st0" d="M620.88,470.55c0-5.66,1.57-10.13,4.71-13.42,3.13-3.29,7.39-4.93,12.76-4.93s9.67,1.65,12.84,4.94c3.16,3.3,4.75,7.77,4.75,13.41s-1.59,10.11-4.75,13.42c-3.17,3.29-7.45,4.94-12.84,4.94s-9.63-1.65-12.76-4.93c-3.14-3.29-4.71-7.76-4.71-13.42M629.96,470.55c0,3.55.72,6.27,2.17,8.16,1.45,1.9,3.52,2.84,6.22,2.84s4.81-.94,6.27-2.84c1.46-1.89,2.19-4.61,2.19-8.16s-.73-6.25-2.19-8.14c-1.46-1.9-3.55-2.85-6.27-2.85s-4.77.94-6.22,2.84c-1.45,1.89-2.17,4.61-2.17,8.15h0Z"/>
  <path class="st0" d="M661.28,487.94v-34.83h9.67l6.6,11.45c1.08,1.86,2.1,3.71,3.06,5.53.96,1.83,1.87,3.63,2.73,5.42-.13-2.63-.22-5.1-.28-7.4-.07-2.3-.1-4.33-.1-6.08v-8.91h8.63v34.83h-9.65l-6.85-11.78c-.81-1.39-1.68-2.95-2.63-4.67-.95-1.73-1.96-3.59-3.01-5.59.17,2.27.3,4.38.37,6.34.08,1.95.12,3.69.12,5.2v10.5h-8.66,0Z"/>
  <path class="st0" d="M696.8,476.37h8.59c.06,1.99.65,3.48,1.76,4.48s2.73,1.5,4.86,1.5c1.81,0,3.22-.3,4.22-.9s1.5-1.45,1.5-2.53c0-.55-.12-1.04-.36-1.48-.24-.43-.57-.76-1-.98-.65-.35-2.23-.9-4.77-1.63-2.52-.74-4.66-1.46-6.4-2.16-2.51-.99-4.42-2.31-5.72-3.94s-1.96-3.54-1.96-5.71c0-3.33,1.25-5.97,3.76-7.93s5.9-2.95,10.19-2.95,7.53,1.03,10,3.1,3.7,4.85,3.7,8.37h-8.42c-.19-1.62-.76-2.82-1.72-3.59-.96-.77-2.34-1.16-4.14-1.16-1.43,0-2.61.3-3.5.89-.9.59-1.35,1.34-1.35,2.26,0,1.54,2.14,3,6.43,4.38.78.25,1.37.44,1.78.56l.35.12c4.43,1.43,7.19,2.59,8.3,3.47,1.12.92,1.97,1.99,2.57,3.23.58,1.24.87,2.62.87,4.13,0,3.46-1.34,6.17-4,8.1s-6.39,2.9-11.2,2.9c-4.54,0-8-1.03-10.37-3.11-2.37-2.07-3.69-5.21-3.96-9.43"/>
  <polygon class="st0" points="274.98 545.22 274.98 510.39 283.77 510.39 283.77 523.68 296.2 510.39 306.93 510.39 292.8 525.03 307.27 545.22 296.6 545.22 286.78 531.27 283.77 534.28 283.77 545.22 274.98 545.22"/>
  <polygon class="st0" points="310.42 545.22 310.42 510.39 336.96 510.39 336.96 517.54 319.36 517.54 319.36 523.69 335.44 523.69 335.44 530.66 319.36 530.66 319.36 538.1 337.53 538.1 337.53 545.22 310.42 545.22"/>
  <polygon class="st0" points="342.86 545.22 342.86 510.39 369.39 510.39 369.39 517.54 351.79 517.54 351.79 523.69 367.87 523.69 367.87 530.66 351.79 530.66 351.79 538.1 369.96 538.1 369.96 545.22 342.86 545.22"/>
  <path class="st0" d="M375.29,545.22v-34.83h15.98c4.05,0,7.13.94,9.24,2.8,2.12,1.87,3.18,4.57,3.18,8.1s-1.04,6.55-3.13,8.52c-2.09,1.98-5.09,2.97-9.01,2.97h-7.28v12.44h-8.98,0ZM384.28,525.76h5.93c1.61,0,2.8-.34,3.57-1.03.77-.69,1.15-1.75,1.15-3.18s-.4-2.43-1.2-3.12c-.8-.69-2.01-1.03-3.62-1.03h-5.84v8.35h.01Z"/>
  <path class="st0" d="M421.62,527.84c0-5.66,1.57-10.13,4.71-13.42,3.13-3.29,7.39-4.93,12.76-4.93s9.67,1.65,12.84,4.94c3.16,3.3,4.75,7.77,4.75,13.41s-1.59,10.11-4.75,13.42c-3.17,3.29-7.45,4.94-12.84,4.94s-9.63-1.65-12.76-4.93c-3.14-3.29-4.71-7.76-4.71-13.42M430.7,527.84c0,3.55.72,6.27,2.17,8.16,1.45,1.9,3.52,2.84,6.22,2.84s4.81-.94,6.27-2.84c1.46-1.89,2.19-4.61,2.19-8.16s-.73-6.25-2.19-8.14c-1.46-1.9-3.55-2.85-6.27-2.85s-4.77.94-6.22,2.84c-1.45,1.89-2.17,4.61-2.17,8.15h0Z"/>
  <path class="st0" d="M461.84,510.39h8.8v21.75c0,2.4.45,4.1,1.36,5.12.91,1.02,2.42,1.53,4.52,1.53s3.56-.51,4.46-1.53,1.35-2.72,1.35-5.12v-21.75h8.89v20.69c0,2.91-.28,5.24-.85,6.97-.57,1.74-1.51,3.2-2.82,4.4-1.38,1.24-2.98,2.18-4.8,2.8-1.83.62-3.88.94-6.18.94s-4.35-.31-6.17-.94c-1.82-.62-3.42-1.56-4.8-2.8-1.33-1.21-2.28-2.69-2.87-4.43-.58-1.74-.87-4.06-.87-6.94v-20.69h-.02Z"/>
  <polygon class="st0" points="504.84 545.22 504.84 517.46 494.84 517.46 494.84 510.39 523.79 510.39 523.79 517.46 513.78 517.46 513.78 545.22 504.84 545.22"/>
  <path class="st3" d="M44.75,21.27h704.41c12.91,0,23.48,10.57,23.48,23.48v505.98c0,12.91-10.57,23.48-23.48,23.48H44.75c-12.91,0-23.48-10.57-23.48-23.48V44.75c0-12.91,10.57-23.48,23.48-23.48M44.75,13.34h704.41c17.28,0,31.42,14.14,31.42,31.42v505.98c0,17.28-14.14,31.42-31.42,31.42H44.75c-17.28,0-31.42-14.14-31.42-31.42V44.75c0-17.28,14.14-31.42,31.42-31.42h0Z"/>
  <path class="st3" d="M47.9,34.34h698.13c7,0,12.73,5.73,12.73,12.73v191.43H35.16V47.07c0-7,5.73-12.73,12.73-12.73"/>
  <path class="st2" d="M396.96,48.6h0c92.6,0,176.47,9.65,237.2,25.24,61.46,15.78,99.48,37.88,99.48,62.58h0c0,24.69-38.02,46.8-99.48,62.58-60.73,15.59-144.6,25.24-237.2,25.24h0c-92.6,0-176.47-9.65-237.2-25.24-61.46-15.78-99.48-37.88-99.48-62.58h0c0-24.69,38.02-46.8,99.48-62.58,60.73-15.59,144.6-25.24,237.2-25.24h0Z"/>
  <path class="st4" d="M396.96,52.33h0c-92.29,0-175.83,9.59-236.28,25.11-59.73,15.33-96.68,36.2-96.68,58.97h0c0,22.77,36.95,43.64,96.68,58.97,60.45,15.52,144,25.12,236.29,25.12h0c92.29,0,175.83-9.59,236.28-25.11,59.73-15.33,96.68-36.2,96.68-58.97h0c0-22.77-36.95-43.64-96.68-58.97-60.45-15.52-144-25.12-236.29-25.12"/>
  <path class="st2" d="M581.81,129.67h9.28c.99,0,2.93-.32,5.82-.96,1.46-.3,2.65-1.04,3.58-2.24.91-1.19,1.38-2.57,1.38-4.13,0-2.3-.73-4.06-2.19-5.29-1.46-1.24-4.19-1.86-8.21-1.86h-9.66v14.47h0ZM559.71,172.02v-71.19h36.67c6.8,0,12,.58,15.58,1.76,3.6,1.16,6.5,3.32,8.7,6.48,2.2,3.15,3.3,6.99,3.3,11.52,0,3.96-.85,7.36-2.52,10.23-1.69,2.87-4.01,5.19-6.95,6.98-1.89,1.13-4.46,2.07-7.72,2.8,2.62.88,4.53,1.76,5.74,2.64.8.58,1.97,1.82,3.51,3.73,1.54,1.92,2.57,3.38,3.08,4.43l10.64,20.64h-24.86l-11.75-21.76c-1.49-2.8-2.82-4.64-3.99-5.49-1.57-1.09-3.38-1.64-5.39-1.64h-1.94v28.89h-22.1v-.02h0ZM487.55,100.83h58.94v15.2h-36.9v11.32h34.23v14.52h-34.23v14.02h37.98v16.13h-60.02v-71.19h0ZM440.54,146.23v-14.8h33.98v30.35c-6.5,4.43-12.25,7.46-17.26,9.05-5.01,1.61-10.94,2.4-17.8,2.4-8.45,0-15.33-1.44-20.65-4.33-5.34-2.87-9.47-7.16-12.38-12.86-2.93-5.7-4.41-12.23-4.41-19.61,0-7.77,1.61-14.54,4.81-20.29,3.22-5.74,7.91-10.09,14.09-13.08,4.82-2.3,11.32-3.45,19.48-3.45s13.74.71,17.65,2.14c3.9,1.43,7.13,3.63,9.71,6.63,2.57,2.98,4.51,6.78,5.8,11.39l-21.22,3.78c-.88-2.69-2.37-4.74-4.46-6.17-2.07-1.43-4.74-2.14-7.97-2.14-4.82,0-8.67,1.67-11.54,5.02-2.87,3.36-4.31,8.65-4.31,15.91,0,7.71,1.46,13.21,4.36,16.51,2.88,3.3,6.93,4.96,12.12,4.96,2.45,0,4.81-.36,7.03-1.08,2.24-.71,4.81-1.92,7.67-3.63v-6.71h-14.7,0ZM322.04,100.83h20.55l26.8,39.38v-39.38h20.74v71.19h-20.74l-26.67-39.09v39.09h-20.69v-71.19h.01ZM283.73,144.87l-7.87-25.59-7.82,25.59h15.7-.01ZM288.34,160.27h-25.06l-3.45,11.75h-22.48l26.75-71.19h23.99l26.77,71.19h-23.02l-3.5-11.75h0ZM193.74,116.96v38.89h5.39c4.61,0,7.87-.5,9.81-1.53,1.94-1.01,3.46-2.8,4.57-5.34,1.09-2.54,1.64-6.66,1.64-12.37,0-7.54-1.23-12.7-3.68-15.48-2.47-2.78-6.55-4.18-12.25-4.18h-5.49,0ZM171.75,100.83h32.69c6.43,0,11.64.88,15.62,2.62,3.96,1.76,7.24,4.26,9.83,7.53,2.59,3.28,4.46,7.08,5.64,11.42,1.16,4.34,1.74,8.93,1.74,13.79,0,7.61-.86,13.51-2.6,17.7-1.72,4.19-4.13,7.71-7.21,10.53-3.07,2.83-6.37,4.72-9.9,5.67-4.82,1.29-9.2,1.94-13.11,1.94h-32.69v-71.19h0Z"/>
</svg>