<?xml version="1.0" encoding="UTF-8"?>
<svg id="uuid-2eac5963-a9d4-4f2c-9bf2-46f20e006119" xmlns="http://www.w3.org/2000/svg" width="280.08mm" height="210.08mm" version="1.1" viewBox="0 0 793.92 595.49">
  <!-- Generator: Adobe Illustrator 29.4.0, SVG Export Plug-In . SVG Version: 2.1.0 Build 152)  -->
  <defs>
    <style>
      .st0 {
        stroke: #534b49;
        stroke-miterlimit: 10;
        stroke-width: .22px;
      }

      .st0, .st1 {
        fill: #fff;
      }

      .st2 {
        fill-rule: evenodd;
      }

      .st3 {
        fill: red;
      }
    </style>
  </defs>
  <rect class="st0" x=".11" y=".11" width="793.7" height="595.28" rx="39.71" ry="39.71"/>
  <polygon points="52.72 412.83 52.72 327.51 108.63 327.51 108.63 345.23 72.56 345.23 72.56 362.91 103.87 362.91 103.87 380.58 72.56 380.58 72.56 412.83 52.72 412.83"/>
  <polygon points="119.14 412.83 119.14 327.51 139.12 327.51 139.12 394.35 176.84 394.35 176.84 412.83 119.14 412.83"/>
  <path d="M205.41,327.51h21.79l27.49,85.32h-21.41l-4.77-15.64h-26.01l-4.46,15.64h-20.67l28.04-85.32ZM207.25,379.52h17.04l-8.68-29.42-8.36,29.42h0Z"/>
  <path d="M262.37,412.83v-85.32h27.46l10.25,41.52c.92,3.68,1.75,7.24,2.49,10.7.74,3.46,1.39,6.82,1.95,10.1.67-3.48,1.43-7.12,2.27-10.91.85-3.82,1.82-7.89,2.91-12.26l9.68-39.15h27.4v85.32h-18.2v-37.83c0-2.67.05-6.41.18-11.21s.31-10.36.56-16.65l-14.97,65.69h-19.79l-14.64-65.69c.25,7.57.43,14.37.58,20.43.14,6.03.22,10.76.22,14.16v31.1h-18.36.01Z"/>
  <path d="M362.22,412.83v-85.32h27.46l10.25,41.52c.92,3.68,1.75,7.24,2.49,10.7.74,3.46,1.39,6.82,1.95,10.1.67-3.48,1.43-7.12,2.27-10.91.85-3.82,1.82-7.89,2.91-12.26l9.68-39.15h27.4v85.32h-18.2v-37.83c0-2.67.05-6.41.18-11.21s.31-10.36.56-16.65l-14.97,65.69h-19.79l-14.64-65.69c.25,7.57.43,14.37.58,20.43.14,6.03.22,10.76.22,14.16v31.1h-18.36.01Z"/>
  <path d="M482.43,327.51h21.79l27.49,85.32h-21.41l-4.77-15.64h-26.01l-4.46,15.64h-20.67l28.04-85.32h0ZM484.27,379.52h17.04l-8.68-29.42-8.36,29.42h0Z"/>
  <path d="M539.39,412.83v-85.32h37.82c9.06,0,15.74,1.78,20.06,5.36,4.31,3.58,6.48,9.08,6.48,16.49,0,4.59-.96,8.38-2.89,11.37-1.91,3.01-4.86,5.32-8.79,6.94,4.51,1.27,7.96,3.56,10.36,6.86,2.4,3.3,3.59,7.4,3.59,12.3s-.99,9.12-2.98,12.97c-2,3.86-4.8,6.86-8.39,8.98-2.42,1.46-5.36,2.51-8.83,3.12-3.45.61-8.77.93-15.96.93h-30.47ZM558.49,395.87h15.07c4.75,0,8.09-.73,9.98-2.18,1.9-1.44,2.85-3.9,2.85-7.32,0-3.1-.9-5.42-2.73-6.98-1.81-1.56-4.51-2.35-8.11-2.35h-17.08v18.82h.02ZM558.49,360.89h16.01c3.39,0,5.92-.69,7.56-2.06,1.66-1.36,2.49-3.46,2.49-6.23,0-2.59-.78-4.55-2.33-5.89-1.55-1.32-3.85-2-6.88-2h-16.86v16.17h.01Z"/>
  <polygon points="618.82 412.83 618.82 327.51 638.81 327.51 638.81 394.35 676.52 394.35 676.52 412.83 618.82 412.83"/>
  <polygon points="684.73 412.83 684.73 327.51 743.93 327.51 743.93 345.01 704.66 345.01 704.66 360.08 740.53 360.08 740.53 377.16 704.66 377.16 704.66 395.39 745.19 395.39 745.19 412.83 684.73 412.83"/>
  <polygon points="93.39 491.71 93.39 461.6 100.31 461.6 100.31 473.09 110.09 461.6 118.54 461.6 107.42 474.25 118.8 491.71 110.41 491.71 102.68 479.65 100.31 482.25 100.31 491.71 93.39 491.71"/>
  <polygon points="121.29 491.71 121.29 461.6 142.17 461.6 142.17 467.78 128.32 467.78 128.32 473.09 140.97 473.09 140.97 479.12 128.32 479.12 128.32 485.55 142.62 485.55 142.62 491.71 121.29 491.71"/>
  <polygon points="146.82 491.71 146.82 461.6 167.7 461.6 167.7 467.78 153.85 467.78 153.85 473.09 166.5 473.09 166.5 479.12 153.85 479.12 153.85 485.55 168.15 485.55 168.15 491.71 146.82 491.71"/>
  <path d="M172.35,491.71v-30.1h12.58c3.18,0,5.61.81,7.27,2.42,1.67,1.62,2.5,3.95,2.5,7,0,3.2-.82,5.66-2.47,7.37-1.64,1.71-4.01,2.57-7.09,2.57h-5.73v10.75h-7.07,0ZM179.42,474.89h4.67c1.27,0,2.2-.29,2.81-.89.61-.59.9-1.51.9-2.75s-.31-2.1-.94-2.69-1.58-.89-2.85-.89h-4.59v7.21h0Z"/>
  <polygon points="209.99 491.71 209.99 461.6 229.72 461.6 229.72 467.85 216.99 467.85 216.99 474.09 228.04 474.09 228.04 480.33 216.99 480.33 216.99 491.71 209.99 491.71"/>
  <polygon points="233.43 491.71 233.43 461.6 240.48 461.6 240.48 485.18 253.78 485.18 253.78 491.71 233.43 491.71"/>
  <path d="M263.87,461.6h7.69l9.7,30.1h-7.55l-1.68-5.52h-9.18l-1.57,5.52h-7.29l9.89-30.1h-.01ZM264.52,479.95h6.01l-3.06-10.38-2.95,10.38Z"/>
  <path d="M283.96,491.71v-30.1h9.69l3.62,14.65c.32,1.3.62,2.55.88,3.77s.49,2.41.69,3.56c.24-1.23.5-2.51.8-3.85.3-1.35.64-2.78,1.03-4.33l3.41-13.81h9.67v30.1h-6.42v-13.35c0-.94.02-2.26.06-3.96.04-1.7.11-3.66.2-5.87l-5.28,23.18h-6.98l-5.17-23.18c.09,2.67.15,5.07.2,7.21.05,2.13.08,3.8.08,5v10.97h-6.48,0Z"/>
  <polygon points="319.19 491.71 319.19 461.6 340.08 461.6 340.08 467.78 326.23 467.78 326.23 473.09 338.88 473.09 338.88 479.12 326.23 479.12 326.23 485.55 340.53 485.55 340.53 491.71 319.19 491.71"/>
  <path d="M343.4,481.71h6.76c.05,1.72.51,3.01,1.38,3.87.87.87,2.15,1.3,3.83,1.3,1.43,0,2.54-.26,3.32-.77.78-.52,1.18-1.25,1.18-2.19,0-.47-.1-.9-.28-1.28-.19-.37-.45-.66-.79-.84-.51-.3-1.76-.77-3.75-1.41s-3.67-1.26-5.04-1.86c-1.97-.86-3.48-2-4.5-3.4-1.03-1.41-1.54-3.06-1.54-4.93,0-2.87.99-5.16,2.96-6.86,1.97-1.7,4.64-2.55,8.02-2.55s5.93.89,7.87,2.68c1.94,1.79,2.91,4.19,2.91,7.23h-6.62c-.15-1.4-.6-2.44-1.35-3.1-.76-.67-1.84-1-3.26-1-1.13,0-2.05.26-2.76.77-.71.51-1.06,1.16-1.06,1.95,0,1.33,1.69,2.6,5.06,3.78.61.22,1.08.38,1.4.49l.27.1c3.48,1.23,5.66,2.24,6.54,3,.89.8,1.55,1.72,2.02,2.79.46,1.07.69,2.26.69,3.57,0,2.99-1.05,5.33-3.15,7s-5.03,2.5-8.82,2.5c-3.57,0-6.29-.89-8.16-2.69-1.87-1.79-2.9-4.51-3.11-8.15"/>
  <path d="M389.26,461.6h7.69l9.7,30.1h-7.55l-1.68-5.52h-9.18l-1.57,5.52h-7.29l9.89-30.1h-.01ZM389.9,479.95h6.01l-3.06-10.38-2.95,10.38Z"/>
  <path d="M409.31,491.71v-30.1h7.61l5.19,9.89c.85,1.6,1.65,3.2,2.41,4.78s1.47,3.14,2.15,4.68c-.1-2.27-.17-4.41-.22-6.4s-.08-3.74-.08-5.25v-7.7h6.79v30.1h-7.59l-5.4-10.18c-.64-1.2-1.32-2.55-2.07-4.03-.75-1.49-1.54-3.1-2.37-4.83.13,1.96.24,3.79.29,5.48.06,1.69.1,3.19.1,4.49v9.08h-6.81Z"/>
  <path d="M438.6,491.71v-30.1h11.74c4.06,0,7.18,1.3,9.36,3.89,2.17,2.6,3.26,6.33,3.26,11.19s-1.12,8.79-3.37,11.28c-2.24,2.49-5.63,3.74-10.16,3.74h-10.83ZM445.67,485.39h3.83c2.17,0,3.77-.7,4.78-2.11,1.01-1.4,1.52-3.6,1.52-6.6s-.51-5.22-1.52-6.61c-1.01-1.4-2.61-2.09-4.78-2.09h-3.83v17.41h0Z"/>
  <polygon points="478.5 491.71 478.5 461.6 485.57 461.6 485.57 472.29 495.2 472.29 495.2 461.6 502.27 461.6 502.27 491.71 495.2 491.71 495.2 479.02 485.57 479.02 485.57 491.71 478.5 491.71"/>
  <polygon points="507.7 491.71 507.7 461.6 528.59 461.6 528.59 467.78 514.73 467.78 514.73 473.09 527.39 473.09 527.39 479.12 514.73 479.12 514.73 485.55 529.03 485.55 529.03 491.71 507.7 491.71"/>
  <path d="M540.42,461.6h7.69l9.7,30.1h-7.55l-1.68-5.52h-9.18l-1.57,5.52h-7.29l9.89-30.1h-.01ZM541.07,479.95h6.01l-3.06-10.38-2.95,10.38Z"/>
  <polygon points="564.65 491.71 564.65 467.71 556.78 467.71 556.78 461.6 579.56 461.6 579.56 467.71 571.69 467.71 571.69 491.71 564.65 491.71"/>
  <path d="M601.12,461.6h7.69l9.7,30.1h-7.55l-1.68-5.52h-9.18l-1.57,5.52h-7.29l9.89-30.1h-.01ZM601.77,479.95h6.01l-3.06-10.38-2.95,10.38Z"/>
  <polygon points="625.18 491.71 617.66 461.6 624.73 461.6 628.57 482.96 632.25 461.6 639.75 461.6 643.37 482.96 647.23 461.6 654.31 461.6 646.73 491.71 639.86 491.71 635.96 470.06 632.06 491.71 625.18 491.71"/>
  <path d="M663.34,461.6h7.69l9.7,30.1h-7.55l-1.68-5.52h-9.18l-1.57,5.52h-7.29l9.89-30.1h-.01ZM663.99,479.95h6.01l-3.06-10.38-2.95,10.38Z"/>
  <polygon points="687.62 491.71 687.62 480.36 678.12 461.6 686.01 461.6 691.07 473.74 696.11 461.6 704.06 461.6 694.46 480.36 694.46 491.71 687.62 491.71"/>
  <path class="st2" d="M44.75,21.27h704.41c12.91,0,23.48,10.57,23.48,23.48v505.98c0,12.91-10.57,23.48-23.48,23.48H44.75c-12.91,0-23.48-10.57-23.48-23.48V44.75c0-12.91,10.57-23.48,23.48-23.48M44.75,13.34h704.41c17.28,0,31.42,14.14,31.42,31.42v505.98c0,17.28-14.14,31.42-31.42,31.42H44.75c-17.28,0-31.42-14.14-31.42-31.42V44.75c0-17.28,14.14-31.42,31.42-31.42h0Z"/>
  <path class="st2" d="M47.9,34.34h698.13c7,0,12.73,5.73,12.73,12.73v191.43H35.16V47.07c0-7,5.73-12.73,12.73-12.73"/>
  <path class="st1" d="M396.96,48.6h0c92.6,0,176.47,9.65,237.2,25.24,61.46,15.78,99.48,37.88,99.48,62.58h0c0,24.69-38.02,46.8-99.48,62.58-60.73,15.59-144.6,25.24-237.2,25.24h0c-92.6,0-176.47-9.65-237.2-25.24-61.46-15.78-99.48-37.88-99.48-62.58h0c0-24.69,38.02-46.8,99.48-62.58,60.73-15.59,144.6-25.24,237.2-25.24h0Z"/>
  <path class="st3" d="M396.96,52.33h0c-92.29,0-175.83,9.59-236.28,25.11-59.73,15.33-96.68,36.2-96.68,58.97h0c0,22.77,36.95,43.64,96.68,58.97,60.45,15.52,144,25.12,236.29,25.12h0c92.29,0,175.83-9.59,236.28-25.11,59.73-15.33,96.68-36.2,96.68-58.97h0c0-22.77-36.95-43.64-96.68-58.97-60.45-15.52-144-25.12-236.29-25.12"/>
  <path class="st1" d="M581.81,129.67h9.28c.99,0,2.93-.32,5.82-.96,1.46-.3,2.65-1.04,3.58-2.24.91-1.19,1.38-2.57,1.38-4.13,0-2.3-.73-4.06-2.19-5.29-1.46-1.24-4.19-1.86-8.21-1.86h-9.66v14.47h0ZM559.71,172.02v-71.19h36.67c6.8,0,12,.58,15.58,1.76,3.6,1.16,6.5,3.32,8.7,6.48,2.2,3.15,3.3,6.99,3.3,11.52,0,3.96-.85,7.36-2.52,10.23-1.69,2.87-4.01,5.19-6.95,6.98-1.89,1.13-4.46,2.07-7.72,2.8,2.62.88,4.53,1.76,5.74,2.64.8.58,1.97,1.82,3.51,3.73,1.54,1.92,2.57,3.38,3.08,4.43l10.64,20.64h-24.86l-11.75-21.76c-1.49-2.8-2.82-4.64-3.99-5.49-1.57-1.09-3.38-1.64-5.39-1.64h-1.94v28.89h-22.1v-.02h0ZM487.55,100.83h58.94v15.2h-36.9v11.32h34.23v14.52h-34.23v14.02h37.98v16.13h-60.02v-71.19h0ZM440.54,146.23v-14.8h33.98v30.35c-6.5,4.43-12.25,7.46-17.26,9.05-5.01,1.61-10.94,2.4-17.8,2.4-8.45,0-15.33-1.44-20.65-4.33-5.34-2.87-9.47-7.16-12.38-12.86-2.93-5.7-4.41-12.23-4.41-19.61,0-7.77,1.61-14.54,4.81-20.29,3.22-5.74,7.91-10.09,14.09-13.08,4.82-2.3,11.32-3.45,19.48-3.45s13.74.71,17.65,2.14c3.9,1.43,7.13,3.63,9.71,6.63,2.57,2.98,4.51,6.78,5.8,11.39l-21.22,3.78c-.88-2.69-2.37-4.74-4.46-6.17-2.07-1.43-4.74-2.14-7.97-2.14-4.82,0-8.67,1.67-11.54,5.02-2.87,3.36-4.31,8.65-4.31,15.91,0,7.71,1.46,13.21,4.36,16.51,2.88,3.3,6.93,4.96,12.12,4.96,2.45,0,4.81-.36,7.03-1.08,2.24-.71,4.81-1.92,7.67-3.63v-6.71h-14.7,0ZM322.04,100.83h20.55l26.8,39.38v-39.38h20.74v71.19h-20.74l-26.67-39.09v39.09h-20.69v-71.19h.01ZM283.73,144.87l-7.87-25.59-7.82,25.59h15.7-.01ZM288.34,160.27h-25.06l-3.45,11.75h-22.48l26.75-71.19h23.99l26.77,71.19h-23.02l-3.5-11.75h0ZM193.74,116.96v38.89h5.39c4.61,0,7.87-.5,9.81-1.53,1.94-1.01,3.46-2.8,4.57-5.34,1.09-2.54,1.64-6.66,1.64-12.37,0-7.54-1.23-12.7-3.68-15.48-2.47-2.78-6.55-4.18-12.25-4.18h-5.49,0ZM171.75,100.83h32.69c6.43,0,11.64.88,15.62,2.62,3.96,1.76,7.24,4.26,9.83,7.53,2.59,3.28,4.46,7.08,5.64,11.42,1.16,4.34,1.74,8.93,1.74,13.79,0,7.61-.86,13.51-2.6,17.7-1.72,4.19-4.13,7.71-7.21,10.53-3.07,2.83-6.37,4.72-9.9,5.67-4.82,1.29-9.2,1.94-13.11,1.94h-32.69v-71.19h0Z"/>
</svg>