<?xml version="1.0" encoding="UTF-8"?>
<svg id="uuid-fe0c14c4-fb5d-4bcf-9d5b-52bbab4cdf48" xmlns="http://www.w3.org/2000/svg" width="229.31mm" height="89.96mm" xmlns:xlink="http://www.w3.org/1999/xlink" version="1.1" viewBox="0 0 650.01 255">
  <!-- Generator: Adobe Illustrator 29.4.0, SVG Export Plug-In . SVG Version: 2.1.0 Build 152)  -->
  <defs>
    <style>
      .st0 {
        fill: none;
      }

      .st1 {
        fill: #fff;
      }

      .st2 {
        fill: #0b804c;
      }

      .st3 {
        clip-path: url(#clippath);
      }
    </style>
    <clipPath id="clippath">
      <rect class="st0" x="10.73" y="15.63" width="628.55" height="223.73"/>
    </clipPath>
  </defs>
  <rect class="st1" x="0" y="0" width="650.01" height="255"/>
  <g class="st3">
    <rect class="st2" x="10.99" y="15.64" width="628.29" height="223.73"/>
  </g>
  <polygon class="st1" points="20.81 127.56 112.36 205.75 112.36 159.97 250.38 159.97 250.38 95.15 112.36 95.15 112.36 49.37 20.81 127.56"/>
  <g>
    <path class="st1" d="M330.47,117.75h-14.48V48.32h39.8v12.06h-25.31v17.9h23.55v12.01h-23.55v27.45h-.01,0Z"/>
    <path class="st1" d="M376.56,117.75V48.32h14.72v69.43h-14.72Z"/>
    <path class="st1" d="M430.68,91.11v26.64h-14.72V48.32h20.23c9.43,0,16.41,1.72,20.94,5.15,4.53,3.44,6.79,8.65,6.79,15.65,0,4.08-1.12,7.72-3.37,10.9s-5.43,5.67-9.54,7.48c10.45,15.61,17.25,25.69,20.42,30.25h-16.34l-16.57-26.64h-7.84ZM430.68,79.14h4.75c4.65,0,8.09-.78,10.31-2.33s3.32-3.99,3.32-7.31-1.13-5.63-3.4-7.03c-2.26-1.39-5.77-2.09-10.52-2.09h-4.46v18.76h0Z"/>
    <path class="st1" d="M528.34,98.47c0,6.27-2.26,11.21-6.77,14.82s-10.79,5.41-18.83,5.41c-7.41,0-13.96-1.39-19.66-4.18v-13.68c4.69,2.09,8.65,3.56,11.9,4.42,3.24.85,6.21,1.28,8.9,1.28,3.23,0,5.71-.62,7.43-1.85,1.73-1.23,2.59-3.07,2.59-5.51,0-1.36-.38-2.57-1.14-3.63s-1.88-2.08-3.35-3.06c-1.47-.98-4.47-2.55-9-4.7-4.24-1.99-7.42-3.91-9.55-5.75-2.12-1.84-3.82-3.97-5.08-6.41-1.27-2.44-1.9-5.29-1.9-8.55,0-6.14,2.08-10.97,6.25-14.48,4.16-3.51,9.92-5.27,17.26-5.27,3.61,0,7.05.43,10.33,1.28s6.7,2.06,10.28,3.61l-4.75,11.44c-3.7-1.52-6.77-2.58-9.19-3.18s-4.8-.9-7.15-.9c-2.79,0-4.92.65-6.41,1.95s-2.23,2.99-2.23,5.08c0,1.3.3,2.43.9,3.4s1.56,1.9,2.87,2.8,4.42,2.52,9.33,4.87c6.49,3.1,10.94,6.21,13.34,9.33,2.41,3.12,3.61,6.94,3.61,11.47h.02Z"/>
    <path class="st1" d="M574.91,117.75h-14.72v-57.18h-18.85v-12.25h52.43v12.25h-18.85v57.18h-.01Z"/>
  </g>
  <g>
    <path class="st1" d="M405.25,201.64l-5.03-16.53h-25.31l-5.03,16.53h-15.86l24.5-69.71h18l24.6,69.71h-15.87ZM396.71,172.77c-4.65-14.97-7.27-23.44-7.86-25.41-.59-1.96-1.01-3.51-1.26-4.65-1.04,4.05-4.04,14.07-8.98,30.06h18.1Z"/>
    <path class="st1" d="M437.05,201.64v-69.43h14.72v69.43h-14.72Z"/>
    <path class="st1" d="M534.05,166.26c0,11.43-3.25,20.18-9.76,26.26s-15.9,9.12-28.18,9.12h-19.66v-69.43h21.8c11.33,0,20.14,2.99,26.4,8.98s9.4,14.34,9.4,25.07h0ZM518.76,166.64c0-14.91-6.59-22.37-19.76-22.37h-7.84v45.21h6.32c14.18,0,21.27-7.61,21.27-22.84h.01Z"/>
  </g>
</svg>