<?xml version="1.0" encoding="UTF-8"?>
<svg id="uuid-dce921ac-3916-4b49-a7bc-2484e7b55ccb" xmlns="http://www.w3.org/2000/svg" width="210.08mm" height="297.13mm" xmlns:xlink="http://www.w3.org/1999/xlink" version="1.1" viewBox="0 0 595.5 842.26">
  <!-- Generator: Adobe Illustrator 29.4.0, SVG Export Plug-In . SVG Version: 2.1.0 Build 152)  -->
  <defs>
    <style>
      .st0 {
        fill: none;
      }

      .st1 {
        fill: #fff;
      }

      .st2 {
        fill: #0b804c;
      }

      .st3 {
        clip-path: url(#clippath);
      }
    </style>
    <clipPath id="clippath">
      <path class="st0" d="M42.3,16.26h510.68c7.36,0,14.42,2.92,19.62,8.13,5.2,5.2,8.13,12.26,8.13,19.62v753.88c0,7.36-2.92,14.42-8.13,19.62-5.2,5.2-12.26,8.13-19.62,8.13H42.3c-7.36,0-14.42-2.92-19.62-8.13-5.2-5.2-8.13-12.26-8.13-19.62V44.01c0-7.36,2.92-14.42,8.13-19.62,5.2-5.21,12.26-8.13,19.62-8.13Z"/>
    </clipPath>
  </defs>
  <rect class="st1" x="0" y="0" width="595.5" height="842.25"/>
  <rect class="st1" x="0" y="0" width="595.5" height="842.25"/>
  <g class="st3">
    <rect class="st2" x="14.55" y="16.26" width="566.18" height="809.46"/>
  </g>
  <rect class="st0" x="78.92" y="48.9" width="437.25" height="437.25"/>
  <polygon class="st1" points="516.35 192.71 516.35 342.5 372.7 342.5 372.7 486.33 222.91 486.33 222.91 342.5 78.92 342.5 78.92 192.71 222.91 192.71 222.91 48.9 372.7 48.9 372.7 192.71 516.35 192.71"/>
  <g>
    <path class="st1" d="M53.52,615.86h-16.83v-80.66h46.23v14.01h-29.41v20.8h27.36v13.96h-27.36v31.89h.01Z"/>
    <path class="st1" d="M98.7,615.86v-80.66h17.1v80.66h-17.1Z"/>
    <path class="st1" d="M153.21,584.91v30.95h-17.1v-80.66h23.5c10.96,0,19.07,2,24.33,5.99,5.26,3.99,7.89,10.05,7.89,18.18,0,4.74-1.31,8.96-3.92,12.66-2.61,3.7-6.31,6.59-11.09,8.69,12.14,18.13,20.04,29.85,23.72,35.14h-18.98l-19.25-30.95h-9.1ZM153.21,571.01h5.52c5.41,0,9.4-.9,11.97-2.7s3.86-4.63,3.86-8.5-1.32-6.55-3.94-8.17c-2.63-1.62-6.7-2.43-12.22-2.43h-5.19v21.79h0Z"/>
    <path class="st1" d="M258.31,593.46c0,7.28-2.62,13.02-7.86,17.21s-12.53,6.29-21.88,6.29c-8.61,0-16.22-1.62-22.84-4.86v-15.89c5.44,2.43,10.05,4.14,13.82,5.13,3.77.99,7.22,1.49,10.34,1.49,3.75,0,6.63-.72,8.63-2.15,2-1.43,3.01-3.57,3.01-6.4,0-1.58-.44-2.99-1.32-4.22s-2.18-2.42-3.89-3.56-5.2-2.96-10.45-5.46c-4.93-2.32-8.63-4.54-11.09-6.68-2.46-2.13-4.43-4.62-5.9-7.45s-2.21-6.14-2.21-9.93c0-7.13,2.42-12.74,7.25-16.83,4.84-4.08,11.52-6.12,20.05-6.12,4.19,0,8.19.5,12,1.49s7.79,2.39,11.94,4.19l-5.52,13.3c-4.3-1.77-7.86-3-10.68-3.7-2.81-.7-5.58-1.05-8.3-1.05-3.24,0-5.72.75-7.45,2.26s-2.59,3.48-2.59,5.9c0,1.51.35,2.82,1.05,3.95.7,1.12,1.81,2.21,3.34,3.25,1.53,1.05,5.14,2.93,10.84,5.65,7.54,3.61,12.71,7.22,15.5,10.84,2.79,3.62,4.19,8.06,4.19,13.32l.02.03h0Z"/>
    <path class="st1" d="M304.04,615.86h-17.1v-66.42h-21.9v-14.23h60.91v14.23h-21.9v66.42h-.01Z"/>
    <path class="st1" d="M417.09,615.86l-5.85-19.2h-29.41l-5.85,19.2h-18.43l28.47-80.99h20.91l28.58,80.99h-18.43.01ZM407.16,582.32c-5.41-17.4-8.45-27.23-9.13-29.52-.68-2.28-1.17-4.08-1.46-5.41-1.21,4.71-4.69,16.35-10.43,34.92h21.02Z"/>
    <path class="st1" d="M445.67,615.86v-80.66h17.1v80.66h-17.1Z"/>
    <path class="st1" d="M549.99,574.76c0,13.28-3.78,23.45-11.34,30.51s-18.47,10.59-32.74,10.59h-22.84v-80.66h25.32c13.17,0,23.39,3.48,30.67,10.43s10.92,16.66,10.92,29.13h.01ZM532.23,575.2c0-17.32-7.65-25.98-22.95-25.98h-9.1v52.52h7.34c16.48,0,24.72-8.85,24.72-26.54h0Z"/>
  </g>
  <g>
    <path class="st1" d="M147.24,706.41v30.95h-17.1v-80.66h23.5c10.96,0,19.07,2,24.33,5.99,5.26,3.99,7.89,10.05,7.89,18.18,0,4.74-1.31,8.96-3.92,12.66-2.61,3.7-6.31,6.59-11.09,8.69,12.14,18.13,20.04,29.85,23.72,35.14h-18.98l-19.25-30.95h-9.1ZM147.24,692.51h5.52c5.41,0,9.4-.9,11.97-2.7s3.86-4.63,3.86-8.5-1.32-6.55-3.94-8.17c-2.63-1.62-6.7-2.43-12.22-2.43h-5.19v21.79h0Z"/>
    <path class="st1" d="M277.94,696.92c0,13.35-3.31,23.61-9.93,30.79-6.62,7.17-16.11,10.76-28.47,10.76s-21.85-3.59-28.47-10.76-9.93-17.47-9.93-30.9,3.32-23.68,9.96-30.76,16.15-10.62,28.55-10.62,21.88,3.57,28.44,10.7c6.57,7.14,9.85,17.4,9.85,30.78h0ZM219.07,696.92c0,9.01,1.71,15.8,5.13,20.36s8.53,6.84,15.34,6.84c13.65,0,20.47-9.07,20.47-27.2s-6.79-27.25-20.36-27.25c-6.8,0-11.94,2.29-15.39,6.87-3.46,4.58-5.19,11.37-5.19,20.38Z"/>
    <path class="st1" d="M367.87,696.92c0,13.35-3.31,23.61-9.93,30.79-6.62,7.17-16.11,10.76-28.47,10.76s-21.85-3.59-28.47-10.76-9.93-17.47-9.93-30.9,3.32-23.68,9.96-30.76c6.64-7.08,16.15-10.62,28.55-10.62s21.88,3.57,28.44,10.7c6.56,7.14,9.85,17.4,9.85,30.78h0ZM309,696.92c0,9.01,1.71,15.8,5.13,20.36s8.53,6.84,15.34,6.84c13.64,0,20.47-9.07,20.47-27.2s-6.79-27.25-20.36-27.25c-6.8,0-11.94,2.29-15.39,6.87-3.46,4.58-5.19,11.37-5.19,20.38Z"/>
    <path class="st1" d="M418.73,737.36l-19.42-63.28h-.5c.7,12.87,1.05,21.46,1.05,25.76v37.52h-15.28v-80.66h23.28l19.09,61.68h.33l20.25-61.68h23.28v80.66h-15.94v-38.18c0-1.8.03-3.88.08-6.23.06-2.35.3-8.61.75-18.76h-.5l-20.8,63.17h-15.67,0Z"/>
  </g>
</svg>