<?xml version="1.0" encoding="UTF-8"?>
<svg id="uuid-fe0c14c4-fb5d-4bcf-9d5b-52bbab4cdf48" data-name="Layer 1" xmlns="http://www.w3.org/2000/svg" xmlns:xlink="http://www.w3.org/1999/xlink" viewBox="0 0 841.92 255">
  <defs>
    <style>
      .uuid-90246004-0aee-424d-982a-5ffc350776fe {
        fill: none;
      }

      .uuid-eae3e126-c719-4c26-b95a-18f8ec1215f5 {
        clip-path: url(#uuid-ea315058-afc3-4dc0-a9ff-93b621393b27);
      }

      .uuid-2dbd62c6-50ed-41ee-860a-389dbfe9eab2 {
        fill: #fff;
      }

      .uuid-8ba72d5e-03ad-4d23-b148-2d7dcf748187 {
        clip-path: url(#uuid-cddda123-4595-4fe1-beb7-4a5db07ab9f1);
      }

      .uuid-aeddaae9-c916-43c6-b4f6-daba4c4d71c2 {
        fill: #0b804c;
      }
    </style>
    <clipPath id="uuid-cddda123-4595-4fe1-beb7-4a5db07ab9f1">
      <rect class="uuid-90246004-0aee-424d-982a-5ffc350776fe" x="10.46" y="15.7" width="820.97" height="223.73"/>
    </clipPath>
    <clipPath id="uuid-ea315058-afc3-4dc0-a9ff-93b621393b27">
      <polygon class="uuid-90246004-0aee-424d-982a-5ffc350776fe" points="762.65 127.56 671.1 49.37 671.1 95.15 533.08 95.15 533.08 159.97 671.1 159.97 671.1 205.75 762.65 127.56"/>
    </clipPath>
  </defs>
  <rect class="uuid-2dbd62c6-50ed-41ee-860a-389dbfe9eab2" width="842.25" height="255"/>
  <rect class="uuid-2dbd62c6-50ed-41ee-860a-389dbfe9eab2" width="842.25" height="255"/>
  <g class="uuid-8ba72d5e-03ad-4d23-b148-2d7dcf748187">
    <rect class="uuid-aeddaae9-c916-43c6-b4f6-daba4c4d71c2" x="10.46" y="15.7" width="820.63" height="223.73"/>
  </g>
  <g>
    <path class="uuid-2dbd62c6-50ed-41ee-860a-389dbfe9eab2" d="M89.32,122.18h-14.48V52.75h39.8v12.06h-25.31v17.9h23.55v12.01h-23.55v27.45Z"/>
    <path class="uuid-2dbd62c6-50ed-41ee-860a-389dbfe9eab2" d="M135.41,122.18V52.75h14.72v69.43h-14.72Z"/>
    <path class="uuid-2dbd62c6-50ed-41ee-860a-389dbfe9eab2" d="M189.53,95.54v26.64h-14.72V52.75h20.23c9.43,0,16.41,1.72,20.94,5.15,4.53,3.44,6.79,8.65,6.79,15.65,0,4.08-1.12,7.72-3.37,10.9-2.25,3.18-5.43,5.67-9.54,7.48,10.45,15.61,17.25,25.69,20.42,30.25h-16.34l-16.57-26.64h-7.84ZM189.53,83.57h4.75c4.65,0,8.09-.78,10.31-2.33,2.22-1.55,3.32-3.99,3.32-7.31s-1.13-5.63-3.4-7.03c-2.26-1.39-5.77-2.09-10.52-2.09h-4.46v18.76Z"/>
    <path class="uuid-2dbd62c6-50ed-41ee-860a-389dbfe9eab2" d="M287.19,102.9c0,6.27-2.26,11.21-6.77,14.82-4.51,3.61-10.79,5.41-18.83,5.41-7.41,0-13.96-1.39-19.66-4.18v-13.68c4.69,2.09,8.65,3.56,11.9,4.42,3.24.85,6.21,1.28,8.9,1.28,3.23,0,5.71-.62,7.43-1.85,1.73-1.23,2.59-3.07,2.59-5.51,0-1.36-.38-2.57-1.14-3.63-.76-1.06-1.88-2.08-3.35-3.06-1.47-.98-4.47-2.55-9-4.7-4.24-1.99-7.42-3.91-9.55-5.75-2.12-1.84-3.82-3.97-5.08-6.41-1.27-2.44-1.9-5.29-1.9-8.55,0-6.14,2.08-10.97,6.25-14.48,4.16-3.51,9.92-5.27,17.26-5.27,3.61,0,7.05.43,10.33,1.28,3.28.85,6.7,2.06,10.28,3.61l-4.75,11.44c-3.7-1.52-6.77-2.58-9.19-3.18-2.42-.6-4.8-.9-7.15-.9-2.79,0-4.92.65-6.41,1.95-1.49,1.3-2.23,2.99-2.23,5.08,0,1.3.3,2.43.9,3.4.6.97,1.56,1.9,2.87,2.8,1.31.9,4.42,2.52,9.33,4.87,6.49,3.1,10.94,6.21,13.34,9.33,2.41,3.12,3.61,6.94,3.61,11.47Z"/>
    <path class="uuid-2dbd62c6-50ed-41ee-860a-389dbfe9eab2" d="M333.76,122.18h-14.72v-57.18h-18.85v-12.25h52.43v12.25h-18.85v57.18Z"/>
  </g>
  <g>
    <path class="uuid-2dbd62c6-50ed-41ee-860a-389dbfe9eab2" d="M172.81,206.76l-5.03-16.53h-25.31l-5.03,16.53h-15.86l24.5-69.71h18l24.6,69.71h-15.86ZM164.27,177.89c-4.65-14.97-7.27-23.44-7.86-25.41-.59-1.96-1.01-3.51-1.26-4.65-1.04,4.05-4.04,14.07-8.98,30.06h18.09Z"/>
    <path class="uuid-2dbd62c6-50ed-41ee-860a-389dbfe9eab2" d="M204.61,206.76v-69.43h14.72v69.43h-14.72Z"/>
    <path class="uuid-2dbd62c6-50ed-41ee-860a-389dbfe9eab2" d="M301.61,171.38c0,11.43-3.25,20.18-9.76,26.26-6.51,6.08-15.9,9.12-28.18,9.12h-19.66v-69.43h21.8c11.33,0,20.14,2.99,26.4,8.98s9.4,14.34,9.4,25.07ZM286.32,171.76c0-14.91-6.59-22.37-19.76-22.37h-7.84v45.21h6.32c14.18,0,21.27-7.61,21.27-22.84Z"/>
  </g>
  <g class="uuid-eae3e126-c719-4c26-b95a-18f8ec1215f5">
    <rect class="uuid-2dbd62c6-50ed-41ee-860a-389dbfe9eab2" x="533.08" y="49.37" width="229.68" height="156.37"/>
  </g>
</svg>