<?xml version="1.0" encoding="UTF-8"?>
<svg id="uuid-df556bd8-e56f-4737-9311-5239e7d20041" data-name="Layer 1" xmlns="http://www.w3.org/2000/svg" xmlns:xlink="http://www.w3.org/1999/xlink" viewBox="0 0 841.92 255">
  <defs>
    <style>
      .uuid-2ea205fd-c7df-4000-96d5-51bb18578aee {
        fill: none;
      }

      .uuid-516a1eb4-d5c8-49a4-a669-19686b8b6cc4 {
        clip-path: url(#uuid-e77f95b0-5223-48f7-8f84-a58e0afe8a77);
      }

      .uuid-24f40b62-bbf3-4f1d-909d-4e58fd88a3a2 {
        fill: #fff;
      }

      .uuid-cb801132-2342-485f-87bc-91d2d6e54336 {
        clip-path: url(#uuid-3473c8b7-b7b6-47d0-b8e8-c94e13dfd384);
      }

      .uuid-a5146096-eb64-4bd2-98b2-ff0735af6014 {
        fill: #0b804c;
      }
    </style>
    <clipPath id="uuid-3473c8b7-b7b6-47d0-b8e8-c94e13dfd384">
      <rect class="uuid-2ea205fd-c7df-4000-96d5-51bb18578aee" x="10.46" y="15.69" width="820.97" height="223.73"/>
    </clipPath>
    <clipPath id="uuid-e77f95b0-5223-48f7-8f84-a58e0afe8a77">
      <polygon class="uuid-2ea205fd-c7df-4000-96d5-51bb18578aee" points="80.76 127.55 172.31 205.73 172.31 159.96 310.33 159.96 310.33 95.13 172.31 95.13 172.31 49.36 80.76 127.55"/>
    </clipPath>
  </defs>
  <rect class="uuid-24f40b62-bbf3-4f1d-909d-4e58fd88a3a2" width="842.25" height="255"/>
  <rect class="uuid-24f40b62-bbf3-4f1d-909d-4e58fd88a3a2" width="842.25" height="255"/>
  <g class="uuid-cb801132-2342-485f-87bc-91d2d6e54336">
    <rect class="uuid-a5146096-eb64-4bd2-98b2-ff0735af6014" x="10.8" y="15.69" width="820.63" height="223.73"/>
  </g>
  <g>
    <path class="uuid-24f40b62-bbf3-4f1d-909d-4e58fd88a3a2" d="M499.77,122.18h-14.48V52.75h39.79v12.06h-25.31v17.9h23.55v12.01h-23.55v27.45Z"/>
    <path class="uuid-24f40b62-bbf3-4f1d-909d-4e58fd88a3a2" d="M545.86,122.18V52.75h14.72v69.43h-14.72Z"/>
    <path class="uuid-24f40b62-bbf3-4f1d-909d-4e58fd88a3a2" d="M599.97,95.54v26.64h-14.72V52.75h20.23c9.43,0,16.42,1.72,20.94,5.15,4.53,3.44,6.79,8.65,6.79,15.65,0,4.08-1.12,7.72-3.37,10.9-2.25,3.18-5.43,5.67-9.55,7.48,10.45,15.61,17.25,25.69,20.42,30.25h-16.34l-16.57-26.64h-7.84ZM599.97,83.57h4.75c4.65,0,8.09-.78,10.31-2.33,2.21-1.55,3.32-3.99,3.32-7.31s-1.13-5.63-3.4-7.03c-2.26-1.39-5.77-2.09-10.52-2.09h-4.46v18.76Z"/>
    <path class="uuid-24f40b62-bbf3-4f1d-909d-4e58fd88a3a2" d="M697.63,102.9c0,6.27-2.26,11.21-6.77,14.82-4.51,3.61-10.79,5.41-18.83,5.41-7.41,0-13.96-1.39-19.66-4.18v-13.68c4.69,2.09,8.65,3.56,11.9,4.42,3.25.85,6.21,1.28,8.9,1.28,3.23,0,5.71-.62,7.43-1.85,1.72-1.23,2.59-3.07,2.59-5.51,0-1.36-.38-2.57-1.14-3.63-.76-1.06-1.88-2.08-3.35-3.06-1.47-.98-4.47-2.55-9-4.7-4.24-1.99-7.42-3.91-9.54-5.75-2.12-1.84-3.82-3.97-5.08-6.41-1.27-2.44-1.9-5.29-1.9-8.55,0-6.14,2.08-10.97,6.24-14.48s9.92-5.27,17.26-5.27c3.61,0,7.05.43,10.33,1.28,3.28.85,6.7,2.06,10.28,3.61l-4.75,11.44c-3.7-1.52-6.77-2.58-9.19-3.18-2.42-.6-4.8-.9-7.15-.9-2.79,0-4.92.65-6.41,1.95-1.49,1.3-2.23,2.99-2.23,5.08,0,1.3.3,2.43.9,3.4.6.97,1.56,1.9,2.87,2.8,1.31.9,4.42,2.52,9.33,4.87,6.49,3.1,10.94,6.21,13.34,9.33,2.41,3.12,3.61,6.94,3.61,11.47Z"/>
    <path class="uuid-24f40b62-bbf3-4f1d-909d-4e58fd88a3a2" d="M744.2,122.18h-14.72v-57.18h-18.85v-12.25h52.43v12.25h-18.85v57.18Z"/>
  </g>
  <g>
    <path class="uuid-24f40b62-bbf3-4f1d-909d-4e58fd88a3a2" d="M583.26,206.76l-5.03-16.53h-25.31l-5.03,16.53h-15.86l24.5-69.71h18l24.6,69.71h-15.86ZM574.71,177.89c-4.65-14.97-7.27-23.44-7.86-25.41-.59-1.96-1.01-3.51-1.26-4.65-1.04,4.05-4.04,14.07-8.98,30.06h18.09Z"/>
    <path class="uuid-24f40b62-bbf3-4f1d-909d-4e58fd88a3a2" d="M615.05,206.76v-69.43h14.72v69.43h-14.72Z"/>
    <path class="uuid-24f40b62-bbf3-4f1d-909d-4e58fd88a3a2" d="M712.05,171.38c0,11.43-3.25,20.18-9.76,26.26-6.51,6.08-15.9,9.12-28.18,9.12h-19.66v-69.43h21.8c11.33,0,20.13,2.99,26.4,8.98s9.4,14.34,9.4,25.07ZM696.76,171.76c0-14.91-6.58-22.37-19.75-22.37h-7.84v45.21h6.32c14.18,0,21.27-7.61,21.27-22.84Z"/>
  </g>
  <g class="uuid-516a1eb4-d5c8-49a4-a669-19686b8b6cc4">
    <rect class="uuid-24f40b62-bbf3-4f1d-909d-4e58fd88a3a2" x="80.65" y="49.36" width="229.68" height="156.38"/>
  </g>
</svg>