<?xml version="1.0" encoding="UTF-8"?>
<svg id="uuid-824d1da6-c275-429b-92a2-f4661df67f08" data-name="Layer 1" xmlns="http://www.w3.org/2000/svg" xmlns:xlink="http://www.w3.org/1999/xlink" viewBox="0 0 595.5 842.25">
  <defs>
    <style>
      .uuid-df7e5623-1912-43a8-afd2-b8ae6cc56f1b {
        fill: none;
      }

      .uuid-045626dd-f78c-42f8-9f23-539c536cbf54 {
        clip-path: url(#uuid-4abe6e06-dad1-4bf6-82d1-9333e558f5ae);
      }

      .uuid-b382ed60-ef7a-4d25-a7cf-d62d2ef53714 {
        fill: #fff;
      }

      .uuid-470f9840-2e25-45d8-a8c5-d2c20ae0dacd {
        clip-path: url(#uuid-d5117b01-f5f7-4fd7-beb3-162c0da9cf09);
      }

      .uuid-db81906f-4f84-46c1-aa8e-dcee3a67263e {
        fill: #0b804c;
      }
    </style>
    <clipPath id="uuid-d5117b01-f5f7-4fd7-beb3-162c0da9cf09">
      <path class="uuid-df7e5623-1912-43a8-afd2-b8ae6cc56f1b" d="M42.3,16.26h510.68c7.36,0,14.42,2.92,19.62,8.13,5.2,5.2,8.13,12.26,8.13,19.62v753.88c0,7.36-2.92,14.42-8.13,19.62-5.2,5.2-12.26,8.13-19.62,8.13H42.3c-7.36,0-14.42-2.92-19.62-8.13-5.2-5.2-8.13-12.26-8.13-19.62V44.01c0-7.36,2.92-14.42,8.13-19.62,5.2-5.21,12.26-8.13,19.62-8.13Z"/>
    </clipPath>
    <clipPath id="uuid-4abe6e06-dad1-4bf6-82d1-9333e558f5ae">
      <rect class="uuid-df7e5623-1912-43a8-afd2-b8ae6cc56f1b" x="78.92" y="48.9" width="437.25" height="437.25"/>
    </clipPath>
  </defs>
  <rect class="uuid-b382ed60-ef7a-4d25-a7cf-d62d2ef53714" width="595.5" height="842.25"/>
  <rect class="uuid-b382ed60-ef7a-4d25-a7cf-d62d2ef53714" width="595.5" height="842.25"/>
  <g class="uuid-470f9840-2e25-45d8-a8c5-d2c20ae0dacd">
    <rect class="uuid-db81906f-4f84-46c1-aa8e-dcee3a67263e" x="14.55" y="16.26" width="566.18" height="809.46"/>
  </g>
  <g class="uuid-045626dd-f78c-42f8-9f23-539c536cbf54">
    <rect class="uuid-b382ed60-ef7a-4d25-a7cf-d62d2ef53714" x="222.91" y="48.9" width="149.79" height="437.43"/>
    <rect class="uuid-b382ed60-ef7a-4d25-a7cf-d62d2ef53714" x="78.92" y="192.71" width="437.43" height="149.79"/>
  </g>
  <g>
    <path class="uuid-b382ed60-ef7a-4d25-a7cf-d62d2ef53714" d="M53.52,615.86h-16.83v-80.66h46.23v14.01h-29.41v20.8h27.36v13.96h-27.36v31.89Z"/>
    <path class="uuid-b382ed60-ef7a-4d25-a7cf-d62d2ef53714" d="M98.7,615.86v-80.66h17.1v80.66h-17.1Z"/>
    <path class="uuid-b382ed60-ef7a-4d25-a7cf-d62d2ef53714" d="M153.21,584.91v30.95h-17.1v-80.66h23.5c10.96,0,19.07,2,24.33,5.99,5.26,3.99,7.89,10.05,7.89,18.18,0,4.74-1.31,8.96-3.92,12.66-2.61,3.7-6.31,6.59-11.09,8.69,12.14,18.13,20.04,29.85,23.72,35.14h-18.98l-19.25-30.95h-9.1ZM153.21,571.01h5.52c5.41,0,9.4-.9,11.97-2.7,2.57-1.8,3.86-4.63,3.86-8.5s-1.32-6.55-3.94-8.17c-2.63-1.62-6.7-2.43-12.22-2.43h-5.19v21.79Z"/>
    <path class="uuid-b382ed60-ef7a-4d25-a7cf-d62d2ef53714" d="M258.31,593.46c0,7.28-2.62,13.02-7.86,17.21-5.24,4.19-12.53,6.29-21.88,6.29-8.61,0-16.22-1.62-22.84-4.86v-15.89c5.44,2.43,10.05,4.14,13.82,5.13,3.77.99,7.22,1.49,10.34,1.49,3.75,0,6.63-.72,8.63-2.15,2-1.43,3.01-3.57,3.01-6.4,0-1.58-.44-2.99-1.32-4.22-.88-1.23-2.18-2.42-3.89-3.56-1.71-1.14-5.2-2.96-10.45-5.46-4.93-2.32-8.63-4.54-11.09-6.68-2.46-2.13-4.43-4.62-5.9-7.45-1.47-2.83-2.21-6.14-2.21-9.93,0-7.13,2.42-12.74,7.25-16.83,4.84-4.08,11.52-6.12,20.05-6.12,4.19,0,8.19.5,12,1.49,3.81.99,7.79,2.39,11.94,4.19l-5.52,13.3c-4.3-1.77-7.86-3-10.68-3.7-2.81-.7-5.58-1.05-8.3-1.05-3.24,0-5.72.75-7.45,2.26-1.73,1.51-2.59,3.48-2.59,5.9,0,1.51.35,2.82,1.05,3.95.7,1.12,1.81,2.21,3.34,3.25,1.53,1.05,5.14,2.93,10.84,5.65,7.54,3.61,12.71,7.22,15.5,10.84,2.79,3.62,4.19,8.06,4.19,13.32Z"/>
    <path class="uuid-b382ed60-ef7a-4d25-a7cf-d62d2ef53714" d="M304.04,615.86h-17.1v-66.42h-21.9v-14.23h60.91v14.23h-21.9v66.42Z"/>
    <path class="uuid-b382ed60-ef7a-4d25-a7cf-d62d2ef53714" d="M417.09,615.86l-5.85-19.2h-29.41l-5.85,19.2h-18.43l28.47-80.99h20.91l28.58,80.99h-18.43ZM407.16,582.32c-5.41-17.4-8.45-27.23-9.13-29.52-.68-2.28-1.17-4.08-1.46-5.41-1.21,4.71-4.69,16.35-10.43,34.92h21.02Z"/>
    <path class="uuid-b382ed60-ef7a-4d25-a7cf-d62d2ef53714" d="M445.67,615.86v-80.66h17.1v80.66h-17.1Z"/>
    <path class="uuid-b382ed60-ef7a-4d25-a7cf-d62d2ef53714" d="M549.99,574.76c0,13.28-3.78,23.45-11.34,30.51s-18.47,10.59-32.74,10.59h-22.84v-80.66h25.32c13.17,0,23.39,3.48,30.67,10.43s10.92,16.66,10.92,29.13ZM532.23,575.2c0-17.32-7.65-25.98-22.95-25.98h-9.1v52.52h7.34c16.48,0,24.72-8.85,24.72-26.54Z"/>
  </g>
  <g>
    <path class="uuid-b382ed60-ef7a-4d25-a7cf-d62d2ef53714" d="M107.94,714.96c0,7.28-2.62,13.02-7.86,17.21-5.24,4.19-12.53,6.29-21.88,6.29-8.61,0-16.22-1.62-22.84-4.86v-15.89c5.44,2.43,10.05,4.14,13.82,5.13,3.77.99,7.22,1.49,10.34,1.49,3.75,0,6.63-.72,8.63-2.15,2-1.43,3.01-3.57,3.01-6.4,0-1.58-.44-2.99-1.32-4.22-.88-1.23-2.18-2.42-3.89-3.56-1.71-1.14-5.2-2.96-10.45-5.46-4.93-2.32-8.63-4.54-11.09-6.68-2.46-2.13-4.43-4.62-5.9-7.45-1.47-2.83-2.21-6.14-2.21-9.93,0-7.13,2.42-12.74,7.25-16.83,4.84-4.08,11.52-6.12,20.05-6.12,4.19,0,8.19.5,12,1.49,3.81.99,7.79,2.39,11.94,4.19l-5.52,13.3c-4.3-1.77-7.86-3-10.68-3.7-2.81-.7-5.58-1.05-8.3-1.05-3.24,0-5.72.75-7.45,2.26-1.73,1.51-2.59,3.48-2.59,5.9,0,1.51.35,2.82,1.05,3.95.7,1.12,1.81,2.21,3.34,3.25,1.53,1.05,5.14,2.93,10.84,5.65,7.54,3.61,12.71,7.22,15.5,10.84,2.79,3.62,4.19,8.06,4.19,13.32Z"/>
    <path class="uuid-b382ed60-ef7a-4d25-a7cf-d62d2ef53714" d="M153.68,737.36h-17.1v-66.42h-21.9v-14.23h60.91v14.23h-21.9v66.42Z"/>
    <path class="uuid-b382ed60-ef7a-4d25-a7cf-d62d2ef53714" d="M237.37,737.36l-5.85-19.2h-29.41l-5.85,19.2h-18.43l28.47-80.99h20.91l28.58,80.99h-18.43ZM227.44,703.82c-5.41-17.4-8.45-27.23-9.13-29.52-.68-2.28-1.17-4.08-1.46-5.41-1.21,4.71-4.69,16.35-10.43,34.92h21.02Z"/>
    <path class="uuid-b382ed60-ef7a-4d25-a7cf-d62d2ef53714" d="M297.06,737.36h-17.1v-66.42h-21.9v-14.23h60.91v14.23h-21.9v66.42Z"/>
    <path class="uuid-b382ed60-ef7a-4d25-a7cf-d62d2ef53714" d="M331.38,737.36v-80.66h17.1v80.66h-17.1Z"/>
    <path class="uuid-b382ed60-ef7a-4d25-a7cf-d62d2ef53714" d="M441.99,696.92c0,13.35-3.31,23.61-9.93,30.79-6.62,7.17-16.11,10.76-28.47,10.76s-21.85-3.59-28.47-10.76c-6.62-7.17-9.93-17.47-9.93-30.9s3.32-23.68,9.96-30.76c6.64-7.08,16.16-10.62,28.55-10.62s21.88,3.57,28.44,10.7c6.56,7.14,9.85,17.4,9.85,30.78ZM383.13,696.92c0,9.01,1.71,15.8,5.13,20.36,3.42,4.56,8.53,6.84,15.34,6.84,13.65,0,20.47-9.07,20.47-27.2s-6.79-27.25-20.36-27.25c-6.8,0-11.94,2.29-15.39,6.87-3.46,4.58-5.19,11.37-5.19,20.38Z"/>
    <path class="uuid-b382ed60-ef7a-4d25-a7cf-d62d2ef53714" d="M530.26,737.36h-21.74l-35.09-61.02h-.5c.7,10.78,1.05,18.46,1.05,23.06v37.96h-15.28v-80.66h21.57l35.03,60.41h.39c-.55-10.48-.83-17.89-.83-22.23v-38.18h15.39v80.66Z"/>
  </g>
</svg>