<?xml version="1.0" encoding="UTF-8"?>
<svg id="uuid-2333f3b3-724d-4df8-9c9e-68646520cdab" data-name="uuid-fe0c14c4-fb5d-4bcf-9d5b-52bbab4cdf48" xmlns="http://www.w3.org/2000/svg" xmlns:xlink="http://www.w3.org/1999/xlink" viewBox="0 0 650 255">
  <defs>
    <style>
      .uuid-c7289aec-067e-43c6-898f-3ef0a65fb914 {
        fill: none;
      }

      .uuid-cf4fe6bf-b08a-4081-9264-31198c2b1db1 {
        clip-path: url(#uuid-ca20bb85-564d-4331-bd47-de13f88f4c5e);
      }

      .uuid-3980f5a2-cfd7-44a8-ae93-935dbdf4d3e6 {
        fill: #fff;
      }

      .uuid-c9047bdd-7ee3-477d-a7d6-fa6415b27d28 {
        clip-path: url(#uuid-b516faeb-6d2f-4144-99d5-85f915f19dd9);
      }

      .uuid-b1fb46fc-b3eb-4e3e-9bcb-0aa7166d191c {
        fill: #0b804c;
      }
    </style>
    <clipPath id="uuid-ca20bb85-564d-4331-bd47-de13f88f4c5e">
      <rect class="uuid-c7289aec-067e-43c6-898f-3ef0a65fb914" x="10.73" y="15.63" width="628.54" height="223.73"/>
    </clipPath>
    <clipPath id="uuid-b516faeb-6d2f-4144-99d5-85f915f19dd9">
      <polygon class="uuid-3980f5a2-cfd7-44a8-ae93-935dbdf4d3e6" points="20.81 127.56 112.36 205.75 112.36 159.97 250.38 159.97 250.38 95.15 112.36 95.15 112.36 49.37 20.81 127.56"/>
    </clipPath>
  </defs>
  <rect class="uuid-3980f5a2-cfd7-44a8-ae93-935dbdf4d3e6" width="650" height="255"/>
  <g class="uuid-cf4fe6bf-b08a-4081-9264-31198c2b1db1">
    <rect class="uuid-b1fb46fc-b3eb-4e3e-9bcb-0aa7166d191c" x="10.99" y="15.63" width="628.28" height="223.73" transform="translate(650.26 255) rotate(180)"/>
  </g>
  <g>
    <polygon class="uuid-3980f5a2-cfd7-44a8-ae93-935dbdf4d3e6" points="20.81 127.56 112.36 205.75 112.36 159.97 250.38 159.97 250.38 95.15 112.36 95.15 112.36 49.37 20.81 127.56"/>
    <g class="uuid-c9047bdd-7ee3-477d-a7d6-fa6415b27d28">
      <rect class="uuid-3980f5a2-cfd7-44a8-ae93-935dbdf4d3e6" x="20.7" y="49.38" width="229.68" height="156.37" transform="translate(271.08 255.14) rotate(180)"/>
    </g>
  </g>
  <g>
    <path class="uuid-3980f5a2-cfd7-44a8-ae93-935dbdf4d3e6" d="M314.1,117.89h-14.48V48.46h39.8v12.06h-25.31v17.9h23.55v12.01h-23.55v27.45h-.01Z"/>
    <path class="uuid-3980f5a2-cfd7-44a8-ae93-935dbdf4d3e6" d="M360.19,117.89V48.46h14.72v69.43h-14.72Z"/>
    <path class="uuid-3980f5a2-cfd7-44a8-ae93-935dbdf4d3e6" d="M414.31,91.25v26.64h-14.72V48.46h20.23c9.43,0,16.41,1.72,20.94,5.15,4.53,3.44,6.79,8.65,6.79,15.65,0,4.08-1.12,7.72-3.37,10.9s-5.43,5.67-9.54,7.48c10.45,15.61,17.25,25.69,20.42,30.25h-16.34l-16.57-26.64s-7.84,0-7.84,0ZM414.31,79.28h4.75c4.65,0,8.09-.78,10.31-2.33s3.32-3.99,3.32-7.31-1.13-5.63-3.4-7.03c-2.26-1.39-5.77-2.09-10.52-2.09h-4.46s0,18.76,0,18.76Z"/>
    <path class="uuid-3980f5a2-cfd7-44a8-ae93-935dbdf4d3e6" d="M511.97,98.61c0,6.27-2.26,11.21-6.77,14.82-4.51,3.61-10.79,5.41-18.83,5.41-7.41,0-13.96-1.39-19.66-4.18v-13.68c4.69,2.09,8.65,3.56,11.9,4.42,3.24.85,6.21,1.28,8.9,1.28,3.23,0,5.71-.62,7.43-1.85,1.73-1.23,2.59-3.07,2.59-5.51,0-1.36-.38-2.57-1.14-3.63s-1.88-2.08-3.35-3.06c-1.47-.98-4.47-2.55-9-4.7-4.24-1.99-7.42-3.91-9.55-5.75-2.12-1.84-3.82-3.97-5.08-6.41-1.27-2.44-1.9-5.29-1.9-8.55,0-6.14,2.08-10.97,6.25-14.48,4.16-3.51,9.92-5.27,17.26-5.27,3.61,0,7.05.43,10.33,1.28s6.7,2.06,10.28,3.61l-4.75,11.44c-3.7-1.52-6.77-2.58-9.19-3.18s-4.8-.9-7.15-.9c-2.79,0-4.92.65-6.41,1.95-1.49,1.3-2.23,2.99-2.23,5.08,0,1.3.3,2.43.9,3.4s1.56,1.9,2.87,2.8,4.42,2.52,9.33,4.87c6.49,3.1,10.94,6.21,13.34,9.33,2.41,3.12,3.61,6.94,3.61,11.47h.02Z"/>
    <path class="uuid-3980f5a2-cfd7-44a8-ae93-935dbdf4d3e6" d="M558.54,117.89h-14.72v-57.18h-18.85v-12.25h52.43v12.25h-18.85v57.18h0Z"/>
  </g>
  <g>
    <path class="uuid-3980f5a2-cfd7-44a8-ae93-935dbdf4d3e6" d="M393.91,202.47l-5.03-16.53h-25.31l-5.03,16.53h-15.86l24.5-69.71h18l24.6,69.71h-15.87ZM385.37,173.6c-4.65-14.97-7.27-23.44-7.86-25.41-.59-1.96-1.01-3.51-1.26-4.65-1.04,4.05-4.04,14.07-8.98,30.06h18.1Z"/>
    <path class="uuid-3980f5a2-cfd7-44a8-ae93-935dbdf4d3e6" d="M425.71,202.47v-69.43h14.72v69.43h-14.72Z"/>
    <path class="uuid-3980f5a2-cfd7-44a8-ae93-935dbdf4d3e6" d="M522.71,167.1c0,11.43-3.25,20.18-9.76,26.26s-15.9,9.12-28.18,9.12h-19.66v-69.43h21.8c11.33,0,20.14,2.99,26.4,8.98s9.4,14.34,9.4,25.07h0ZM507.42,167.47c0-14.91-6.59-22.37-19.76-22.37h-7.84v45.21h6.32c14.18,0,21.27-7.61,21.27-22.84h.01Z"/>
  </g>
</svg>